<svg width="1451" height="201" viewBox="0 0 1451 201" fill="none" xmlns="http://www.w3.org/2000/svg">
<path fill-rule="evenodd" clip-rule="evenodd" d="M1158.94 -342.988L1159.15 -328.933C1159.15 -163.675 1113.91 -12.3142 1041.33 98.7024C969.001 209.323 869.357 279.837 760.34 283.836L750.58 284.152C688.19 284.152 629.072 262.697 576.183 224.343C604.339 288.479 628.195 357.419 647.119 430.19C661.858 434.809 676.841 438.438 692.043 441.059C711.022 444.385 730.543 446.047 750.58 446.047C892.519 446.047 1021.03 357.836 1114.06 215.225C1207.1 72.5742 1264.63 -124.476 1264.63 -342.115H1312.78C1312.78 -104.086 1249.86 111.454 1148.1 267.407C1046.36 423.44 905.817 519.927 750.58 519.927C729.252 519.927 707.949 518.026 686.776 514.344C679.666 513.103 672.596 511.66 665.568 510.019C676.567 564.221 684.9 620.222 690.332 677.662C697.335 678.641 704.294 679.448 711.203 680.077C723.623 681.225 736.766 681.78 750.58 681.78C934.995 681.78 1101.95 567.16 1222.77 381.908C1343.67 196.538 1418.44 -59.4657 1418.44 -342.115H1466.42C1466.42 -313.755 1465.72 -285.647 1464.34 -257.829C1468.58 -258.324 1472.86 -258.77 1477.16 -259.171C1491.7 -260.517 1505.77 -261.19 1519.33 -261.19V-187.351C1505.51 -187.351 1492.42 -186.757 1479.98 -185.648C1473.03 -185.015 1466.03 -184.203 1458.98 -183.216C1453.55 -125.756 1445.23 -69.7402 1434.23 -15.5296C1441.29 -17.1797 1448.39 -18.63 1455.52 -19.8762C1476.15 -23.479 1497.43 -25.3003 1519.33 -25.3003V48.2224V48.2621C1499.86 48.2621 1480.34 50.0041 1460.79 53.3694C1445.58 56.0262 1430.56 59.6711 1415.8 64.3044C1397.21 135.807 1373.87 203.602 1346.38 266.767C1396.67 230.46 1452.36 210.121 1510.71 210.121L1519.87 210.438L1518.74 284L1518.76 284.039L1510.71 284C1416.12 284 1329.47 344.972 1265.87 442.725C1202.04 540.835 1161.35 675.804 1159.05 823.365L1159.02 836.589C1159.02 989.137 1199.35 1127.27 1264.55 1227.21C1329.75 1327.18 1419.82 1389.02 1519.3 1389.02V1462.86C1406.52 1462.86 1304.42 1392.74 1230.5 1279.43C1156.59 1166.11 1110.87 1009.53 1110.87 836.589L1111.07 821.662C1112.47 731.814 1126.4 646.128 1150.18 568.867C1108.28 612.164 1063.22 648.843 1015.66 677.927C1012.64 700.545 1010.27 723.537 1008.56 746.867C1006.39 775.967 1005.31 805.899 1005.31 836.622C1005.31 1054.26 1062.83 1251.31 1155.84 1393.96C1248.88 1536.61 1377.39 1624.82 1519.33 1624.82V1698.66C1364.09 1698.66 1223.52 1602.18 1121.81 1446.14C1020.05 1290.15 957.123 1074.65 957.123 836.622C957.123 803.919 958.362 771.256 960.764 738.79C961.574 727.871 962.517 717.013 963.589 706.219C928.231 723.09 891.698 735.872 854.227 744.203C853.588 754.94 853.062 765.611 852.651 776.205C851.903 795.249 851.541 815.401 851.541 836.583C851.541 1119.35 926.268 1375.35 1047.11 1560.61C1168.01 1745.98 1334.97 1860.64 1519.3 1860.64V1934.16C1500.81 1934.16 1482.47 1933.08 1464.33 1930.97C1464.65 1937.49 1464.95 1944.05 1465.21 1950.67C1466.09 1972.96 1466.53 1994.54 1466.53 2015.32H1418.37C1418.37 1994.14 1417.98 1974.07 1417.26 1954.98C1416.85 1944.32 1416.31 1933.57 1415.67 1922.75C1378.2 1914.43 1341.68 1901.67 1306.33 1884.82C1307.41 1895.66 1308.36 1906.57 1309.17 1917.54C1311.52 1949.13 1312.71 1981.75 1312.71 2015.33H1264.76H1264.73C1264.73 1985.48 1263.6 1955.54 1261.4 1925.57C1259.67 1902.24 1257.29 1879.19 1254.27 1856.55C1207.63 1828.06 1163.42 1792.28 1122.23 1750.12C1145.91 1827.24 1159.17 1912.63 1159.17 2002.1L1158.97 2016.19L1110.99 2014.45H1110.97L1110.99 2002.1C1110.99 1857.11 1071.23 1724.2 1007.47 1626.68C943.489 1528.81 855.465 1466.41 759.23 1462.89L750.605 1462.85C651.116 1462.85 561.026 1524.69 495.854 1624.66C430.655 1724.63 390.322 1862.77 390.322 2015.28H342.166C342.166 1842.34 387.895 1685.79 461.796 1572.44C535.721 1459.13 637.844 1389.01 750.605 1389.01L760.366 1389.33C818.936 1391.48 874.801 1412.82 925.177 1449.28C896.945 1385.03 873.027 1315.95 854.061 1243.03C839.315 1238.41 824.326 1234.78 809.118 1232.15C790.139 1228.83 770.618 1227.17 750.581 1227.17C608.642 1227.17 480.13 1315.38 387.097 1458.03C294.063 1600.64 236.533 1797.69 236.533 2015.33H188.377C188.377 1777.3 251.303 1561.76 353.064 1405.81C454.8 1249.77 595.344 1153.33 750.581 1153.33C771.909 1153.33 793.212 1155.19 814.385 1158.87C821.5 1160.11 828.575 1161.56 835.609 1163.2C824.605 1108.98 816.268 1052.96 810.834 995.507C803.83 994.528 796.869 993.721 789.959 993.091C777.539 991.943 764.396 991.389 750.582 991.389C566.167 991.389 399.207 1106.01 278.39 1291.26C157.495 1476.63 82.7173 1732.63 82.7173 2015.28H34.7674C34.7674 1986.94 35.4671 1958.85 36.8414 1931.05C32.6033 1931.55 28.3316 1931.99 24.0255 1932.38C9.48823 1933.68 -4.5843 1934.36 -18.1404 1934.36V1860.52C-4.32609 1860.52 8.76524 1859.92 21.211 1858.81C28.1604 1858.18 35.1611 1857.37 42.2053 1856.38C47.6317 1798.94 55.9562 1742.94 66.9438 1688.75C59.883 1690.39 52.7807 1691.84 45.6379 1693.09C25.0326 1696.69 3.75593 1698.51 -18.1404 1698.51V1624.95C1.32874 1624.95 20.8495 1623.21 40.3962 1619.84C55.6035 1617.18 70.6223 1613.54 85.3789 1608.91C104.289 1536.13 128.129 1467.2 156.265 1403.07C103.367 1441.44 44.2414 1462.9 -18.1405 1462.9V1389.06C81.3485 1389.06 171.413 1327.21 236.611 1227.24C301.81 1127.31 342.142 989.175 342.142 836.626L342.116 823.403C339.818 675.842 299.15 540.873 235.294 442.763C171.697 344.97 85.0151 284.038 -9.54204 284.038L-17.5982 284.077L-18.7344 210.515V210.476L-9.54204 210.159C98.2355 210.159 196.95 279.524 269.352 390.818C341.497 501.716 387.484 654.502 390.092 821.7L390.299 836.626C390.299 932.257 376.316 1022.89 351.319 1103.96C393.137 1060.81 438.088 1024.24 485.539 995.233C488.552 972.631 490.919 949.655 492.628 926.344C494.797 897.243 495.882 867.312 495.882 836.588C495.882 618.95 438.352 421.899 345.318 279.248C252.31 136.598 123.799 48.3861 -18.1404 48.3861V-25.4533C137.096 -25.4533 277.667 71.0329 379.376 227.066C481.138 383.059 544.038 598.56 544.038 836.588C544.038 869.291 542.824 901.955 540.423 934.42C539.614 945.324 538.672 956.166 537.602 966.945C572.951 950.08 609.474 937.302 646.935 928.971C647.573 918.231 648.1 907.557 648.51 896.961C649.259 877.917 649.621 857.765 649.621 836.583C649.621 553.815 574.869 297.812 454.051 112.56C333.157 -72.8108 166.197 -187.47 -18.1404 -187.47V-261.032C0.342098 -261.032 18.6604 -259.959 36.7895 -257.852C36.4681 -264.339 36.1809 -270.875 35.9278 -277.46C35.0757 -299.751 34.6367 -321.329 34.6367 -342.115H82.7932C82.7932 -320.933 83.1805 -300.859 83.9035 -281.776C84.3158 -271.134 84.8451 -260.414 85.4875 -249.628C122.95 -241.307 159.47 -228.542 194.814 -211.694C193.743 -222.498 192.802 -233.364 191.991 -244.282C189.641 -275.916 188.453 -308.54 188.453 -342.115H236.429C236.429 -312.262 237.565 -282.33 239.76 -252.359C241.491 -229.054 243.866 -206.038 246.884 -183.423C294.361 -154.416 339.33 -117.845 381.159 -74.683C356.138 -155.795 342.141 -246.46 342.141 -342.117H390.297C390.297 -189.569 430.63 -51.4709 495.828 48.4995C561.001 148.47 651.091 210.313 750.58 210.313L759.204 210.273C855.44 206.75 943.464 144.392 1007.45 46.4803C1071.23 -51.0353 1110.97 -183.946 1110.97 -328.933L1110.94 -341.286L1158.92 -343.028L1158.94 -342.988ZM695.627 920.736C713.765 918.625 732.092 917.55 750.582 917.55C764.164 917.55 778.236 918.223 792.799 919.529C797.054 919.914 801.275 920.353 805.463 920.844C804.086 893.033 803.385 864.933 803.385 836.583C803.385 815.757 803.824 794.18 804.676 771.849C804.927 765.327 805.213 758.856 805.533 752.436C787.404 754.545 769.087 755.619 750.606 755.619C737.024 755.619 722.951 754.946 708.388 753.64C704.126 753.255 699.897 752.814 695.701 752.322C697.077 780.12 697.777 808.206 697.777 836.543C697.777 857.369 697.338 878.946 696.486 901.276C696.235 907.814 695.948 914.3 695.627 920.736ZM930.66 -65.959C976.777 -136.631 1005.28 -234.266 1005.28 -342.115H1005.23H957.05C957.05 -254.656 933.94 -175.471 896.577 -118.181C859.213 -60.8517 807.571 -25.4166 750.532 -25.4166C693.493 -25.4166 641.877 -60.8517 604.487 -118.181C567.124 -175.471 543.988 -254.695 543.988 -342.115H495.832C495.832 -234.266 524.339 -136.631 570.455 -65.959C616.546 4.71304 680.221 48.4229 750.558 48.4229C820.895 48.4229 884.57 4.71304 930.66 -65.959ZM851.542 -342.115C851.542 -299.395 840.232 -260.713 821.977 -232.682C803.773 -204.769 778.52 -187.468 750.607 -187.468C722.668 -187.468 697.441 -204.73 679.237 -232.682C660.982 -260.713 649.672 -299.434 649.672 -342.115H697.828C697.828 -319.785 703.741 -299.553 713.269 -284.864C722.875 -270.136 736.095 -261.03 750.607 -261.03C765.118 -261.03 778.339 -270.136 787.944 -284.864C797.498 -299.514 803.411 -319.745 803.411 -342.115H851.542ZM-18.1404 446.05C52.1964 446.05 115.871 489.76 161.962 560.472C208.053 631.144 236.56 728.778 236.56 836.628C236.56 944.477 208.053 1042.11 161.962 1112.78C115.871 1183.49 52.1964 1227.2 -18.1404 1227.2V1153.37C38.8727 1153.37 90.5409 1117.89 127.904 1060.6C165.293 1003.27 188.403 924.126 188.403 836.667C188.403 749.208 165.293 670.024 127.904 612.734C90.5409 555.444 38.8985 520.009 -18.1404 520.009V446.13V446.05ZM53.2294 727.15C34.948 699.159 9.72068 681.817 -18.1404 681.817V755.617C-3.55143 755.617 9.64322 764.684 19.1971 779.333C28.8026 794.061 34.7414 814.333 34.7414 836.583C34.7414 858.834 28.8026 879.106 19.1971 893.834C9.6174 908.444 -3.57725 917.51 -18.1404 917.51V991.35C9.72068 991.35 34.9738 974.008 53.2294 946.017C71.4592 918.104 82.7173 879.422 82.7173 836.583C82.7173 793.784 71.4592 755.063 53.2294 727.15ZM1373.28 612.645C1410.65 555.355 1462.31 519.92 1519.33 519.92V519.841V445.962C1448.99 445.962 1385.32 489.672 1339.22 560.383C1293.13 631.055 1264.63 728.69 1264.63 836.539C1264.63 944.388 1293.13 1042.02 1339.22 1112.69C1385.32 1183.41 1448.99 1227.12 1519.33 1227.12V1153.28C1462.29 1153.28 1410.65 1117.8 1373.28 1060.51C1335.89 1003.22 1312.78 924.038 1312.78 836.579C1312.78 749.119 1335.89 669.975 1373.28 612.645ZM1519.33 755.654C1504.77 755.654 1491.57 764.72 1481.99 779.37C1472.39 794.098 1466.45 814.329 1466.45 836.62C1466.45 858.871 1472.39 879.142 1481.99 893.87C1491.55 908.48 1504.74 917.547 1519.33 917.547V991.386C1491.47 991.386 1466.24 974.045 1447.96 946.053C1429.76 918.141 1418.47 879.419 1418.47 836.62C1418.47 793.781 1429.73 755.099 1447.96 727.187C1466.24 699.195 1491.49 681.854 1519.33 681.854V755.654ZM957.124 2015.32C957.124 1927.9 934.014 1848.68 896.651 1791.39C859.262 1734.06 807.645 1698.62 750.606 1698.62C693.567 1698.62 641.925 1734.06 604.562 1791.39C567.198 1848.68 544.063 1927.86 544.063 2015.32H495.906C495.906 1907.47 524.413 1809.84 570.529 1739.16C616.62 1668.49 680.295 1624.78 750.632 1624.78C820.969 1624.78 884.644 1668.49 930.735 1739.16C976.851 1809.84 1005.36 1907.47 1005.36 2015.32H957.176H957.124ZM787.921 1958.08C797.475 1972.72 803.388 1993 803.388 2015.33H851.518C851.518 1972.65 840.209 1933.92 821.953 1905.89C803.698 1877.9 778.47 1860.56 750.584 1860.56C722.723 1860.56 697.469 1877.9 679.214 1905.89C660.958 1933.92 649.649 1972.61 649.649 2015.33H697.805C697.805 1992.96 703.718 1972.68 713.246 1958.08C722.8 1943.43 736.02 1934.36 750.584 1934.36C765.172 1934.36 778.393 1943.43 787.921 1958.08Z" fill="#754B99"/>
</svg>
