<svg width="31" height="31" viewBox="0 0 31 31" fill="none" xmlns="http://www.w3.org/2000/svg">
<path fill-rule="evenodd" clip-rule="evenodd" d="M15.5 31C24.0604 31 31 24.0604 31 15.5C31 6.93959 24.0604 0 15.5 0C6.93959 0 0 6.93959 0 15.5C0 24.0604 6.93959 31 15.5 31Z" fill="white"/>
<path d="M15.502 9.23906C15.5926 9.23901 15.6795 9.20298 15.7436 9.1389C15.8077 9.07481 15.8437 8.9879 15.8438 8.89727V6.3418C15.8438 6.25115 15.8077 6.16421 15.7436 6.10011C15.6795 6.03601 15.5926 6 15.502 6C15.4113 6 15.3244 6.03601 15.2603 6.10011C15.1962 6.16421 15.1602 6.25115 15.1602 6.3418V8.89727C15.1602 8.9879 15.1962 9.07481 15.2603 9.1389C15.3244 9.20298 15.4113 9.23901 15.502 9.23906Z" fill="#FD4C8C" stroke="#FD4C8C" stroke-width="0.5"/>
<path d="M17.4111 10.0305C17.456 10.0305 17.5005 10.0217 17.542 10.0045C17.5835 9.98733 17.6212 9.9621 17.6529 9.93029L19.4597 8.12385C19.5204 8.05917 19.5536 7.97345 19.5522 7.88478C19.5508 7.79611 19.5151 7.71143 19.4525 7.64864C19.3899 7.58584 19.3053 7.54984 19.2166 7.54824C19.128 7.54664 19.0421 7.57956 18.9773 7.64006L17.1703 9.44689C17.1225 9.49472 17.09 9.55562 17.0769 9.6219C17.0637 9.68818 17.0705 9.75687 17.0963 9.81931C17.1222 9.88174 17.1659 9.93512 17.2221 9.97271C17.2782 10.0103 17.3443 10.0304 17.4119 10.0305H17.4111Z" fill="#FD4C8C" stroke="#FD4C8C" stroke-width="0.5"/>
<path d="M13.3514 9.9303C13.4155 9.9944 13.5025 10.0304 13.5931 10.0304C13.6838 10.0304 13.7707 9.9944 13.8348 9.9303C13.8989 9.86619 13.935 9.77925 13.935 9.6886C13.935 9.59794 13.8989 9.511 13.8348 9.4469L12.027 7.64006C11.9956 7.60698 11.9578 7.58053 11.916 7.56227C11.8741 7.54402 11.8291 7.53433 11.7834 7.53378C11.7378 7.53323 11.6925 7.54183 11.6502 7.55907C11.6079 7.57631 11.5696 7.60184 11.5373 7.63416C11.5051 7.66647 11.4796 7.70492 11.4625 7.74723C11.4454 7.78954 11.4369 7.83486 11.4375 7.8805C11.4382 7.92614 11.448 7.97119 11.4664 8.01299C11.4847 8.05479 11.5112 8.09248 11.5444 8.12385L13.3514 9.9303Z" fill="#FD4C8C" stroke="#FD4C8C" stroke-width="0.5"/>
<path d="M24.8327 12.7465C24.6564 12.5702 24.4389 12.4407 24.2 12.3696C23.961 12.2985 23.7081 12.288 23.4641 12.3393C23.2621 12.3824 23.0712 12.4672 22.9036 12.5881C22.736 12.709 22.5954 12.8634 22.4907 13.0416C22.386 13.2198 22.3195 13.4178 22.2954 13.623C22.2714 13.8282 22.2902 14.0362 22.3509 14.2338C22.3568 14.2503 22.3573 14.2682 22.3523 14.2849C22.3473 14.3017 22.3371 14.3164 22.3231 14.327L20.9813 15.2996L20.0138 13.1129C19.9912 13.0619 19.9565 13.0172 19.9126 12.9827C19.8688 12.9482 19.8172 12.9249 19.7624 12.915C19.7075 12.905 19.651 12.9085 19.5978 12.9254C19.5447 12.9422 19.4964 12.9718 19.4573 13.0115L17.7311 14.7693L16.6397 12.9775C16.631 12.9596 16.6283 12.9393 16.632 12.9197C16.6358 12.9 16.6458 12.8822 16.6606 12.8688C16.8773 12.6415 17.0225 12.3556 17.078 12.0465C17.1335 11.7375 17.0969 11.4189 16.9728 11.1304C16.8487 10.842 16.6425 10.5964 16.3799 10.4242C16.1173 10.252 15.8099 10.1608 15.4959 10.1619C15.1819 10.163 14.8752 10.2564 14.6138 10.4305C14.3525 10.6045 14.1481 10.8516 14.026 11.1409C13.9039 11.4302 13.8696 11.749 13.9273 12.0577C13.985 12.3664 14.1322 12.6513 14.3505 12.877C14.3636 12.8897 14.3721 12.9065 14.3745 12.9246C14.377 12.9428 14.3732 12.9612 14.364 12.977L13.2724 14.7693L11.5462 13.0115C11.5071 12.9717 11.4588 12.9421 11.4057 12.9253C11.3525 12.9084 11.296 12.9048 11.2411 12.9148C11.1862 12.9248 11.1346 12.9481 11.0908 12.9826C11.047 13.0171 11.0123 13.0619 10.9897 13.1129L10.0235 15.3004L8.68173 14.3279C8.66776 14.3173 8.65753 14.3025 8.65251 14.2857C8.64749 14.2689 8.64794 14.2509 8.6538 14.2344C8.71442 14.0368 8.73329 13.8288 8.70922 13.6236C8.68515 13.4183 8.61865 13.2204 8.51396 13.0422C8.40926 12.864 8.26866 12.7096 8.10108 12.5887C7.9335 12.4678 7.7426 12.383 7.54051 12.3398C7.32822 12.2943 7.10855 12.2955 6.8968 12.3436C6.68506 12.3916 6.48635 12.4853 6.31452 12.6181C6.1427 12.7508 6.0019 12.9194 5.90195 13.1122C5.802 13.3049 5.7453 13.5172 5.7358 13.7341C5.72631 13.951 5.76425 14.1674 5.84698 14.3681C5.92971 14.5689 6.05524 14.7492 6.21481 14.8964C6.37437 15.0437 6.56415 15.1543 6.77088 15.2207C6.97762 15.2871 7.19634 15.3075 7.4118 15.2807C7.437 15.2764 7.46786 15.3023 7.48016 15.335L9.64442 21.0877V22.4449C9.64447 22.5356 9.6805 22.6225 9.74459 22.6866C9.80868 22.7506 9.89558 22.7867 9.98622 22.7867H21.0177C21.1083 22.7867 21.1953 22.7507 21.2593 22.6866C21.3234 22.6225 21.3595 22.5356 21.3595 22.4449V21.0877L23.5241 15.3344C23.5288 15.3196 23.5378 15.3065 23.55 15.2968C23.5622 15.2871 23.577 15.2813 23.5925 15.2801C23.7812 15.3032 23.9725 15.2906 24.1565 15.2428C24.4229 15.1735 24.6648 15.0316 24.8551 14.8328C25.0455 14.6339 25.1768 14.3861 25.2345 14.117C25.2867 13.8732 25.2774 13.6201 25.2072 13.3808C25.1371 13.1415 25.0083 12.9235 24.8327 12.7465ZM19.5923 13.8498L20.4141 15.7098L18.9507 16.7705L18.0981 15.3699L19.5923 13.8498ZM11.4118 13.8498L12.9059 15.3709L12.0536 16.7705L10.5899 15.7098L11.4118 13.8498ZM20.6759 22.1031H10.328V21.3674H20.6759V22.1031ZM24.5653 13.9781C24.5331 14.122 24.4621 14.2542 24.36 14.3605C24.2579 14.4669 24.1286 14.5432 23.9862 14.5813C23.8854 14.6077 23.7805 14.6148 23.677 14.6022C23.5088 14.5831 23.3391 14.6213 23.1953 14.7105C23.0515 14.7998 22.942 14.935 22.8845 15.0941L20.7811 20.6838H10.2229L8.11923 15.0938C8.0619 14.9344 7.9524 14.7991 7.80849 14.7098C7.66458 14.6204 7.49471 14.5824 7.32645 14.6018C7.22305 14.6144 7.1182 14.6072 7.01747 14.5807C6.88042 14.544 6.75543 14.4719 6.65502 14.3717C6.55461 14.2715 6.48231 14.1466 6.44536 14.0096C6.40842 13.8726 6.40812 13.7284 6.44451 13.5912C6.4809 13.4541 6.5527 13.329 6.6527 13.2283C6.7527 13.1277 6.8774 13.0551 7.01429 13.0179C7.15118 12.9806 7.29546 12.98 7.43267 13.0161C7.56987 13.0522 7.69519 13.1237 7.79604 13.2235C7.8969 13.3232 7.96975 13.4478 8.00731 13.5846C8.0481 13.7307 8.04593 13.8854 8.00106 14.0303C7.95281 14.1834 7.95383 14.3478 8.00397 14.5003C8.05412 14.6528 8.15085 14.7857 8.28055 14.8803L9.9659 16.1018L9.96805 16.1033L11.9518 17.5412C11.9901 17.5689 12.0336 17.5884 12.0797 17.5985C12.1258 17.6085 12.1735 17.6089 12.2198 17.5996C12.2661 17.5903 12.3099 17.5715 12.3486 17.5444C12.3873 17.5173 12.4199 17.4825 12.4444 17.4422L14.9481 13.3318C15.0359 13.1868 15.0731 13.0168 15.054 12.8483C15.0348 12.6799 14.9602 12.5225 14.8421 12.401C14.7169 12.2716 14.6326 12.1083 14.5995 11.9314C14.5664 11.7545 14.5861 11.5718 14.656 11.406C14.726 11.2401 14.8431 11.0985 14.9929 10.9988C15.1427 10.899 15.3185 10.8454 15.4985 10.8448C15.6784 10.8441 15.8546 10.8963 16.0051 10.995C16.1557 11.0937 16.2738 11.2344 16.345 11.3997C16.4162 11.5651 16.4372 11.7476 16.4054 11.9248C16.3736 12.1019 16.2905 12.2658 16.1663 12.3961C16.0477 12.5184 15.9726 12.6764 15.9527 12.8456C15.9328 13.0149 15.9693 13.186 16.0563 13.3324L18.5593 17.4424C18.5838 17.4827 18.6165 17.5175 18.6551 17.5446C18.6938 17.5717 18.7377 17.5905 18.784 17.5998C18.8303 17.6091 18.878 17.6087 18.9241 17.5987C18.9702 17.5886 19.0138 17.5691 19.052 17.5414L21.036 16.1033H21.0374L22.7233 14.8815C22.853 14.7869 22.9497 14.654 22.9998 14.5015C23.0498 14.349 23.0508 14.1847 23.0024 14.0316C22.9577 13.8867 22.9555 13.7319 22.9962 13.5857C23.0521 13.3819 23.1857 13.2081 23.3682 13.1015C23.5507 12.9948 23.7677 12.9639 23.9727 13.0152C24.1778 13.0665 24.3546 13.196 24.4653 13.3761C24.5761 13.5561 24.612 13.7724 24.5653 13.9785V13.9781Z" fill="#FD4C8C" stroke="#FD4C8C" stroke-width="0.5"/>
<path d="M15.7897 16.0715C15.7587 16.0234 15.7162 15.9839 15.666 15.9566C15.6158 15.9292 15.5595 15.9149 15.5023 15.9149C15.4451 15.9149 15.3889 15.9292 15.3387 15.9566C15.2884 15.9839 15.2459 16.0234 15.2149 16.0715L14.1559 17.7162C14.1204 17.7714 14.1016 17.8357 14.1016 17.9013C14.1016 17.9669 14.1204 18.0311 14.1559 18.0863L15.2147 19.7311C15.2457 19.7792 15.2882 19.8187 15.3385 19.8461C15.3887 19.8735 15.445 19.8878 15.5022 19.8878C15.5594 19.8878 15.6157 19.8735 15.6659 19.8461C15.7162 19.8187 15.7587 19.7792 15.7897 19.7311L16.8485 18.0863C16.884 18.0311 16.9029 17.9669 16.9029 17.9013C16.9029 17.8357 16.884 17.7714 16.8485 17.7162L15.7897 16.0715ZM15.5022 18.9147L14.8499 17.9012L15.5022 16.8881L16.1546 17.9012L15.5022 18.9147Z" fill="#FD4C8C" stroke="#FD4C8C" stroke-width="0.5"/>
</svg>
