<svg width="181" height="127" viewBox="0 0 181 127" fill="none" xmlns="http://www.w3.org/2000/svg">
<path d="M180.095 67.0636C180.095 59.5179 175.252 53.399 167.912 53.399C164.249 53.399 159.817 57.4188 157.417 59.8884C155.016 57.4188 150.886 53.399 147.209 53.399C139.869 53.399 134.738 59.5179 134.738 67.0636C134.738 70.8365 136.22 74.2527 138.635 76.7222L157.43 95.559L176.199 76.7496H176.185C178.599 74.2664 180.081 70.8365 180.081 67.0636H180.095Z" fill="white"/>
<path d="M100.057 126.318C100.057 126.318 99.9337 126.318 99.8651 126.318C98.4383 126.236 97.2584 125.166 97.0115 123.753L87.4627 68.1338L72.9887 94.9554C72.3576 96.1352 71.0268 96.7663 69.7372 96.5331C68.4201 96.2999 67.4049 95.2572 67.2265 93.9264L61.0802 50.9981L49.8439 76.2283C49.35 77.3395 48.2387 78.0667 47.0177 78.0667H3.3486C1.64739 78.0667 0.261719 76.681 0.261719 74.9798C0.261719 73.2786 1.64739 71.8929 3.3486 71.8929H45.0147L59.7905 38.6918C60.353 37.4296 61.6701 36.7024 63.0421 36.8945C64.4003 37.0866 65.4704 38.1567 65.6762 39.5149L72.0146 83.774L86.2829 57.3228C86.9139 56.1567 88.2036 55.5256 89.5069 55.7451C90.8103 55.9646 91.8255 56.9661 92.045 58.2695L100.894 109.786L133.121 2.71929C133.492 1.49826 134.562 0.633935 135.838 0.524179C137.114 0.428142 138.307 1.11411 138.856 2.26655L155.813 37.4296C156.554 38.9662 155.909 40.8046 154.373 41.5454C152.836 42.2863 150.984 41.6415 150.243 40.1049L136.729 12.0897L103.007 124.109C102.609 125.426 101.402 126.304 100.057 126.304V126.318Z" fill="white"/>
</svg>
