<svg width="103" height="139" viewBox="0 0 103 139" fill="none" xmlns="http://www.w3.org/2000/svg">
<path d="M102.48 0.64861H70.316C70.097 0.64861 69.9093 0.836679 69.9093 1.05609V11.7602C69.9093 11.9952 70.097 12.1676 70.316 12.1676H83.1283L68.9081 26.4136C61.7432 20.7717 52.7324 17.4022 42.9393 17.4022C19.7239 17.4022 0.826172 36.3341 0.826172 59.5916C0.826172 81.0154 16.8454 98.7407 37.5109 101.421V113.755H24.8238C24.5891 113.755 24.4014 113.943 24.4014 114.162V125.634C24.4014 125.854 24.5735 126.042 24.8238 126.042H37.5109V138.187C37.5109 138.423 37.6987 138.595 37.9177 138.595H49.369C49.6036 138.595 49.7757 138.407 49.7757 138.187V126.042H62.4628C62.6819 126.042 62.8696 125.854 62.8696 125.634V114.162C62.8696 113.943 62.6819 113.755 62.4628 113.755H49.7757V101.217C69.7685 97.9257 85.0525 80.5139 85.0525 59.5916C85.0525 50.5644 82.2053 42.1955 77.3558 35.3154L91.3726 21.2732V33.2624C91.3726 33.4818 91.5603 33.6699 91.795 33.6699H102.48C102.714 33.6699 102.902 33.4818 102.902 33.2624V1.04041C102.902 0.805332 102.714 0.632935 102.48 0.632935V0.64861ZM42.9393 90.6695C25.8406 90.6695 11.9333 76.7369 11.9333 59.6073C11.9333 42.4776 25.8406 28.5451 42.9393 28.5451C60.038 28.5451 73.9454 42.4776 73.9454 59.6073C73.9454 76.7369 60.038 90.6695 42.9393 90.6695Z" fill="white"/>
<path d="M61.811 46.8861H24.3582C24.1401 46.8861 23.9531 47.0535 23.9531 47.236V56.0906C23.9531 56.3036 24.1401 56.4557 24.3582 56.4557H61.811C62.0447 56.4557 62.2316 56.3036 62.2316 56.0906V47.236C62.2316 47.0383 62.0447 46.8861 61.811 46.8861Z" fill="white"/>
<path d="M61.811 62.8354H24.3582C24.1401 62.8354 23.9531 63.0164 23.9531 63.2304V72.8076C23.9531 73.0215 24.1401 73.2025 24.3582 73.2025H61.811C62.0447 73.2025 62.2316 73.038 62.2316 72.8076V63.2304C62.2316 63.0164 62.0447 62.8354 61.811 62.8354Z" fill="white"/>
</svg>
