<svg width="105" height="147" viewBox="0 0 105 147" fill="none" xmlns="http://www.w3.org/2000/svg">
<g clip-path="url(#clip0_2813_625)">
<path d="M76.7389 146.962L43.4876 136.234C35.3995 133.209 14.6961 125.57 13.8359 115.603C13.0549 106.561 23.1279 103.738 28.013 98.1869C31.3818 94.3593 33.7895 88.3922 34.4576 83.3611C35.1256 78.3301 33.5997 75.2618 35.1448 69.7317C41.1688 48.1676 55.2859 26.0471 73.0241 12.1932C74.61 10.9563 74.8094 10.092 76.7197 11.1354C82.0998 14.07 86.6677 20.3618 88.1455 26.2596C89.58 31.9903 88.1167 35.9732 93.9941 39.7697C96.236 41.2191 100.602 42.1002 101.179 45.0443C101.698 47.6972 98.8095 47.7282 99.0619 49.5047C99.2156 50.5864 102.111 51.2884 102.729 52.7999C103.618 54.9775 101.787 56.6036 101.981 57.3414C102.126 57.8859 104.082 59.5454 104.403 60.4384C105.475 63.4064 102.363 63.3205 101.813 65.6032C100.554 70.8348 105.057 74.0512 97.3318 76.1787C90.8271 77.9695 81.8715 74.5263 76.9864 79.5765C74.3985 82.2532 72.0893 91.6611 70.3761 95.6678C67.8482 101.58 63.5062 106.998 64.8566 113.813C65.2483 115.792 66.1446 118.278 66.7933 120.238C69.7777 129.247 73.8939 137.901 76.7461 146.962H76.7389ZM83.1018 37.4727C81.6024 37.6733 79.7281 37.3246 78.1807 37.4727C79.1178 38.2845 81.1459 38.8003 82.3857 38.9006C84.8607 39.0988 88.1167 38.1866 88.1407 35.3237C86.3385 35.6866 84.9761 37.2244 83.1018 37.4751V37.4727ZM41.9306 60.1328V93.2895H68.8166V60.1328C67.9948 60.639 67.1273 62.9909 66.2479 63.1963C65.527 63.3634 60.8438 61.6538 60.416 62.043C60.4112 62.8787 62.5763 64.1466 62.5763 64.7842V87.8048H48.4136C48.3559 81.7231 48.4857 75.6295 48.4232 69.5454C48.404 67.7904 47.736 65.8921 48.6827 64.0989C48.9038 63.6786 51.1505 61.8806 50.8117 61.5654L44.2325 63.1987C43.7784 63.0912 42.4208 59.574 41.9306 60.1328ZM60.416 67.0526H50.9342C50.9078 67.0526 50.5738 67.3845 50.5738 67.4107V85.5412C50.5738 85.5675 50.9078 85.8994 50.9342 85.8994H60.416V67.055V67.0526Z" fill="white"/>
<path d="M38.3044 14.7841C37.4394 15.5148 25.8718 12.4775 24.06 11.9331C22.8009 11.5558 21.7532 10.4097 20.3932 11.3027C19.2542 13.1628 15.6715 15.0014 16.8994 17.616C17.1829 18.2177 18.3027 18.6069 18.7448 19.1203C20.5374 21.1977 17.07 22.7545 16.9667 24.4904C16.933 25.0301 17.3872 25.5029 17.4545 26.1356C17.541 26.9355 17.1084 27.9814 17.2382 28.4709C17.44 29.235 19.3239 30.0206 19.3768 30.2426C19.5906 31.15 18.4853 32.8143 18.74 34.1371C18.7833 34.3663 19.396 36.2097 19.8429 35.799C20.2346 35.4408 20.0352 33.1032 20.088 32.4585C22.3419 31.969 20.7729 35.8778 21.3183 36.7207C21.6139 37.1791 23.9303 37.2484 24.6295 36.852C26.4653 35.8086 28.4717 30.4814 28.861 28.416C29.5146 24.9489 29.2575 21.3672 28.7288 17.9073L35.5723 18.3825C36.2595 18.4422 36.2091 19.0224 36.1706 19.5764L30.4085 19.0988C31.0428 24.9608 30.0601 30.7202 27.5298 36.0354C28.8778 36.3076 29.4377 34.5168 29.8726 33.4757C31.5378 29.5048 31.8358 25.2235 31.1317 21.0091C31.807 21.107 35.3152 21.2598 35.4497 21.8472C35.6348 22.6519 33.9816 22.3414 33.5274 22.5563C32.7681 22.9169 32.6912 27.3582 32.5038 28.4566C32.141 30.5697 31.485 32.6734 30.8915 34.7317C30.7905 35.5101 31.9391 34.8224 32.3284 34.8439C32.6432 35.1973 31.3552 36.9189 31.0861 37.3033C28.2747 41.3219 24.209 44.3759 20.5686 47.6066L27.5298 48.6811C27.7172 48.853 26.5278 52.9767 26.9267 53.6883C29.2407 50.6773 30.889 47.141 32.9483 43.9294C41.755 30.1996 53.1279 19.9131 68.2493 13.4087C68.9557 13.1055 69.9986 12.5014 70.7339 12.7784C66.4928 15.5291 62.2589 18.3085 58.1763 21.2908C49.1318 27.8978 39.6981 36.2145 34.0537 45.9829C29.2983 54.2136 28.3035 60.4075 31.6628 69.4978C32.016 70.4505 33.6812 73.5236 33.7413 74.1277C33.7845 74.5766 32.7657 74.9587 32.4702 74.9324C32.1746 74.9061 29.6924 70.6559 29.4041 70.0733C28.4069 68.0508 27.4 65.0685 27.0733 62.8454C26.7705 60.7657 26.9892 58.5928 26.5614 56.5536C25.4489 55.8039 23.9231 60.0661 23.7549 60.7991C23.0484 63.8626 23.6732 66.9023 23.6443 69.9921C23.4737 70.4935 22.39 70.8206 21.9887 70.5269C21.0732 69.8608 20.9507 62.8144 21.0756 61.4749C21.4168 57.7762 23.3079 54.4046 25.3239 51.3745C25.8334 49.4261 21.847 51.5846 21.2823 51.8974C18.6223 53.3707 15.7388 56.0641 14.1264 58.6238C13.593 59.4715 11.8437 63.5355 11.5866 63.7337C10.8465 64.3044 8.60458 63.6477 7.60498 64.1874L11.2045 55.3645C10.9907 55.0732 5.05791 53.9891 4.11357 53.6978C3.84685 53.6167 3.68585 53.8578 3.76034 53.3325L9.28461 42.0025C6.53569 41.9858 3.74112 41.9643 0.999415 41.7637C0.641384 41.7374 0.304978 41.9499 0.4059 41.4079L8.33786 32.1146C9.3615 30.3978 6.8793 29.4761 6.03829 28.4088L0.153596 24.4666C0.129567 24.0559 0.456361 23.9986 0.711068 23.8243C2.95057 22.2817 6.132 21.3672 8.29221 19.66C8.41476 19.2946 8.30422 18.9699 8.21051 18.6213C7.75156 16.8997 5.65142 14.266 5.07233 12.4345C4.99543 12.1886 4.91373 11.9761 4.96179 11.711L16.2458 10.2783L13.8453 0.26159C14.2778 -0.11568 20.1745 2.94069 21.2318 3.29647C26.4821 5.05865 32.7032 5.37384 38.0785 6.83278C38.5951 7.18617 38.821 9.4092 38.8282 10.1566C38.833 10.7464 38.4846 14.6337 38.3044 14.7841ZM36.8891 13.8553C37.0933 13.6547 35.952 11.8328 35.4546 11.8256L20.5686 8.60929C20.237 8.90298 22.1329 10.5935 22.5943 10.5291L36.8891 13.8529V13.8553Z" fill="white"/>
<path d="M46.0947 0.889498C47.1304 2.55856 49.1968 6.66316 49.7375 8.60204C49.9129 9.23242 50.7539 13.6618 50.5713 13.8528L48.8965 13.4946C50.2277 14.7554 51.4291 18.7119 50.2205 20.0658C49.5717 20.7917 46.6354 22.4536 45.5541 23.3012C44.5665 24.0749 43.5837 25.1924 42.6514 25.9039C42.4111 26.0878 42.3462 26.3672 41.9305 26.2597C41.5821 23.9746 42.7739 22.3366 44.0883 20.6532L42.6514 20.7726C42.3702 20.4693 43.2857 16.2286 43.4876 15.5242C43.7375 14.6503 44.343 13.7549 44.5665 13.0171C44.8308 12.1384 43.4804 13.3609 43.1319 13.1412C42.87 12.8786 42.7907 7.56097 42.9061 6.83508C43.1151 5.50509 44.874 3.96019 45.345 2.58005C45.5997 1.83506 45.5997 1.02321 45.7751 0.26151C46.1836 0.189877 45.9337 0.629229 46.0947 0.891885V0.889498Z" fill="white"/>
</g>
<defs>
<clipPath id="clip0_2813_625">
<rect width="104.468" height="146.734" fill="white" transform="translate(0.154297 0.227997)"/>
</clipPath>
</defs>
</svg>
