<svg width="127" height="109" viewBox="0 0 127 109" fill="none" xmlns="http://www.w3.org/2000/svg">
<path d="M42.7255 103.656V106.959C42.7255 106.959 42.7255 107.005 42.7255 107.035C42.7255 107.066 42.7255 107.097 42.7255 107.112C42.756 107.922 43.4272 108.58 44.2357 108.595C44.2357 108.595 44.251 108.595 44.2662 108.595C44.2815 108.595 44.2967 108.595 44.2967 108.595H82.8594C82.8594 108.595 82.8747 108.595 82.8899 108.595C82.9052 108.595 82.9052 108.595 82.9204 108.595C83.7594 108.595 84.4306 107.892 84.4459 107.051V103.319C106.153 96.1933 122.414 78.5463 125.983 57.061C125.983 57.0151 125.983 56.9693 125.998 56.9387C125.998 56.8622 126.014 56.7858 126.014 56.7246C126.014 55.8529 125.312 55.1648 124.458 55.1648H1.56961C0.700119 55.1648 0.0136719 55.8682 0.0136719 56.7246L0.0899477 57.428C3.84249 79.1274 20.5459 96.8662 42.7103 103.702L42.7255 103.656Z" fill="white"/>
<path d="M84.5135 2.53685C84.0096 3.26104 72.1144 20.5339 84.7731 34.4939C90.5756 40.9038 90.0717 46.5587 88.4226 50.38H96.5461C98.1953 44.7405 97.5081 37.668 90.9268 30.4107C81.597 20.1178 91.049 6.21946 91.1864 6.00374C92.3011 4.41668 91.7056 2.36736 89.8732 1.41204C88.0256 0.472127 85.6435 0.965193 84.5288 2.55226L84.5135 2.53685Z" fill="white"/>
<path d="M63.7021 50.3646H71.8258C73.4749 44.7269 72.7878 37.6566 66.1911 30.4015C56.861 20.1119 66.298 6.21782 66.4507 5.98677C67.5654 4.4002 66.9699 2.36692 65.1375 1.41189C63.305 0.472272 60.9076 0.965185 59.7929 2.55176C59.289 3.27573 47.3936 20.5432 60.0525 34.4989C65.8552 40.9068 65.3512 46.5599 63.7021 50.38V50.3646Z" fill="white"/>
<path d="M35.8696 4.93587C35.3505 5.65996 23.4727 22.9304 36.1292 36.8885C41.9307 43.2975 41.4269 48.9516 39.778 52.7724H47.9001C49.549 47.1337 48.862 40.0622 42.2666 32.8058C32.9383 22.5144 42.3887 8.61798 42.5261 8.38688C43.6253 6.80003 43.0452 4.7664 41.1979 3.81121C39.3658 2.85602 36.9689 3.36443 35.8544 4.95128L35.8696 4.93587Z" fill="white"/>
</svg>
