<svg width="140" height="136" viewBox="0 0 140 136" fill="none" xmlns="http://www.w3.org/2000/svg">
<path d="M139.158 109.443H0.882874C0.530498 109.443 0.242188 109.742 0.242188 110.089V118.399C0.242188 118.73 0.530498 119.013 0.882874 119.013H139.158C139.495 119.013 139.799 118.745 139.799 118.399V110.089C139.799 109.742 139.511 109.443 139.158 109.443Z" fill="white"/>
<path d="M139.158 126.19H0.882874C0.530498 126.19 0.242188 126.458 0.242188 126.805V135.145C0.242188 135.476 0.530498 135.76 0.882874 135.76H139.158C139.495 135.76 139.799 135.476 139.799 135.145V126.805C139.799 126.474 139.511 126.19 139.158 126.19Z" fill="white"/>
<path d="M113.012 55.8425C111.28 54.4631 106.664 51.228 101.037 51.228C97.0129 51.228 93.2617 52.8537 89.9273 56.0724C89.6868 56.3023 89.5586 56.6143 89.5586 56.9591V57.7309C89.5586 58.1086 89.6868 58.4699 89.9594 58.6998C90.264 58.9297 90.5685 59.0118 90.9373 58.9297C91.0174 58.9297 91.1136 58.8968 91.1937 58.864C91.4502 58.7655 91.6907 58.6177 91.8831 58.4206C92.6045 57.928 94.5923 57.2383 97.4298 57.2383C100.267 57.2383 106.118 58.0429 111.697 63.3635L111.825 63.4785C112.146 63.8069 112.579 63.9875 113.028 63.9875C113.477 63.9875 113.91 63.8069 114.198 63.4785L114.31 63.3635C119.905 58.0429 125.66 57.2383 128.594 57.2383C131.527 57.2383 133.419 57.928 134.157 58.4206C134.349 58.6177 134.605 58.7819 134.926 58.8969C135.054 58.9297 135.407 59.0118 135.744 58.9297C136.257 58.7819 136.609 58.3057 136.609 57.7638V57.0741C136.609 56.7456 136.465 56.4172 136.241 56.2037C132.858 52.903 129.075 51.228 124.987 51.228C119.408 51.228 114.807 54.4138 113.028 55.8589L113.012 55.8425Z" fill="white"/>
<path d="M103.932 1.48753C103.639 1.61411 103.411 1.8831 103.313 2.21538L103.167 2.67424C103.053 3.03817 103.134 3.41791 103.346 3.70272C103.558 3.98754 103.867 4.14576 104.209 4.16159C104.274 4.16159 104.339 4.17741 104.388 4.16159C104.632 4.16159 104.86 4.0983 105.072 3.98754C105.202 3.95589 105.463 3.89259 105.919 3.89259C106.554 3.89259 112.22 4.08246 115.965 10.2692L116.013 10.3641C116.209 10.728 116.534 10.9654 116.909 11.0603C117.023 11.092 117.218 11.1236 117.349 11.1236C117.609 11.1236 117.87 11.0603 118.049 10.9496L118.146 10.9021C120.198 9.90525 122.315 9.39893 124.415 9.39893C127.965 9.39893 130.277 10.8072 130.83 11.3926C130.944 11.5983 131.107 11.7723 131.302 11.8989C131.416 11.9622 131.628 12.073 131.758 12.1204C131.823 12.1204 131.889 12.1521 131.97 12.1521C132.002 12.1521 132.051 12.1521 132.1 12.1521C132.296 12.1521 132.475 12.1046 132.654 12.0097C132.947 11.8673 133.159 11.6141 133.256 11.3135L133.37 10.9179C133.403 10.8072 133.419 10.6964 133.419 10.5856C133.419 10.3641 133.37 10.1742 133.256 10.0002C130.521 5.39576 126.564 4.43057 123.715 4.43057C121.598 4.43057 119.742 4.96855 118.651 5.3483C117.365 3.67108 114.108 0.190063 109.175 0.190063C107.433 0.190063 105.674 0.617278 103.9 1.48753H103.932Z" fill="white"/>
<path d="M75.2051 22.7143L75.2372 23.3337C75.2532 23.7148 75.4617 24.0483 75.7986 24.2548C76.0712 24.4295 76.4241 24.4771 76.7289 24.3977C76.793 24.3977 76.8733 24.3501 76.9374 24.3342C77.178 24.2389 77.3865 24.0801 77.5309 23.9054C78.1244 23.4925 80.0171 22.7143 82.8081 22.7143C85.5991 22.7143 89.5931 23.429 93.7635 26.8117L93.8597 26.907C94.1485 27.1611 94.5334 27.304 94.9344 27.304H95.0307C95.4638 27.2722 95.8648 27.0817 96.1214 26.7958L96.2176 26.6846C100.837 21.8567 105.81 21.1262 108.36 21.1262C110.173 21.1262 111.472 21.4914 111.969 21.7773C112.162 21.9361 112.386 22.0632 112.691 22.1426C112.771 22.1584 112.98 22.1902 113.204 22.1743C113.3 22.1743 113.413 22.1267 113.493 22.1108C113.99 21.9361 114.311 21.4597 114.279 20.9356L114.247 20.3956C114.231 20.078 114.07 19.7921 113.83 19.5857C111.071 17.2988 108.103 16.1394 104.976 16.1394C100.099 16.1394 96.2176 18.9822 94.6136 20.3797C93.1379 19.3951 89.561 17.3464 85.3745 17.3464C81.6853 17.3464 78.381 18.8551 75.558 21.8408C75.3334 22.079 75.2211 22.3967 75.2372 22.7143H75.2051Z" fill="white"/>
<path d="M5.04328 33.6298C5.04328 25.409 11.7201 18.7465 19.9586 18.7465C20.2773 18.7465 20.596 18.7783 20.9147 18.7942C21.6956 8.39496 30.3802 0.190063 41.009 0.190063C51.6378 0.190063 61.183 9.20591 61.183 20.3207C61.183 23.4691 60.434 26.4426 59.1433 29.098C69.2462 31.3242 76.7995 40.3082 76.7995 51.0573C76.7995 63.4918 66.7125 73.5572 54.2512 73.5572C53.3429 73.5572 24.1496 73.3822 24.1496 73.3822C15.3215 73.3822 8.18251 66.2427 8.18251 57.4495C8.18251 53.2198 9.83977 49.3877 12.5328 46.5414C8.05502 43.9813 5.02734 39.1633 5.02734 33.6298H5.04328Z" fill="white"/>
</svg>
