<svg width="192" height="99" viewBox="0 0 192 99" fill="none" xmlns="http://www.w3.org/2000/svg">
<path d="M190.827 48.3681C184.034 38.832 153.343 0.78479 96.2786 0.78479C39.2142 0.78479 8.50719 38.8482 1.71419 48.3681C1.42097 48.7735 1.17662 49.1303 0.964844 49.4223C1.16033 49.7304 1.42097 50.0872 1.71419 50.4926C8.50719 60.0287 39.1979 98.0759 96.2786 98.0759C153.359 98.0759 184.05 60.0125 190.827 50.4926C191.12 50.0872 191.364 49.7304 191.56 49.4223C191.364 49.1303 191.12 48.7735 190.827 48.3681ZM64.4313 24.8521C64.9526 24.0899 66.6631 21.9329 66.8586 21.6734C67.2984 21.1058 68.1618 20.9923 68.7808 20.8788C69.3835 20.7652 70.198 21.1058 70.2958 21.5599C70.3935 22.014 70.0677 23.7818 69.7582 24.0899C68.9274 24.9657 66.7445 26.182 65.5391 25.9874C64.6105 25.8414 64.2521 25.1278 64.4313 24.8521ZM62.3951 28.9066C62.4928 28.7931 62.5742 28.712 62.6068 28.6633C63.3236 27.8525 64.7571 27.6741 65.7345 27.5119C66.7282 27.3335 68.0477 27.8362 68.2106 28.5012C68.3735 29.1499 65.7345 30.3662 65.2458 30.8041C63.8775 32.0691 61.7272 34.6478 60.4728 34.9235C60.0656 35.0208 59.7235 34.9559 59.4465 34.8099C60.2773 32.7502 61.2547 30.7555 62.4114 28.8904L62.3951 28.9066ZM83.7515 72.7922C82.9858 75.8412 82.0736 76.9278 81.3079 77.8846C80.5423 78.8577 77.6915 80.0903 75.8833 79.9605C74.0751 79.8308 73.8308 74.9979 73.8308 72.5003C73.8308 71.6408 72.6253 74.187 71.99 69.0135C71.5827 65.705 69.465 69.354 69.3184 67.1484C69.1718 64.9428 68.1129 65.3806 66.9889 64.0021C65.8812 62.6236 64.4965 64.1319 62.9489 64.8292C61.4014 65.5104 62.0367 65.8834 59.8538 65.1861C59.8049 65.1698 59.7723 65.1536 59.7072 65.1374C57.6872 60.3693 56.5795 55.131 56.5795 49.6493C56.5795 48.3032 56.6446 46.9895 56.775 45.6759C56.8564 45.5462 56.9216 45.4164 57.0193 45.3029C59.1207 42.8216 59.0719 42.2377 59.0719 42.2377L61.4014 41.4268C61.4014 41.4268 65.1155 41.9944 67.9174 43.0486C70.2143 43.9082 73.847 45.8705 75.9648 45.011C77.496 44.3785 78.6852 43.5514 78.5386 42.2702C78.3594 40.6646 77.1051 40.2916 75.5901 41.362C75.0362 41.7512 73.8308 38.9617 72.9022 39.0914C71.9737 39.2374 74.0588 42.3837 73.2606 42.5134C72.4624 42.6432 70.8659 39.2212 70.589 38.6698C70.3121 38.1184 69.0903 36.7399 67.9663 37.794C65.6205 40.0321 61.8086 39.8861 61.043 40.4538C58.7135 42.2053 58.0945 39.8861 58.1596 38.4752C58.2574 38.1508 58.3551 37.8265 58.4528 37.5021C59.2185 36.6588 61.9389 36.3831 62.8838 37.0156C63.9101 37.6967 64.6431 36.8372 65.0504 36.4155C65.4576 36.01 65.311 35.3451 65.0504 34.7937C64.7897 34.2423 65.5716 33.8368 66.0929 33.6909C66.6305 33.5449 68.4061 32.3124 69.1066 31.8907C69.8234 31.4852 73.4887 31.0312 75.1503 31.8583C76.7956 32.6854 78.3106 32.0042 79.1251 31.0636C80.1351 29.8472 81.4383 28.9391 82.0084 28.6633C82.5786 28.3876 80.5912 26.5226 78.9459 28.566C77.3006 30.5933 76.4698 30.7717 75.6878 30.7717C74.9059 30.7717 70.3284 29.6202 69.7582 28.1768C69.2044 26.7334 71.1917 25.6468 72.8859 24.8197C74.5801 24.0088 79.2065 24.025 80.3957 23.7493C82.8066 23.2141 85.8855 22.014 87.4331 23.0682C88.9806 24.1061 80.9496 25.9387 83.5886 27.3659C84.5334 27.8849 88.7688 24.917 90.2187 24.171C93.6396 22.4032 86.8955 21.8194 87.7751 18.2352C88.7688 14.1808 79.516 15.7539 74.9059 16.0945C81.0962 12.1211 88.4267 9.81815 96.3112 9.81815C115.061 9.81815 130.781 22.8249 134.968 40.324C135 41.1836 134.87 41.816 134.772 42.1566C134.414 43.5838 131.693 44.8326 130.113 42.5134C129.706 41.9296 128.012 40.324 128.061 43.0811C128.11 45.8381 130.732 46.1138 128.191 47.7842C125.65 49.4385 125.194 49.033 124.021 49.4547C122.848 49.8763 121.708 52.7145 122.001 54.239C122.278 55.7634 125.91 59.899 123.223 59.7368C122.587 59.6882 117.847 56.4446 117.065 54.3525C116.234 52.1468 115.338 50.0061 114.686 48.3357C114.035 46.6814 112.357 46.2598 110.94 47.2328C109.523 48.2059 111.331 49.1628 110.321 51.2386C109.311 53.3145 108.578 55.1634 107.079 53.4443C103.202 48.9844 97.5655 51.19 96.6696 46.2273C96.1972 43.5352 93.8839 43.7946 91.9454 42.2702C90.0069 40.7619 88.9154 39.9348 88.5896 41.0376C88.2964 41.9945 94.6659 47.0544 95.122 48.3519C95.8062 50.2656 93.2161 51.9684 91.3264 52.4226C89.4367 52.8767 88.6222 51.3684 86.7651 49.4223C84.9081 47.4923 84.1099 46.1138 83.9795 47.6383C83.8003 49.8277 85.7389 53.0388 87.6285 54.239C89.2412 55.2607 91.0332 55.7148 90.5119 57.369C89.9906 59.0232 90.5119 58.0826 88.7037 59.8666C86.8955 61.6667 86.5534 62.2344 86.6837 64.7157C86.814 67.197 86.1624 67.343 85.7877 69.4189C85.3968 71.4948 84.5171 69.7108 83.7352 72.7436L83.7515 72.7922ZM126.399 56.9149C127.735 56.8014 129.739 58.6665 128.957 59.38C128.175 60.0936 126.171 59.8341 125.161 59.0395C124.167 58.261 125.796 56.9636 126.399 56.9149ZM124.705 55.6824C124.281 55.5202 123.89 55.1147 123.581 54.1416C123.255 53.1686 124.086 52.6009 124.884 53.0064C125.699 53.4281 126.758 54.6444 126.758 55.2931C126.758 55.9418 125.161 55.8607 124.721 55.6986L124.705 55.6824ZM107.16 55.6175C106.379 56.3148 104.359 56.0554 103.365 55.2769C102.371 54.4985 104 53.201 104.603 53.1524C105.939 53.0388 107.959 54.9039 107.177 55.6175H107.16ZM90.9354 63.5156C90.3816 64.4076 88.8992 71.1056 87.8892 70.3271C86.8792 69.5487 88.2964 62.5587 88.5896 62.0235C90.1535 59.1368 93.5582 59.2827 90.9354 63.4994V63.5156ZM96.3275 89.4642C92.4504 89.4642 88.7037 88.8966 85.1524 87.8587C84.6474 87.437 84.3542 86.7558 84.6637 85.9125C85.9018 82.7014 89.5508 81.4364 92.4504 81.1607C98.9013 80.5282 107.372 85.3449 108.724 84.5664C110.076 83.788 112.797 80.2362 116.804 80.3822C119.541 80.4957 119.508 80.9498 120.437 81.2904C113.758 86.399 105.401 89.448 96.3438 89.448L96.3275 89.4642ZM124.379 77.8846C123.972 77.7711 123.565 77.6414 123.125 77.4143C120.958 76.3115 121.219 78.0793 120.144 77.69C119.069 77.2846 121.349 74.8195 118.14 76.9116C114.947 79.0037 115.811 76.5872 114.426 73.0517C113.025 69.5 116.022 65.4617 118.547 64.5535C122.001 63.3048 124.151 63.0453 125.764 62.6398C130.537 61.4397 131.547 58.6016 132.41 60.3369C132.573 60.6612 132.736 60.9694 132.883 61.2613C133.16 61.7803 133.485 62.8182 133.502 63.8562C131.482 69.1756 128.338 73.9599 124.379 77.9009V77.8846ZM135.261 57.7907C134.202 57.4987 129.722 51.3197 133.257 47.249C133.844 46.5841 132.068 44.6218 132.557 44.5731C134.479 44.4271 135.522 45.6273 136.027 47.3464C136.059 48.1086 136.092 48.8708 136.092 49.6493C136.092 52.4388 135.799 55.1472 135.261 57.7745V57.7907Z" fill="white"/>
</svg>
