<svg width="146" height="123" viewBox="0 0 146 123" fill="none" xmlns="http://www.w3.org/2000/svg">
<path d="M145.007 89.6151C141.626 85.095 119.774 57.5697 89.1489 57.5697C62.5456 57.5697 34.0916 81.4191 34.0916 81.4191C34.0916 81.4191 23.3969 59.8034 1.54487 57.728C1.4203 57.728 1.27795 57.6928 1.13559 57.6928H0.993231C0.530566 57.7104 0.103487 58.1501 0.156872 58.5546C0.210256 58.9416 0.494978 59.3461 0.494978 59.3461C3.30656 63.9718 10.5135 77.1276 10.5135 90.2659C10.5135 103.404 3.27097 116.648 0.494978 121.238L0.299234 121.537C0.21026 121.678 0.156872 121.819 0.156872 121.995C0.156872 122.452 0.512777 122.804 0.957648 122.857H1.18898C1.18898 122.857 1.34912 122.839 1.4203 122.821C23.3613 120.799 34.0738 99.1127 34.0738 99.1127C34.0738 99.1127 62.5278 122.962 89.1311 122.962C119.756 122.962 141.608 95.4368 144.989 90.9167C145.078 90.7936 145.149 90.688 145.22 90.6001C145.256 90.4945 145.292 90.389 145.292 90.2659C145.292 90.1428 145.256 90.0197 145.22 89.9317C145.149 89.8438 145.078 89.7383 144.989 89.6151H145.007ZM106.178 93.7307C101.232 93.7307 97.2455 89.7734 97.2455 84.8839C97.2455 79.9945 101.249 76.0548 106.178 76.0548C111.108 76.0548 115.129 80.0121 115.129 84.8839C115.129 89.7558 111.125 93.7307 106.178 93.7307Z" fill="white"/>
<path d="M1.17867 4.84996C1.17867 4.84996 1.07251 4.81367 1.01942 4.81367C0.54165 4.81367 0.152344 5.21273 0.152344 5.72061V11.9423C0.152344 12.1962 0.240833 12.432 0.40009 12.5771C15.1049 25.6734 29.0311 13.4115 32.2516 10.1646C32.3224 10.0558 32.3932 9.96511 32.4817 9.91069C32.6232 9.82 32.7825 9.74745 32.9594 9.74745C33.1895 9.74745 33.4018 9.83814 33.5434 9.98325L33.5788 10.0195C50.1947 26.272 67.6068 13.1031 71.2344 10.0195L71.5883 9.69303C71.6945 9.63862 71.8006 9.62048 71.9245 9.62048C72.0484 9.62048 72.1722 9.63862 72.2607 9.69303L72.6146 10.0195C76.2421 13.1031 93.6543 26.272 110.253 10.0195C110.253 10.0195 110.27 10.0014 110.288 9.98325C110.447 9.83814 110.642 9.74745 110.872 9.74745C111.049 9.74745 111.226 9.82 111.35 9.91069C111.456 9.96511 111.527 10.0558 111.597 10.1646C114.818 13.4115 128.726 25.6734 143.449 12.5771C143.608 12.432 143.697 12.1962 143.697 11.9423V5.72061C143.697 5.21273 143.307 4.81367 142.83 4.81367C142.759 4.81367 142.706 4.83182 142.635 4.84996C142.493 4.92251 142.352 5.0132 142.193 5.08576C137.663 7.40753 123.648 12.9217 110.907 0.587307C110.783 0.478474 110.66 0.351507 110.536 0.224535C110.412 0.170118 110.306 0.151978 110.164 0.151978C110.076 0.151978 109.987 0.17011 109.899 0.188249C109.704 0.260805 109.562 0.387781 109.456 0.532892C105.652 3.50767 88.2396 15.5882 72.7385 0.750564L72.5084 0.532892C72.3492 0.387781 72.1191 0.260806 71.8714 0.260806C71.6414 0.260806 71.4113 0.387781 71.2698 0.532892L71.022 0.750564C55.5209 15.5882 38.0911 3.48953 34.3043 0.532892C34.1981 0.387781 34.0566 0.260805 33.8796 0.188249C33.7911 0.188249 33.7026 0.151978 33.5965 0.151978C33.4726 0.151978 33.3487 0.188257 33.2249 0.224535C33.1187 0.351507 32.9771 0.478474 32.8533 0.587307C20.1303 12.9399 6.09797 7.40753 1.58567 5.08576C1.42641 5.0132 1.28485 4.92251 1.14329 4.84996H1.17867Z" fill="white"/>
<path d="M32.2162 32.4976C32.287 32.3889 32.3578 32.3165 32.4463 32.244C32.5878 32.1535 32.7471 32.081 32.9241 32.081C33.1541 32.081 33.3664 32.1716 33.5257 32.3346C33.5257 32.3346 33.5434 32.3527 33.5611 32.3708C50.1593 48.5638 67.5892 35.4319 71.2167 32.3708L71.5706 32.0267C71.6768 31.9904 71.7829 31.9723 71.9068 31.9723C72.0307 31.9723 72.1545 31.9723 72.2607 32.0267L72.6146 32.3708C76.2422 35.4319 93.6543 48.5638 110.253 32.3708C110.253 32.3708 110.27 32.3527 110.288 32.3346C110.447 32.1716 110.642 32.081 110.872 32.081C111.049 32.081 111.226 32.1535 111.35 32.244C111.456 32.3165 111.527 32.3889 111.597 32.4976C114.818 35.7398 128.726 48.0023 143.431 34.9066C143.59 34.7436 143.697 34.5263 143.697 34.2727V28.0599C143.697 27.5709 143.307 27.1724 142.83 27.1724C142.759 27.1724 142.706 27.1905 142.635 27.2086C142.493 27.2811 142.352 27.3535 142.193 27.426C137.68 29.7444 123.648 35.2508 110.925 22.9339C110.801 22.8253 110.677 22.6985 110.553 22.5717C110.429 22.4992 110.323 22.4811 110.182 22.4811C110.093 22.4811 110.005 22.4992 109.916 22.5536C109.722 22.6079 109.58 22.7347 109.474 22.8796C105.687 25.832 88.2573 37.9134 72.7562 23.097L72.5261 22.8615C72.3669 22.6985 72.1368 22.6079 71.8891 22.6079C71.6591 22.6079 71.429 22.6985 71.2875 22.8615L71.0397 23.097C55.5386 37.9134 38.1088 25.832 34.322 22.8796C34.2158 22.7166 34.0742 22.5898 33.8973 22.5536C33.8088 22.4992 33.7203 22.4811 33.6142 22.4811C33.4903 22.4811 33.3664 22.4992 33.2603 22.5717C33.1364 22.6985 33.0125 22.8071 32.8887 22.9339C20.1657 35.2508 6.13336 29.7444 1.62106 27.426C1.4618 27.3535 1.32024 27.2629 1.17867 27.2086C1.10789 27.2086 1.0725 27.1724 1.01941 27.1724C0.541637 27.1724 0.152344 27.5709 0.152344 28.0599V34.2727C0.152344 34.5263 0.240819 34.7436 0.400077 34.9066C15.1049 48.0023 29.0311 35.7398 32.2516 32.4976H32.2162Z" fill="white"/>
</svg>
