<svg width="127" height="123" viewBox="0 0 127 123" fill="none" xmlns="http://www.w3.org/2000/svg">
<path d="M126.9 55.4256C126.9 37.7939 112.732 23.393 95.0595 22.7571C90.5207 10.0747 78.2676 0.949524 63.8918 0.949524C49.5159 0.949524 37.2801 10.0747 32.724 22.7571C15.0691 23.393 0.900391 37.7939 0.900391 55.4256C0.900391 65.8912 5.90518 75.2054 13.654 81.2029C12.8083 84.09 12.3424 87.1317 12.3424 90.2765C12.3424 108.303 27.1669 122.962 45.3913 122.962C52.3117 122.962 58.7316 120.848 64.0471 117.24C69.2935 120.711 75.6099 122.739 82.375 122.739C100.599 122.739 115.424 108.08 115.424 90.0531C115.424 86.9771 114.975 83.9869 114.181 81.1514C121.913 75.1538 126.883 65.8568 126.883 55.4256H126.9ZM90.2964 33.6352C90.2964 46.7301 80.5111 57.5565 67.792 59.4297C67.585 58.1236 67.4469 56.7832 67.4469 55.4256C67.4469 42.3307 77.2321 31.5042 89.9512 29.6311C90.1583 30.9371 90.2964 32.2776 90.2964 33.6524V33.6352ZM64.0298 108.75C59.0941 104.007 56.0049 97.3739 56.0049 90.0531C56.0049 82.7324 58.9905 76.288 63.7882 71.5622C68.724 76.3052 71.8131 82.9386 71.8131 90.2765C71.8131 97.6145 68.8275 104.024 64.0298 108.767V108.75ZM37.8668 29.6311C50.5687 31.5042 60.3711 42.3479 60.3711 55.4256C60.3711 56.7832 60.2331 58.1236 60.026 59.4297C47.3069 57.5565 37.5217 46.7301 37.5217 33.6352C37.5217 32.2604 37.6597 30.9371 37.8668 29.6139V29.6311ZM57.5408 67.0941C53.1918 75.635 44.2695 81.5294 33.9665 81.5294C29.6003 81.5294 25.4757 80.4468 21.8342 78.5908C26.1832 70.0499 35.1056 64.1555 45.4085 64.1555C49.7748 64.1555 53.8994 65.2382 57.5236 67.0941H57.5408ZM70.1909 66.9223C73.8496 65.0319 77.9915 63.9321 82.4095 63.9321C92.7815 63.9321 101.756 69.8953 106.07 78.5393C102.411 80.4296 98.2523 81.5294 93.8515 81.5294C83.4795 81.5294 74.5054 75.5663 70.1909 66.9223ZM63.909 7.53134C74.7297 7.53134 84.0317 13.9929 88.1046 23.2383C77.3702 25.1115 68.3961 32.1229 63.909 41.609C59.422 32.1229 50.4479 25.1115 39.7134 23.2383C43.7863 14.01 53.0883 7.53134 63.909 7.53134ZM7.5792 55.4256C7.5792 41.9698 17.9167 30.8684 31.1362 29.4592C30.9637 30.834 30.8601 32.226 30.8601 33.6352C30.8601 43.19 35.0365 51.7996 41.6636 57.7799C30.7048 59.0173 21.351 65.5647 16.329 74.7758C10.979 69.9984 7.5792 63.1072 7.5792 55.4256ZM19.0212 90.2765C19.0212 88.4206 19.2283 86.6162 19.5907 84.8633C23.9397 86.9427 28.8064 88.1284 33.9665 88.1284C39.7479 88.1284 45.1842 86.6505 49.9301 84.0556C49.5677 85.9975 49.3606 88.0081 49.3606 90.0703C49.3606 98.9033 52.933 106.911 58.6971 112.806C54.7968 115.074 50.258 116.398 45.4258 116.398C30.8774 116.398 19.0385 104.677 19.0385 90.2937L19.0212 90.2765ZM108.797 90.0531C108.797 104.454 96.9579 116.157 82.4095 116.157C77.6636 116.157 73.2455 114.902 69.397 112.737C75.0059 106.877 78.4747 98.9721 78.4747 90.2765C78.4747 88.1456 78.2503 86.049 77.8534 84.0212C82.5993 86.6333 88.0528 88.1284 93.8515 88.1284C99.0116 88.1284 103.913 86.9427 108.262 84.8461C108.607 86.5302 108.797 88.2831 108.797 90.0703V90.0531ZM86.3616 57.6081C92.8678 51.6277 96.9579 43.104 96.9579 33.6524C96.9579 32.2432 96.8544 30.8512 96.6818 29.4764C109.919 30.8856 120.239 41.987 120.239 55.4428C120.239 63.0901 116.874 69.9468 111.575 74.7414C106.605 65.5131 97.3031 58.9313 86.3616 57.6253V57.6081Z" fill="white"/>
</svg>
