<svg width="99" height="99" viewBox="0 0 99 99" fill="none" xmlns="http://www.w3.org/2000/svg">
<rect x="1.54045" y="1.68303" width="96.0847" height="96.0847" rx="48.0423" stroke="#E280CC" stroke-width="2.46371"/>
<path d="M41.4928 62.4795H35.2277V42.3367H41.4928V62.4795ZM38.3266 39.6421C36.3729 39.6421 34.7561 37.9579 34.7561 35.9369C34.7561 33.9832 36.3729 32.3664 38.3266 32.3664C40.3476 32.3664 41.9644 33.9832 41.9644 35.9369C41.9644 37.9579 40.3476 39.6421 38.3266 39.6421ZM64.8692 62.4795H58.6714V52.7113C58.6714 50.3534 58.6041 47.3893 55.3705 47.3893C52.1368 47.3893 51.6653 49.8819 51.6653 52.5092V62.4795H45.4001V42.3367H51.3958V45.0988H51.4632C52.3389 43.5493 54.3599 41.8652 57.3915 41.8652C63.724 41.8652 64.9366 46.0419 64.9366 51.4313V62.4795H64.8692Z" fill="#E280CC"/>
</svg>
