<svg width="120" height="119" viewBox="0 0 120 119" fill="none" xmlns="http://www.w3.org/2000/svg">
<path d="M60.2586 32.138C45.143 32.138 32.8457 44.4353 32.8457 59.5508C32.8457 74.6664 45.143 86.9637 60.2586 86.9637C75.3739 86.9637 87.6712 74.6664 87.6712 59.5508C87.6712 44.4353 75.3741 32.138 60.2586 32.138ZM57.3227 62.8687H57.1761C56.8796 62.8687 56.6382 62.6274 56.6382 62.3305C56.6382 62.034 56.8796 61.7926 57.1761 61.7926H57.3227C58.2041 61.7926 58.9185 61.0782 58.9185 60.1968V53.1103C59.3605 53.2013 59.8088 53.2507 60.2581 53.2507C60.7076 53.2507 61.1564 53.2009 61.5986 53.1098V60.1965C61.5986 61.0779 62.313 61.7924 63.1944 61.7924H63.341C63.6376 61.7924 63.8789 62.0337 63.8789 62.3303C63.8789 62.6269 63.6376 62.8685 63.341 62.8685H63.1944C62.313 62.8685 61.5986 63.5829 61.5986 64.4643V65.164C61.5986 65.903 60.9976 66.504 60.2586 66.504C59.5196 66.504 58.9185 65.903 58.9185 65.164V64.4643C58.9185 63.5832 58.2041 62.8687 57.3227 62.8687ZM40.0758 46.1755C41.095 46.0144 42.0864 45.7139 43.0311 45.2744C47.3693 43.2593 52.4858 43.7189 56.3956 46.4718C56.4064 46.4799 56.4177 46.488 56.429 46.4961C57.5746 47.309 58.9166 47.7151 60.2586 47.7151C61.6013 47.7151 62.944 47.308 64.0886 46.4946C66.3677 44.8811 69.0482 44.0285 71.8404 44.0285C73.8065 44.0285 75.7056 44.4475 77.4826 45.2732C78.4268 45.7137 79.4194 46.0147 80.4415 46.1757C80.9691 46.9695 81.4516 47.7956 81.8844 48.651C80.8307 48.6075 79.784 48.3601 78.8302 47.9167C73.4454 45.4154 67.0895 45.9943 62.2426 49.428C61.0562 50.2702 59.4616 50.2704 58.2748 49.4288C58.2719 49.4268 58.2692 49.4249 58.2662 49.4226C53.4222 45.9931 47.07 45.4156 41.6857 47.9167C40.7161 48.3674 39.6901 48.6132 38.6317 48.6535C39.0646 47.7971 39.5475 46.97 40.0758 46.1755ZM43.0304 50.8113C44.2665 50.237 45.566 49.8643 46.8827 49.6878C46.4621 50.1609 46.2044 50.7821 46.2044 51.4648C46.2044 52.4255 46.7118 53.2654 47.4715 53.7383C45.5255 53.6362 43.5896 52.9723 41.9197 51.7113L41.4949 51.3904C42.0164 51.235 42.5293 51.0443 43.0304 50.8113ZM51.5617 51.4648C51.5617 50.8191 51.3331 50.2269 50.9526 49.7644C52.3005 49.9959 53.6162 50.4324 54.8489 51.0708C53.6606 52.1717 52.259 52.9411 50.7704 53.3651C51.2588 52.88 51.5617 52.208 51.5617 51.4648ZM69.5645 49.7649C69.1842 50.2274 68.9556 50.8194 68.9556 51.4648C68.9556 52.2078 69.2584 52.8797 69.7469 53.3649C68.2586 52.9406 66.857 52.1712 65.6689 51.0705C66.9014 50.4324 68.2169 49.9964 69.5645 49.7649ZM74.3128 51.4648C74.3128 50.7823 74.0552 50.1611 73.6349 49.688C74.9511 49.8646 76.2499 50.237 77.4853 50.8108C77.9817 51.0416 78.498 51.2326 79.0251 51.3882L78.598 51.7108C76.928 52.9718 74.9921 53.6362 73.0461 53.738C73.8053 53.2654 74.3128 52.4255 74.3128 51.4648ZM76.3419 41.4569C74.8853 41.0455 73.3796 40.8365 71.8404 40.8365C68.3838 40.8365 65.0657 41.8922 62.2418 43.8912C61.0656 44.7272 59.4874 44.735 58.304 43.9126C58.2937 43.905 58.2832 43.8974 58.2726 43.8897C54.1553 40.9721 48.9475 40.1174 44.17 41.4619C48.4513 37.6498 54.0888 35.3294 60.2588 35.3294C66.4259 35.3297 72.0611 37.6478 76.3419 41.4569ZM60.2586 83.7718C46.9031 83.7718 36.0374 72.9063 36.0374 59.5506C36.0374 56.9683 36.4452 54.48 37.1969 52.1444L39.9965 54.2583C44.7381 57.8389 51.109 57.7794 55.7269 54.4704V55.0091C52.2681 59.1236 46.2149 59.8123 41.9199 56.5693C41.2165 56.0383 40.2163 56.178 39.6847 56.8814C39.1537 57.5848 39.2934 58.5855 39.9968 59.1165C42.3942 60.9267 45.2076 61.8064 48.0005 61.8064C50.0751 61.8064 52.1372 61.3168 54.01 60.3664C53.6545 60.9375 53.447 61.61 53.447 62.3305C53.447 63.8896 54.4087 65.2283 55.7698 65.7849C56.073 67.9911 57.9709 69.696 60.259 69.696C62.5472 69.696 64.4451 67.9911 64.7483 65.7849C66.1094 65.2283 67.0711 63.8898 67.0711 62.3305C67.0711 61.6097 66.8636 60.9375 66.5081 60.3664C68.3809 61.3168 70.4427 61.8064 72.5178 61.8064C75.3103 61.8064 78.1244 60.9264 80.5216 59.1163C81.225 58.5852 81.3646 57.5845 80.8336 56.8811C80.3023 56.1777 79.3018 56.0383 78.5984 56.5691C74.3029 59.8125 68.2498 59.1234 64.7912 55.0088V54.4704C69.4091 57.7794 75.7797 57.8391 80.5218 54.2583L83.3209 52.1447C84.0727 54.4802 84.4805 56.9685 84.4805 59.5506C84.4797 72.9063 73.6143 83.7718 60.2586 83.7718Z" fill="white"/>
<path d="M118.539 58.024L93.9284 50.5289L111.494 31.7326C111.974 31.2195 112.062 30.4533 111.71 29.8451C111.359 29.237 110.651 28.9296 109.968 29.0884L84.9067 34.9029L90.7212 9.84187C90.8798 9.15787 90.5729 8.4503 89.9645 8.09921C89.3562 7.74813 88.5902 7.83577 88.077 8.31526L69.2807 25.8813L61.7854 1.27049C61.5809 0.598515 60.9612 0.139404 60.2588 0.139404C59.5564 0.139404 58.9367 0.598515 58.7322 1.27024L51.2369 25.8813L32.4409 8.31502C31.9282 7.83577 31.1618 7.74763 30.5534 8.09897C29.945 8.45005 29.6378 9.15762 29.7967 9.84162L35.6114 34.9027L10.5499 29.0884C9.86636 28.9296 9.1583 29.237 8.80722 29.8451C8.45589 30.4533 8.54378 31.2195 9.02327 31.7326L26.5893 50.5289L1.97849 58.024C1.30677 58.2285 0.847656 58.8484 0.847656 59.5506C0.847656 60.2528 1.30677 60.8727 1.97849 61.0772L26.5891 68.5722L9.02327 87.3688C8.54378 87.8819 8.45589 88.6481 8.80722 89.2563C9.15855 89.8644 9.86612 90.1718 10.5499 90.013L35.6112 84.1985L29.7964 109.26C29.6378 109.944 29.9447 110.651 30.5531 111.002C31.1615 111.353 31.9275 111.266 32.4406 110.786L51.2369 93.2201L58.7322 117.831C58.9367 118.503 59.5564 118.962 60.2588 118.962C60.9612 118.962 61.5809 118.503 61.7854 117.831L69.2805 93.2201L88.0768 110.786C88.5899 111.265 89.3557 111.354 89.9643 111.002C90.5727 110.651 90.8798 109.944 90.721 109.26L84.9067 84.1985L109.968 90.013C110.651 90.1716 111.359 89.8644 111.71 89.2563C112.062 88.6481 111.974 87.8819 111.494 87.3688L93.9284 68.5725L118.539 61.0774C119.211 60.8729 119.67 60.253 119.67 59.5508C119.67 58.8487 119.211 58.2285 118.539 58.024ZM105.585 33.3817L90.3188 49.7168C89.7996 48.1337 89.1605 46.6044 88.4087 45.1416L95.8188 40.8635C96.5821 40.4228 96.8436 39.4469 96.4029 38.6836C95.9622 37.9203 94.9863 37.6588 94.223 38.0995L86.8072 42.3808C85.9033 40.9878 84.8925 39.6701 83.7869 38.4391L105.585 33.3817ZM60.2588 87.986C44.5796 87.986 31.8234 75.2298 31.8234 59.5506C31.8234 43.8713 44.5796 31.1152 60.2588 31.1152C75.9381 31.1152 88.694 43.8713 88.694 59.5506C88.6943 75.2301 75.9383 87.986 60.2588 87.986ZM81.3703 36.0227C80.1396 34.9174 78.8224 33.9069 77.4296 33.0029L81.7106 25.5877C82.1513 24.8244 81.8896 23.8484 81.1265 23.4077C80.364 22.9673 79.3871 23.2283 78.9466 23.9918L74.6688 31.4014C73.2058 30.6494 71.6762 30.0101 70.0926 29.4906L86.4277 14.2248L81.3703 36.0227ZM60.2588 7.21291L66.7718 28.5994C65.1735 28.2635 63.5315 28.0475 61.8552 27.9637V19.4122C61.8552 18.5309 61.1407 17.8164 60.2593 17.8164C59.3779 17.8164 58.6635 18.5309 58.6635 19.4122V27.9637C56.9866 28.0475 55.3444 28.2635 53.7456 28.5994L60.2588 7.21291ZM34.0897 14.2248L50.4248 29.4906C48.8417 30.0099 47.3124 30.6489 45.8496 31.4007L41.5718 23.9916C41.1311 23.2283 40.1549 22.9668 39.3919 23.4075C38.6286 23.8482 38.3671 24.8241 38.8078 25.5874L43.0888 33.0019C41.6958 33.9059 40.3781 34.9167 39.1471 36.0222L34.0897 14.2248ZM14.933 33.3817L36.731 38.4391C35.6254 39.6698 34.6149 40.9873 33.7109 42.3803L26.2964 38.0995C25.5338 37.6591 24.5574 37.9203 24.1165 38.6836C23.6758 39.4469 23.9373 40.4228 24.7006 40.8635L32.1094 45.1411C31.3577 46.6039 30.7184 48.1334 30.1991 49.7168L14.933 33.3817ZM7.9214 59.5506L29.3076 53.0376C28.9715 54.6361 28.7557 56.2784 28.672 57.955H20.1207C19.2393 57.955 18.5249 58.6694 18.5249 59.5508C18.5249 60.4322 19.2393 61.1467 20.1207 61.1467H28.672C28.7557 62.8233 28.9718 64.4653 29.3076 66.0638L7.9214 59.5506ZM14.933 85.7194L30.1988 69.3844C30.7181 70.968 31.3574 72.4975 32.1094 73.9605L24.7003 78.2381C23.937 78.6788 23.6755 79.6547 24.1162 80.418C24.4118 80.9299 24.9483 81.2162 25.4997 81.2162C25.7705 81.2162 26.045 81.1472 26.2962 81.0021L33.7109 76.7211C34.6149 78.1139 35.6254 79.4313 36.7307 80.6618L14.933 85.7194ZM39.1473 83.0787C40.3783 84.1842 41.696 85.195 43.0891 86.0992L38.8078 93.5142C38.3671 94.2775 38.6286 95.2535 39.3919 95.6942C39.643 95.8393 39.9178 95.9082 40.1883 95.9082C40.7397 95.9082 41.2762 95.622 41.5718 95.1101L45.8499 87.7007C47.3124 88.4525 48.8417 89.0915 50.4248 89.6108L34.0897 104.877L39.1473 83.0787ZM60.2588 111.888L53.7456 90.5018C55.3444 90.8379 56.9866 91.0537 58.6635 91.1374V99.6894C58.6635 100.571 59.3779 101.285 60.2593 101.285C61.1407 101.285 61.8552 100.571 61.8552 99.6894V91.1374C63.5315 91.0537 65.1735 90.8376 66.7718 90.5018L60.2588 111.888ZM86.4277 104.876L70.0926 89.6106C71.6762 89.0913 73.2058 88.452 74.6688 87.7L78.9469 95.1098C79.2425 95.6217 79.7789 95.908 80.3303 95.908C80.6011 95.908 80.8756 95.839 81.1268 95.6939C81.8898 95.2532 82.1516 94.2773 81.7109 93.514L77.4296 86.0985C78.8224 85.1945 80.1398 84.184 81.3706 83.0784L86.4277 104.876ZM105.585 85.7194L83.7869 80.6621C84.8925 79.4313 85.903 78.1136 86.8072 76.7206L94.2232 81.0021C94.4744 81.1472 94.7491 81.2162 95.0197 81.2162C95.5711 81.2162 96.1075 80.9299 96.4031 80.418C96.8438 79.6547 96.5824 78.6788 95.8191 78.2381L88.4087 73.9598C89.1605 72.497 89.7998 70.9677 90.3191 69.3844L105.585 85.7194ZM91.21 66.0638C91.5459 64.4653 91.762 62.8233 91.8457 61.1467H100.398C101.28 61.1467 101.994 60.4322 101.994 59.5508C101.994 58.6694 101.28 57.955 100.398 57.955H91.8457C91.762 56.2784 91.5459 54.6361 91.21 53.0376L112.597 59.5506L91.21 66.0638Z" fill="white"/>
<path d="M64.0264 73.8208L62.3709 73.3298C62.075 73.2422 61.76 73.2419 61.4637 73.3298L60.2599 73.6865L59.0552 73.3298C58.7593 73.2422 58.4448 73.2422 58.149 73.3298L56.4908 73.8208C55.6457 74.071 55.1635 74.959 55.4137 75.8041C55.6192 76.4979 56.2546 76.9472 56.943 76.9472C57.093 76.9472 57.2455 76.9258 57.397 76.8812L58.602 76.5244L59.8069 76.8812C60.1028 76.9688 60.4175 76.9688 60.7134 76.8812L61.9167 76.5244L63.1187 76.8809C63.9637 77.1313 64.8518 76.6496 65.1024 75.8048C65.3531 74.96 64.8712 74.0715 64.0264 73.8208Z" fill="white"/>
<path d="M61.4632 77.2089L60.2599 77.5657L59.0579 77.2092C58.2123 76.9585 57.3248 77.4402 57.0741 78.2853C56.8235 79.1303 57.3052 80.0183 58.1502 80.269L59.8057 80.76C59.954 80.804 60.1067 80.8258 60.2597 80.8258C60.4124 80.8258 60.5651 80.804 60.7131 80.76L62.3701 80.269C63.2152 80.0186 63.6971 79.1306 63.4469 78.2855C63.196 77.4404 62.308 76.9585 61.4632 77.2089Z" fill="white"/>
<path d="M57.2996 72.7128C58.1294 73.0092 59.043 72.5768 59.3393 71.7467C59.6359 70.9166 59.203 70.0036 58.3732 69.7072C55.0281 68.5126 51.3314 70.019 49.7746 73.2112C49.7031 73.3578 49.5826 73.4086 49.4939 73.4256C49.4058 73.4422 49.2752 73.4393 49.1549 73.3291C48.505 72.7332 47.4957 72.7774 46.9001 73.4268C46.3045 74.0764 46.3482 75.086 46.9978 75.6816C47.669 76.2971 48.5212 76.6256 49.408 76.6256C49.6334 76.6256 49.861 76.6045 50.0883 76.5613C51.2106 76.3484 52.1416 75.6374 52.6424 74.6106C53.4862 72.8815 55.4889 72.0661 57.2996 72.7128Z" fill="white"/>
<path d="M71.3638 73.3288C71.2435 73.4391 71.1131 73.442 71.0247 73.4253C70.9364 73.4086 70.8156 73.3578 70.7441 73.2112C69.1871 70.0191 65.4909 68.5123 62.1455 69.7073C61.3156 70.0036 60.8828 70.9169 61.1794 71.7467C61.476 72.5768 62.3888 73.0094 63.2191 72.7128C65.0288 72.0661 67.0322 72.8815 67.8758 74.6104C68.3766 75.6372 69.3076 76.3482 70.4299 76.561C70.6575 76.6042 70.885 76.6253 71.1102 76.6253C71.997 76.6253 72.8492 76.2968 73.5204 75.6813C74.17 75.0857 74.2137 74.0762 73.6181 73.4265C73.0227 72.7769 72.0134 72.7332 71.3638 73.3288Z" fill="white"/>
</svg>
