<svg width="169" height="127" viewBox="0 0 169 127" fill="none" xmlns="http://www.w3.org/2000/svg">
<path d="M1.07098 90.9714H37.5554C38.0476 90.9714 38.4445 90.5747 38.4445 90.0668C38.4445 89.8447 38.3492 89.6384 38.2063 89.4638L38.1587 89.4162L20.0118 65.9444L19.8371 65.754C19.6784 65.5794 19.4402 65.4683 19.1703 65.4683C18.948 65.4683 18.7416 65.5636 18.5829 65.7064L18.4717 65.8334L18.2971 66.0238L0.594685 89.2575L0.324779 89.5908C0.22952 89.7336 0.166016 89.9082 0.166016 90.0827C0.166016 90.5747 0.562927 90.9873 1.0551 90.9873L1.07098 90.9714Z" fill="white"/>
<path d="M37.5565 94.1772H1.054C0.56244 94.1772 0.166016 94.5936 0.166016 95.11V125.126C0.166016 125.643 0.56244 126.076 1.054 126.076H12.8039V107.187C12.8039 106.67 13.2004 106.254 13.6919 106.254H24.6015C25.093 106.254 25.4894 106.67 25.4894 107.187V126.076H37.5565C38.0481 126.076 38.4445 125.66 38.4445 125.126V95.11C38.4445 94.5936 38.0481 94.1772 37.5565 94.1772Z" fill="white"/>
<path d="M167.536 86.2025H131.051C130.555 86.2025 130.154 86.5998 130.154 87.0963V125.182C130.154 125.679 130.555 126.076 131.051 126.076H167.536C168.033 126.076 168.433 125.679 168.433 125.182V87.0963C168.433 86.5998 168.033 86.2025 167.536 86.2025ZM147.573 111.063C147.573 111.56 147.172 111.957 146.676 111.957H135.774C135.277 111.957 134.877 111.56 134.877 111.063V104.211C134.877 103.714 135.277 103.317 135.774 103.317H146.676C147.172 103.317 147.573 103.714 147.573 104.211V111.063ZM147.573 98.4013C147.573 98.8978 147.172 99.295 146.676 99.295H135.774C135.277 99.295 134.877 98.8978 134.877 98.4013V91.5488C134.877 91.0522 135.277 90.655 135.774 90.655H146.676C147.172 90.655 147.573 91.0522 147.573 91.5488V98.4013ZM164.238 111.063C164.238 111.56 163.838 111.957 163.342 111.957H152.439C151.943 111.957 151.543 111.56 151.543 111.063V104.211C151.543 103.714 151.943 103.317 152.439 103.317H163.342C163.838 103.317 164.238 103.714 164.238 104.211V111.063ZM164.238 98.4013C164.238 98.8978 163.838 99.295 163.342 99.295H152.439C151.943 99.295 151.543 98.8978 151.543 98.4013V91.5488C151.543 91.0522 151.943 90.655 152.439 90.655H163.342C163.838 90.655 164.238 91.0522 164.238 91.5488V98.4013Z" fill="white"/>
<path d="M81.4057 0.0759277H44.9111C44.4201 0.0759277 44.0273 0.467085 44.0273 0.972324V125.196C44.0273 125.685 44.4365 126.076 44.9111 126.076H81.4057C81.8967 126.076 82.3058 125.685 82.3058 125.196V0.972324C82.3058 0.483383 81.8967 0.0759277 81.4057 0.0759277ZM59.689 111.929C59.689 112.19 59.4762 112.402 59.2144 112.402H50.8517C50.5898 112.402 50.3771 112.19 50.3771 111.929V102.656C50.3771 102.395 50.5898 102.183 50.8517 102.183H59.2144C59.4762 102.183 59.689 102.395 59.689 102.656V111.929ZM59.689 90.6277C59.689 90.9048 59.4762 91.1004 59.2144 91.1004H50.8517C50.5898 91.1004 50.3771 90.8885 50.3771 90.6277V81.3541C50.3771 81.0934 50.5898 80.8815 50.8517 80.8815H59.2144C59.4762 80.8815 59.689 81.0934 59.689 81.3541V90.6277ZM59.689 69.3262C59.689 69.587 59.4762 69.7989 59.2144 69.7989H50.8517C50.5898 69.7989 50.3771 69.587 50.3771 69.3262V60.0527C50.3771 59.7919 50.5898 59.58 50.8517 59.58H59.2144C59.4762 59.58 59.689 59.7919 59.689 60.0527V69.3262ZM59.689 48.0247C59.689 48.2855 59.4762 48.4974 59.2144 48.4974H50.8517C50.5898 48.4974 50.3771 48.2855 50.3771 48.0247V38.7511C50.3771 38.4904 50.5898 38.2785 50.8517 38.2785H59.2144C59.4762 38.2785 59.689 38.4904 59.689 38.7511V48.0247ZM59.689 26.7395C59.689 27.0003 59.4762 27.2121 59.2144 27.2121H50.8517C50.5898 27.2121 50.3771 27.0003 50.3771 26.7395V17.4659C50.3771 17.2051 50.5898 16.9933 50.8517 16.9933H59.2144C59.4762 16.9933 59.689 17.2051 59.689 17.4659V26.7395ZM76.087 111.929C76.087 112.19 75.8743 112.402 75.6124 112.402H67.2661C67.0043 112.402 66.7915 112.19 66.7915 111.929V102.656C66.7915 102.395 67.0043 102.183 67.2661 102.183H75.6124C75.8743 102.183 76.087 102.395 76.087 102.656V111.929ZM76.087 90.6277C76.087 90.9048 75.8743 91.1004 75.6124 91.1004H67.2661C67.0043 91.1004 66.7915 90.8885 66.7915 90.6277V81.3541C66.7915 81.0934 67.0043 80.8815 67.2661 80.8815H75.6124C75.8743 80.8815 76.087 81.0934 76.087 81.3541V90.6277ZM76.087 69.3262C76.087 69.587 75.8743 69.7989 75.6124 69.7989H67.2661C67.0043 69.7989 66.7915 69.587 66.7915 69.3262V60.0527C66.7915 59.7919 67.0043 59.58 67.2661 59.58H75.6124C75.8743 59.58 76.087 59.7919 76.087 60.0527V69.3262ZM76.087 48.0247C76.087 48.2855 75.8743 48.4974 75.6124 48.4974H67.2661C67.0043 48.4974 66.7915 48.2855 66.7915 48.0247V38.7511C66.7915 38.4904 67.0043 38.2785 67.2661 38.2785H75.6124C75.8743 38.2785 76.087 38.4904 76.087 38.7511V48.0247ZM76.087 26.7395C76.087 27.0003 75.8743 27.2121 75.6124 27.2121H67.2661C67.0043 27.2121 66.7915 27.0003 66.7915 26.7395V17.4659C66.7915 17.2051 67.0043 16.9933 67.2661 16.9933H75.6124C75.8743 16.9933 76.087 17.2051 76.087 17.4659V26.7395Z" fill="white"/>
<path d="M168.433 83.0778C168.433 83.4917 168.112 83.8101 167.695 83.8101H130.892C130.491 83.8101 130.154 83.4917 130.154 83.0778V75.7703C130.154 75.3723 130.491 75.038 130.892 75.038H167.695C168.096 75.038 168.433 75.3723 168.433 75.7703V83.0778Z" fill="white"/>
<path d="M125.286 23.8995C125.172 23.5105 124.811 23.2025 124.369 23.2025C124.173 23.2025 123.992 23.2673 123.845 23.3808C123.829 23.3808 123.796 23.4132 123.78 23.4294L123.468 23.8184L87.5648 68.8934L87.401 69.1203C87.2209 69.2986 87.1062 69.5417 87.0898 69.8173V125.201C87.0898 125.687 87.4993 126.076 87.9907 126.076H124.484C124.975 126.076 125.368 125.687 125.368 125.201V24.2885C125.368 24.1588 125.336 24.0291 125.286 23.9157V23.8995ZM110.185 48.3738L110.447 48.0497C112.904 44.9377 117.048 39.8807 119.062 37.4333L119.324 37.1254C119.521 36.8984 119.799 36.7526 120.127 36.7526C120.635 36.7526 121.028 37.1091 121.126 37.5792V48.9735C121.126 49.5246 120.684 49.9622 120.143 49.9947C120.127 49.9947 120.111 49.9947 120.094 49.9947C120.078 49.9947 120.061 49.9947 120.045 49.9947H111.069C111.069 49.9947 111.036 49.9947 111.02 49.9947C111.02 49.9947 110.987 49.9947 110.971 49.9947C110.414 49.9622 109.972 49.5246 109.972 48.9735C109.972 48.7466 110.037 48.5359 110.168 48.3576L110.185 48.3738ZM104.501 111.489C104.501 111.975 104.108 112.364 103.617 112.364H92.7243C92.2329 112.364 91.8399 111.975 91.8399 111.489V104.746C91.8399 104.26 92.2329 103.871 92.7243 103.871H103.617C104.108 103.871 104.501 104.26 104.501 104.746V111.489ZM104.501 99.0406C104.501 99.5269 104.108 99.9159 103.617 99.9159H92.7243C92.2329 99.9159 91.8399 99.5269 91.8399 99.0406V92.298C91.8399 91.8118 92.2329 91.4228 92.7243 91.4228H103.617C104.108 91.4228 104.501 91.8118 104.501 92.298V99.0406ZM104.501 86.5765C104.501 87.0628 104.108 87.4518 103.617 87.4518H92.7243C92.2329 87.4518 91.8399 87.0466 91.8399 86.5765V79.8339C91.8399 79.3477 92.2329 78.9587 92.7243 78.9587H103.617C104.108 78.9587 104.501 79.3477 104.501 79.8339V86.5765ZM104.534 59.2658V74.1124C104.534 74.5987 104.124 74.9877 103.649 74.9877H92.7735C92.2821 74.9877 91.8726 74.5987 91.8726 74.1124V72.2485C91.8726 72.1351 91.9054 72.0216 91.9381 71.9081C91.9545 71.8757 91.9545 71.8595 91.9873 71.8109C92.0036 71.7623 92.0364 71.7299 92.0692 71.6974C92.1019 71.6488 92.1347 71.6002 92.1674 71.5516C93.5597 69.5742 99.833 61.9239 102.47 58.7309L102.732 58.4067C102.929 58.1798 103.207 58.0339 103.535 58.0339C104.042 58.0339 104.436 58.3905 104.534 58.8605V59.2658ZM121.142 111.489C121.142 111.975 120.733 112.364 120.258 112.364H109.366C108.874 112.364 108.465 111.975 108.465 111.489V104.746C108.465 104.26 108.874 103.871 109.366 103.871H120.258C120.749 103.871 121.142 104.26 121.142 104.746V111.489ZM121.142 99.0406C121.142 99.5269 120.733 99.9159 120.258 99.9159H109.366C108.874 99.9159 108.465 99.5269 108.465 99.0406V92.298C108.465 91.8118 108.874 91.4228 109.366 91.4228H120.258C120.749 91.4228 121.142 91.8118 121.142 92.298V99.0406ZM121.142 86.5765C121.142 87.0628 120.733 87.4518 120.258 87.4518H109.366C108.874 87.4518 108.465 87.0466 108.465 86.5765V79.8339C108.465 79.3477 108.874 78.9587 109.366 78.9587H120.258C120.749 78.9587 121.142 79.3477 121.142 79.8339V86.5765ZM121.142 74.1124C121.142 74.5987 120.733 74.9877 120.258 74.9877H109.366C108.874 74.9877 108.465 74.5987 108.465 74.1124V67.3699C108.465 66.8836 108.874 66.4946 109.366 66.4946H120.258C120.749 66.4946 121.142 66.8836 121.142 67.3699V74.1124ZM121.142 61.6484C121.142 62.1346 120.733 62.5236 120.258 62.5236H109.366C108.874 62.5236 108.465 62.1346 108.465 61.6484V54.9057C108.465 54.4195 108.874 54.0143 109.366 54.0143H120.258C120.749 54.0143 121.142 54.4033 121.142 54.9057V61.6484Z" fill="white"/>
</svg>
