<svg width="152" height="124" viewBox="0 0 152 124" fill="none" xmlns="http://www.w3.org/2000/svg">
<path d="M59.4346 36.7699L10.7891 8.7597V99.3931L59.4346 114.026V36.7699Z" fill="white"/>
<path d="M64.2188 36.9497V114.026L112.864 99.3504V8.7597L64.2188 36.9497Z" fill="white"/>
<path d="M151.141 6.53813C151.141 3.36293 148.64 0.785034 145.559 0.785034C142.478 0.785034 139.977 3.36293 139.977 6.53813V12.7471H151.141V6.53813Z" fill="white"/>
<path d="M141.38 97.1975H139.992L145.574 117.215L151.141 97.1975V16.7344H139.977V97.1975H141.365H141.38Z" fill="white"/>
<path d="M123.216 12.0724L118.038 7.96228V101.287L64.4242 118.716H58.9801L5.60071 103.719V7.96228L0.421875 12.0724V107.359L58.7306 123.595H64.6737L118.474 106.417L123.232 105.005V12.0567L123.216 12.0724Z" fill="white"/>
</svg>
