<svg width="234" height="101" viewBox="0 0 234 101" fill="none" xmlns="http://www.w3.org/2000/svg">
<path d="M213.451 17.6583C218.079 17.6583 221.809 13.9127 221.809 9.28485C221.809 4.65703 218.064 0.911438 213.451 0.911438C208.839 0.911438 205.062 4.65703 205.062 9.28485C205.062 13.9127 208.824 17.6583 213.451 17.6583Z" fill="white"/>
<path d="M223.437 20.8952C223.231 20.8638 223.026 20.8481 222.789 20.8481H204.097C203.876 20.8481 203.654 20.8795 203.465 20.8952C197.65 21.4124 193.1 26.2555 193.1 32.1644V55.6747C193.1 57.4771 194.569 58.9661 196.418 58.9661C198.266 58.9661 199.736 57.4928 199.736 55.6747V35.4715C199.736 34.7192 199.941 33.6848 201.348 33.6848C202.311 33.6848 202.517 34.7035 202.548 35.3461V95.8772C202.548 98.479 204.666 100.595 207.304 100.595C209.943 100.595 212.06 98.479 212.06 95.8772V60.988C212.06 60.5962 212.218 59.6087 213.435 59.6087C214.636 59.6087 214.778 60.6119 214.794 60.988V95.8772C214.794 98.479 216.927 100.595 219.566 100.595C222.204 100.595 224.322 98.479 224.322 95.8772V35.3461C224.353 34.7035 224.559 33.6848 225.523 33.6848C226.913 33.6848 227.134 34.7035 227.134 35.4715V55.659C227.134 57.4615 228.619 58.9505 230.452 58.9505C232.285 58.9505 233.77 57.4772 233.77 55.659V32.1487C233.77 26.2398 229.22 21.4124 223.421 20.8795L223.437 20.8952Z" fill="white"/>
<path d="M146.856 21.6456C151.259 21.6456 154.822 18.0857 154.822 13.6709C154.822 9.25607 151.259 5.69623 146.856 5.69623C142.452 5.69623 138.873 9.27162 138.873 13.6709C138.873 18.0702 142.436 21.6456 146.856 21.6456Z" fill="white"/>
<path d="M156.429 36.4757C157.482 36.1789 157.78 37.5694 157.78 37.5694L163.171 55.6459C163.171 55.6459 164.193 59.5205 167.572 58.5362C170.967 57.552 169.772 53.5679 169.772 53.5679L163.077 31.898C163.077 31.898 160.688 25.6329 155.391 25.6329H138.323C133.026 25.6329 130.622 31.898 130.622 31.898L123.926 53.5679C123.926 53.5679 122.732 57.5363 126.127 58.5362C129.506 59.5205 130.527 55.6459 130.527 55.6459L135.918 37.5694C135.918 37.5694 136.217 36.1789 137.27 36.4757C138.323 36.7726 137.93 38.2568 137.93 38.2568L128.531 72.1444H137.27V96.4235C137.27 98.7201 139.156 100.595 141.466 100.595C143.777 100.595 145.663 98.7201 145.663 96.4235V72.1444H148.052V96.4235C148.052 98.7201 149.922 100.595 152.248 100.595C154.574 100.595 156.444 98.7201 156.444 96.4235V72.1444H165.183L155.784 38.2568C155.784 38.2568 155.391 36.7726 156.444 36.4757H156.429Z" fill="white"/>
<path d="M99.0079 21.6456C103.411 21.6456 106.975 18.0857 106.975 13.6709C106.975 9.25607 103.411 5.69623 99.0079 5.69623C94.6043 5.69623 91.0254 9.27162 91.0254 13.6709C91.0254 18.0702 94.5887 21.6456 99.0079 21.6456Z" fill="white"/>
<path d="M115.284 31.7754C115.284 31.7754 112.904 25.4977 107.626 25.4977H90.6195C85.342 25.4977 82.946 31.7754 82.946 31.7754L76.2747 53.4889C76.2747 53.4889 76.1025 54.0682 76.0712 54.8353C75.6327 54.2717 74.9593 53.8803 74.1763 53.8803C73.2993 53.8803 72.5476 54.3343 72.1091 55.0231H72.0778C71.8742 55.1797 68.7578 60.7216 67.7399 61.7548C66.6594 62.8507 65.6728 62.7254 65.6728 62.7254H57.5764C57.5764 62.7254 56.5899 62.8507 55.5093 61.7548C54.4601 60.7216 51.3593 55.1797 51.1714 55.0075H51.1558C50.7173 54.3343 49.9656 53.8803 49.0886 53.8803C48.2116 53.8803 47.5696 54.3186 47.1311 54.9448V32.1511C47.1311 26.2491 42.6209 21.4274 36.858 20.8951C36.6701 20.8638 36.4665 20.8481 36.2316 20.8481H17.7055C17.455 20.8481 17.2671 20.8795 17.0635 20.8951C11.3162 21.4117 6.80604 26.2491 6.80604 32.1511V55.6337C6.80604 56.8861 7.52641 57.9819 8.57565 58.5299C8.52867 58.6238 8.48168 58.7177 8.46602 58.8273L0.933464 98.7007C0.808183 99.3739 1.24667 100.031 1.92006 100.157C1.99836 100.157 2.07666 100.172 2.15496 100.172C2.73439 100.172 3.26683 99.7496 3.37646 99.1547L10.909 59.2656C10.9403 59.1091 10.9403 58.9526 10.909 58.796C12.3341 58.4359 13.399 57.1522 13.399 55.618V35.4387C13.399 34.6872 13.6182 33.654 14.9963 33.654C15.9516 33.654 16.1552 34.6716 16.1865 35.3134V95.7732C16.1865 98.372 18.285 100.485 20.9002 100.485C23.5155 100.485 25.614 98.372 25.614 95.7732V60.9251C25.6296 60.5337 25.7549 59.5474 26.9607 59.5474C28.1666 59.5474 28.3075 60.5494 28.3232 60.9251V95.7732C28.3232 98.372 30.4216 100.485 33.0369 100.485C35.6521 100.485 37.7506 98.372 37.7506 95.7732V35.3134C37.7819 34.6716 38.0012 33.654 38.9408 33.654C40.3346 33.654 40.5381 34.6716 40.5381 35.4387V55.6024C40.5381 57.4027 42.0102 58.8899 43.8268 58.8899C45.1266 58.8899 46.2541 58.1228 46.7709 57.027C46.8179 57.1992 46.8649 57.3401 46.8649 57.3401L53.5988 69.5197C53.5988 69.5197 54.0059 70.3651 54.0059 71.1322V73.5274L50.451 86.568H54.0059V97.2918C54.0059 99.1234 55.478 100.579 57.2946 100.579C59.1111 100.579 60.5832 99.1078 60.5832 97.2918V86.9594C60.5832 86.9594 60.5675 86.7872 60.5832 86.568H62.5721C62.5877 86.7872 62.5721 86.9594 62.5721 86.9594V97.2918C62.5721 99.1234 64.0441 100.579 65.8607 100.579C67.6773 100.579 69.165 99.1078 69.165 97.2918V86.568H72.7355L69.165 73.4491V71.1322C69.165 70.3651 69.5722 69.5197 69.5722 69.5197L75.8049 58.2794C75.8049 58.2794 76.1964 57.434 76.4157 56.8234C76.7602 57.5123 77.324 58.1385 78.4045 58.4516C81.7715 59.4379 82.7894 55.5554 82.7894 55.5554L88.1765 37.4425C88.1765 37.4425 88.474 36.0492 89.5233 36.3466C90.5725 36.6441 90.181 38.1313 90.181 38.1313L80.8162 72.0871H89.5233V96.4151C89.5233 98.7164 91.4025 100.595 93.7046 100.595C96.0066 100.595 97.8858 98.7164 97.8858 96.4151V72.0871H100.266V96.4151C100.266 98.7164 102.13 100.595 104.447 100.595C106.765 100.595 108.629 98.7164 108.629 96.4151V72.0871H117.336L107.987 38.1313C107.987 38.1313 107.595 36.6441 108.629 36.3466C109.678 36.0492 109.976 37.4425 109.976 37.4425L115.347 55.5554C115.347 55.5554 116.365 59.4379 119.732 58.4516C123.114 57.4653 121.924 53.4733 121.924 53.4733L115.253 31.7597L115.284 31.7754Z" fill="white"/>
<path d="M181.546 58.3291C185.297 58.3291 188.317 55.4721 188.317 51.9419C188.317 48.4117 185.297 45.5696 181.546 45.5696C177.795 45.5696 174.76 48.4117 174.76 51.9419C174.76 55.4721 177.795 58.3291 181.546 58.3291Z" fill="white"/>
<path d="M197.462 77.2597C197.384 77.0069 193.182 66.6743 192.695 65.2208C191.184 60.7812 188.431 60.8286 185.771 60.7496C183.112 60.6864 181.523 60.7496 181.523 60.7496C181.523 60.7496 179.824 60.6865 176.315 60.7812C172.822 60.8918 171.72 62.6929 167.849 72.6622C167.299 74.0999 165.442 78.7448 165.411 79.0292H165.442C165.112 79.8192 164.844 81.4939 166.418 82.2206C168.274 83.0738 169.297 81.2727 169.297 81.2727L172.947 69.5972C172.947 69.5972 173.577 68.8072 173.577 69.6288V97.135H173.593C173.593 99.0467 175.119 100.595 177.039 100.595C178.958 100.595 180.484 99.0467 180.484 97.135V86.281C180.484 86.281 180.28 84.7485 181.523 84.7485C182.766 84.7485 182.561 86.281 182.561 86.281V97.135C182.561 99.0467 184.103 100.595 186.007 100.595C187.911 100.595 189.453 99.0467 189.453 97.135V69.6288C189.453 68.823 189.878 69.3918 189.878 69.3918L192.742 77.3861C192.742 77.3861 193.985 80.9567 194.363 81.1147C195.653 81.6677 197.148 81.0357 197.683 79.7402C198.044 78.887 197.903 77.9707 197.415 77.2755V77.2439L197.462 77.2597Z" fill="white"/>
<path d="M26.8208 17.6583C31.4443 17.6583 35.2019 13.9127 35.2019 9.28485C35.2019 4.65703 31.4443 0.911438 26.8208 0.911438C22.1972 0.911438 18.4551 4.65703 18.4551 9.28485C18.4551 13.9127 22.1972 17.6583 26.8208 17.6583Z" fill="white"/>
<path d="M61.9171 58.3291C65.6724 58.3291 68.6956 55.4721 68.6956 51.9419C68.6956 48.4117 65.6724 45.5696 61.9171 45.5696C58.1619 45.5696 55.1387 48.4117 55.1387 51.9419C55.1387 55.4721 58.1778 58.3291 61.9171 58.3291Z" fill="white"/>
</svg>
