<svg width="156" height="78" viewBox="0 0 156 78" fill="none" xmlns="http://www.w3.org/2000/svg">
<path d="M141.741 8.933C132.38 1.75928 121.155 0.97467 116.773 0.97467C114.461 0.97467 112.317 1.18017 110.75 1.53512L110.135 1.66589C104.206 3.02965 94.2857 5.2901 82.725 19.2078L82.3893 19.6188C82.2029 19.8804 82.1096 20.1606 82.1096 20.4595C82.1096 20.721 82.1842 20.9639 82.3147 21.2068L82.5758 21.6178C84.4777 24.7189 86.0627 27.409 87.3306 29.6882C87.7781 30.5289 88.9901 30.8091 89.7919 30.0245C89.8665 29.9124 89.9597 29.819 90.0157 29.7256C99.9915 16.3309 107.823 14.5562 112.988 13.3605L113.622 13.2111C114.331 13.043 115.487 12.9495 116.792 12.9495C119.197 12.9495 127.551 13.3418 134.077 18.3298C139.876 22.776 142.822 29.875 142.822 39.44C142.822 55.45 134.842 61.7084 128.129 64.137C125.574 65.071 122.815 65.5381 119.943 65.5381C113.044 65.5381 107.73 62.8666 107.655 62.8293L107.17 62.6051C101.409 60.1765 92.794 55.1138 84.6642 39.2532C67.9943 6.74728 53.9723 3.66481 44.705 1.62852L44.2202 1.51644C43.5117 1.36698 41.4978 0.993356 38.2347 0.993356C32.8646 0.993356 22.5345 2.02083 13.6775 8.87696C7.63606 13.566 0.419922 22.6453 0.419922 39.3839C0.419922 49.584 2.58291 56.3094 8.12088 63.3897C9.16507 64.7722 18.8239 76.8778 37.377 76.8778C40.118 76.8778 42.9709 76.5976 45.8425 76.0745C49.2361 75.4393 54.4571 73.814 60.2934 69.6667L65.1787 73.9448C65.7195 74.4305 66.6704 74.3745 67.1552 73.8514C67.3976 73.6085 67.5095 73.2722 67.5095 72.9547L71.2761 50.3873V50.1258C71.2761 49.7335 71.1083 49.3785 70.8286 49.1357C70.5862 48.9115 70.2878 48.7247 69.8403 48.7807L47.2036 54.8522L46.7748 54.927C46.4951 54.983 46.234 55.1325 46.0476 55.338C45.7865 55.6182 45.656 55.9545 45.6746 56.3281C45.6933 56.7017 45.8611 57.038 46.1408 57.2622L50.821 61.3721C48.3597 62.8479 45.8984 63.8194 43.493 64.2677C41.4606 64.6414 39.4281 64.8282 37.4889 64.8282C24.6602 64.8282 18.3577 56.6643 18.0967 56.3094L17.9662 56.1413C14.0691 51.172 12.7452 46.9313 12.7452 39.3652C12.7452 29.7816 15.6354 22.6639 21.3411 18.2551C27.6809 13.3419 35.848 12.9495 38.1974 12.9495C39.484 12.9495 40.6588 13.043 41.4046 13.2111L41.9081 13.3232C49.3107 14.9485 59.4543 17.1716 73.5137 44.5774C80.9349 59.0556 90.2394 68.5085 101.949 73.4964C103.311 74.169 110.564 77.5316 119.869 77.5316C124.213 77.5316 128.427 76.8031 132.38 75.3833C139.223 72.8986 155.129 64.4359 155.129 39.4213C155.129 22.7013 147.801 13.5847 141.666 8.87696L141.741 8.933Z" fill="white"/>
</svg>
