<svg width="100" height="107" viewBox="0 0 100 107" fill="none" xmlns="http://www.w3.org/2000/svg">
<path d="M90.1515 25.3503L69.2875 45.4724C68.4969 46.2737 68.1016 46.8524 68.1016 48.4996V104.874C68.1016 105.542 68.6287 106.076 69.2875 106.076H90.8397C91.4985 106.076 92.0256 105.527 92.0256 104.874V25.8697C92.0256 25.2019 91.5132 23.9851 90.1515 25.3651V25.3503Z" fill="white"/>
<path d="M29.5421 51.6655L8.67814 71.7473C7.8875 72.5471 7.49219 73.1246 7.49219 74.7537V104.876C7.49219 105.528 8.03392 106.076 8.67814 106.076H30.2303C30.8892 106.076 31.4162 105.528 31.4162 104.876V52.1839C31.4162 51.5174 30.9038 50.3031 29.5421 51.6803V51.6655Z" fill="white"/>
<path d="M99.9852 0.649334C99.9852 0.486473 99.9408 0.323605 99.8077 0.190355C99.7042 0.0867158 99.5563 0.0275009 99.4232 0.0126953H99.3049L99.1274 0.0274927L82.9935 3.66966L82.6978 3.69927C82.5794 3.72888 82.4759 3.78811 82.3872 3.86214C82.1506 4.09902 82.1506 4.48396 82.3872 4.73566L86.2617 8.59991L49.6905 45.214L32.8024 28.3061C32.6101 28.1136 32.3144 28.1136 32.1221 28.3061L27.5378 32.8958L0.460591 59.99C0.268345 60.1824 0.268345 60.4934 0.460591 60.671L5.04493 65.2607C5.23718 65.4532 5.53294 65.4532 5.72519 65.2607L32.4622 38.5071L44.7217 50.7809C44.7217 50.7809 44.7365 50.8253 44.766 50.8401L49.3504 55.4299C49.5426 55.6223 49.8532 55.6223 50.0454 55.4299L91.5411 13.8855L95.4156 17.7645C95.6522 18.0014 96.0367 18.0014 96.2733 17.7645C96.3916 17.6461 96.436 17.5128 96.4508 17.3648V17.3204L100 0.826994V0.649334H99.9852Z" fill="white"/>
<path d="M60.4608 54.9878L50.0215 65.3274C49.8248 65.4911 49.5373 65.4762 49.3558 65.2977L39.8999 55.8209C38.1751 54.1249 37.7969 55.5085 37.7969 56.1631V104.871C37.7969 105.54 38.3415 106.076 39.0224 106.076H61.2929C61.9737 106.076 62.5184 105.54 62.5184 104.871V55.3449C62.5184 54.6754 61.9889 53.4555 60.4608 54.9581V54.9878Z" fill="white"/>
</svg>
