<svg width="100" height="99" viewBox="0 0 100 99" fill="none" xmlns="http://www.w3.org/2000/svg">
<rect x="1.99162" y="1.68303" width="96.0847" height="96.0847" rx="48.0423" stroke="#E280CC" stroke-width="2.46371"/>
<path d="M27.8203 71.9993L30.9115 60.7741C29.0004 57.4793 27.9978 53.748 28.0083 49.9335C28.0083 37.9808 37.7832 28.2627 49.7826 28.2627C55.61 28.2627 61.0823 30.5181 65.1865 34.6132C69.3011 38.7083 71.5673 44.1546 71.5569 49.9439C71.5569 61.8967 61.782 71.6147 49.7722 71.6147H49.7617C46.117 71.6147 42.5349 70.7001 39.3497 68.9748L27.8203 71.9993ZM39.9032 65.0563L40.5612 65.4513C43.3391 67.0935 46.5243 67.9562 49.7722 67.9666H49.7826C59.756 67.9666 67.8808 59.8907 67.8808 49.9543C67.8808 45.142 66.0011 40.6208 62.5861 37.2117C59.1711 33.8025 54.6178 31.9317 49.7826 31.9317C39.8092 31.9213 31.6843 39.9972 31.6843 49.9335C31.6843 53.3323 32.6347 56.6478 34.4518 59.5165L34.88 60.2025L33.0524 66.8441L39.9032 65.0563Z" fill="#E280CC"/>
<path d="M27.8203 71.9993L30.9115 60.7741C29.0004 57.4793 27.9978 53.748 28.0083 49.9335C28.0083 37.9808 37.7832 28.2627 49.7826 28.2627C55.61 28.2627 61.0823 30.5181 65.1865 34.6132C69.3011 38.7083 71.5673 44.1546 71.5569 49.9439C71.5569 61.8967 61.782 71.6147 49.7722 71.6147H49.7617C46.117 71.6147 42.5349 70.7001 39.3497 68.9748L27.8203 71.9993ZM39.9032 65.0563L40.5612 65.4513C43.3391 67.0935 46.5243 67.9562 49.7722 67.9666H49.7826C59.756 67.9666 67.8808 59.8907 67.8808 49.9543C67.8808 45.142 66.0011 40.6208 62.5861 37.2117C59.1711 33.8025 54.6178 31.9317 49.7826 31.9317C39.8092 31.9213 31.6843 39.9972 31.6843 49.9335C31.6843 53.3323 32.6347 56.6478 34.4518 59.5165L34.88 60.2025L33.0524 66.8441L39.9032 65.0563Z" fill="#E280CC"/>
<path fill-rule="evenodd" clip-rule="evenodd" d="M44.3431 40.8701C43.9358 39.9659 43.5076 39.9451 43.1212 39.9347C42.8079 39.9243 42.4424 39.9243 42.0769 39.9243C41.7114 39.9243 41.1266 40.0594 40.6253 40.5999C40.124 41.1404 38.7246 42.45 38.7246 45.1212C38.7246 47.7819 40.6775 50.3596 40.949 50.7234C41.2206 51.0871 44.7191 56.7309 50.2436 58.9032C54.8386 60.7117 55.7785 60.3479 56.7706 60.2544C57.7628 60.1608 59.9872 58.9448 60.4467 57.6767C60.8958 56.4087 60.8958 55.3278 60.76 55.0991C60.6242 54.8704 60.2587 54.7353 59.7157 54.4651C59.1726 54.1948 56.4991 52.8852 55.9978 52.6982C55.4966 52.5215 55.131 52.4279 54.776 52.9684C54.4105 53.5089 53.3661 54.7249 53.0528 55.0887C52.7395 55.4525 52.4158 55.4941 51.8727 55.2238C51.3297 54.9536 49.5752 54.3819 47.497 52.5319C45.8783 51.0975 44.7817 49.3202 44.4684 48.7797C44.1551 48.2393 44.4371 47.9482 44.7086 47.678C44.9488 47.439 45.2517 47.044 45.5232 46.7322C45.7947 46.4204 45.8887 46.1917 46.0663 45.8279C46.2438 45.4642 46.1602 45.1523 46.0245 44.8821C45.8887 44.6223 44.8235 41.9407 44.3431 40.8701Z" fill="#E280CC"/>
</svg>
