<svg width="100" height="99" viewBox="0 0 100 99" fill="none" xmlns="http://www.w3.org/2000/svg">
<rect x="2.08732" y="1.68303" width="96.0847" height="96.0847" rx="48.0423" stroke="#E280CC" stroke-width="2.46371"/>
<path d="M50.3874 41.7978C54.6315 41.7978 58.1346 45.3009 58.1346 49.545C58.1346 53.8565 54.6315 57.2922 50.3874 57.2922C46.0759 57.2922 42.6402 53.8565 42.6402 49.545C42.6402 45.3009 46.0759 41.7978 50.3874 41.7978ZM50.3874 54.5975C53.1494 54.5975 55.3725 52.3744 55.3725 49.545C55.3725 46.783 53.1494 44.5599 50.3874 44.5599C47.558 44.5599 45.3348 46.783 45.3348 49.545C45.3348 52.3744 47.6253 54.5975 50.3874 54.5975ZM60.223 41.5283C60.223 42.5388 59.4146 43.3472 58.4041 43.3472C57.3935 43.3472 56.5851 42.5388 56.5851 41.5283C56.5851 40.5178 57.3935 39.7094 58.4041 39.7094C59.4146 39.7094 60.223 40.5178 60.223 41.5283ZM65.3429 43.3472C65.4776 45.8398 65.4776 53.3176 65.3429 55.8102C65.2081 58.2354 64.6692 60.3237 62.9176 62.1427C61.1661 63.8942 59.0104 64.4331 56.5851 64.5679C54.0926 64.7026 46.6148 64.7026 44.1222 64.5679C41.697 64.4331 39.6086 63.8942 37.7897 62.1427C36.0382 60.3237 35.4993 58.2354 35.3645 55.8102C35.2298 53.3176 35.2298 45.8398 35.3645 43.3472C35.4993 40.922 36.0382 38.7663 37.7897 37.0147C39.6086 35.2632 41.697 34.7243 44.1222 34.5895C46.6148 34.4548 54.0926 34.4548 56.5851 34.5895C59.0104 34.7243 61.1661 35.2632 62.9176 37.0147C64.6692 38.7663 65.2081 40.922 65.3429 43.3472ZM62.1092 58.4375C62.9176 56.4838 62.7155 51.7681 62.7155 49.545C62.7155 47.3893 62.9176 42.6736 62.1092 40.6526C61.5703 39.3726 60.5598 38.2947 59.2798 37.8232C57.2588 37.0147 52.5431 37.2168 50.3874 37.2168C48.1643 37.2168 43.4486 37.0147 41.4949 37.8232C40.1476 38.3621 39.1371 39.3726 38.5981 40.6526C37.7897 42.6736 37.9918 47.3893 37.9918 49.545C37.9918 51.7681 37.7897 56.4838 38.5981 58.4375C39.1371 59.7848 40.1476 60.7953 41.4949 61.3343C43.4486 62.1427 48.1643 61.9406 50.3874 61.9406C52.5431 61.9406 57.2588 62.1427 59.2798 61.3343C60.5598 60.7953 61.6377 59.7848 62.1092 58.4375Z" fill="#E280CC"/>
</svg>
