<svg width="1448" height="19" viewBox="0 0 1448 19" fill="none" xmlns="http://www.w3.org/2000/svg">
<g clip-path="url(#clip0_2558_2557)">
<path d="M1248.85 18.8752L1447.95 18.8752V3.62396e-05L1248.85 3.62396e-05V18.8752Z" fill="#754B99"/>
<path d="M1040.73 18.8752L1239.82 18.8752V3.62396e-05L1040.73 3.62396e-05V18.8752Z" fill="#323790"/>
<path d="M832.603 18.8752L1031.7 18.8752V3.62396e-05L832.603 3.62396e-05V18.8752Z" fill="#6EC0E8"/>
<path d="M624.478 18.8752L823.574 18.8752V3.62396e-05L624.478 3.62396e-05V18.8752Z" fill="#76B552"/>
<path d="M416.3 18.8752L615.396 18.8752V3.62396e-05L416.3 3.62396e-05V18.8752Z" fill="#F1C631"/>
<path d="M208.177 18.8752L407.273 18.8752V3.62396e-05L208.177 3.62396e-05V18.8752Z" fill="#DB7F2D"/>
<path d="M0.00163269 18.8752L199.098 18.8752V3.62396e-05L0.00163269 3.62396e-05V18.8752Z" fill="#CC2229"/>
</g>
<defs>
<clipPath id="clip0_2558_2557">
<rect width="1448" height="18.8752" fill="white"/>
</clipPath>
</defs>
</svg>
