<svg width="282" height="88" viewBox="0 0 282 88" fill="none" xmlns="http://www.w3.org/2000/svg">
<g clip-path="url(#clip0_2405_462)">
<path d="M44.8709 38.18C43.9809 39.88 43.1009 41.58 42.2109 43.28C42.0709 43.54 41.8709 43.54 41.5909 43.41C38.4609 42.04 35.1009 41.96 31.7809 41.74C25.6809 41.34 19.5809 41.37 13.5009 42.13C11.5909 42.37 9.62094 42.45 7.88094 43.43C7.40094 43.7 7.31094 43.34 7.16094 43.07C6.14094 41.16 5.13094 39.24 3.96094 37.04C5.78094 38.6 7.40094 39.9 8.91094 41.32C9.76094 42.11 10.0409 41.89 10.4009 40.93C11.4809 38.13 12.6409 35.36 13.8109 32.46C16.1209 34.97 18.3509 37.4 20.5809 39.82C22.0009 41.36 21.9909 41.36 22.9009 39.52C23.4609 38.39 24.0809 37.29 24.7509 36.04C25.5309 37.54 26.2509 38.89 26.9209 40.25C27.3309 41.1 27.6909 41.14 28.3409 40.42C30.7109 37.79 33.1309 35.2 35.6509 32.47C36.7809 35.25 37.8709 37.93 38.9509 40.61C39.6109 42.23 39.6109 42.24 40.9709 41.07C42.1709 40.03 43.3609 38.97 44.5509 37.93C44.6609 38.02 44.7609 38.11 44.8709 38.19V38.18Z" fill="white"/>
<path d="M21.3912 37.8999C18.5712 34.9199 15.8412 32.0499 13.1312 29.1699C12.4212 28.4199 11.7012 27.6799 11.0212 26.8999C10.3612 26.1399 10.0312 26.4199 9.78121 27.2199C9.13121 29.3399 8.48121 31.4599 7.81121 33.6199C6.80121 33.1699 6.60121 32.5499 6.91121 31.4999C7.74121 28.7099 8.44121 25.8799 9.24121 22.8699C11.2512 24.9799 13.1412 26.9599 15.0212 28.9499C16.7512 30.7799 18.4912 32.5999 20.1912 34.4599C20.8312 35.1599 21.2112 35.2699 21.6912 34.3099C22.6412 32.3999 23.6812 30.5399 24.7312 28.5599C25.7912 30.5199 26.8512 32.3299 27.7612 34.2099C28.3012 35.3299 28.6512 35.1499 29.3812 34.3699C32.9412 30.5399 36.5612 26.7499 40.2412 22.8699C41.0912 26.0299 41.8912 29.0899 42.7312 32.1399C42.9412 32.8999 42.3712 33.2199 41.9612 33.5299C41.5812 33.8099 41.5912 33.3199 41.5112 33.0699C40.9312 31.1799 40.3512 29.2899 39.7412 27.4099C39.3512 26.1999 39.2012 26.1699 38.3512 27.0799C35.2012 30.4099 32.0312 33.7199 28.9412 37.0999C28.1512 37.9599 27.8912 37.6999 27.4812 36.8699C26.8212 35.5399 26.0912 34.2499 25.3812 32.9499C25.2312 32.6699 25.1312 32.2899 24.7112 32.3199C24.3012 32.3399 24.2312 32.7199 24.0812 32.9999C23.2012 34.6199 22.3212 36.2399 21.3912 37.9299V37.8999Z" fill="white"/>
<path d="M24.7384 21.45C26.3984 24.49 27.9484 27.39 29.5484 30.26C29.9484 30.98 29.3784 31.2899 29.0084 31.5499C28.4684 31.9399 28.4584 31.27 28.3184 31.02C27.3184 29.27 26.3484 27.51 25.3684 25.75C24.9384 24.97 24.5684 24.9 24.1084 25.76C23.1684 27.54 22.1784 29.2999 21.1784 31.0499C21.0384 31.2999 21.0184 31.98 20.4784 31.54C20.1284 31.26 19.5284 31.01 19.9484 30.26C21.5484 27.39 23.0884 24.49 24.7384 21.45Z" fill="white"/>
<path d="M41.7787 45.08C30.4087 42.68 19.0787 42.68 7.71875 45.08C8.08875 44.46 8.83875 44.35 9.49875 44.16C12.4088 43.33 15.4088 43.07 18.4188 42.94C23.8188 42.71 29.2188 42.68 34.6088 43.22C36.6988 43.43 38.7887 43.66 40.7687 44.43C41.1587 44.58 41.6488 44.64 41.7687 45.09L41.7787 45.08Z" fill="white"/>
<path d="M25.4814 47.3398C29.7414 47.4398 34.5814 47.4798 39.3414 48.4198C40.0214 48.5498 40.6714 48.8598 41.3114 49.1198C41.5114 49.1998 41.8414 49.3598 41.6814 49.6498C41.4714 50.0198 41.0914 50.2398 40.6414 50.1798C39.9314 50.0798 40.6414 49.8598 40.6114 49.6998C40.5314 49.0598 39.9914 49.0198 39.5314 48.9298C37.3414 48.5098 35.1214 48.3198 32.8914 48.1998C25.6714 47.7898 18.4514 47.8198 11.2614 48.7098C10.7314 48.7798 10.2014 48.8598 9.67142 48.9698C9.31142 49.0498 8.94142 49.1698 8.85142 49.6098C8.81142 49.8198 9.23142 50.2198 8.63142 50.1698C8.31142 50.1398 7.94142 49.9898 7.82142 49.6798C7.63142 49.2298 8.10142 49.1398 8.36142 49.0098C10.1814 48.1098 12.1914 48.0398 14.1514 47.8298C17.7214 47.4498 21.3114 47.3398 25.4714 47.3398H25.4814Z" fill="white"/>
<path d="M0 29.29C2.44 31.5 4.88 33.71 7.32 35.92C8.62 37.1 8.68 37.08 9.27 35.39C9.8 33.88 10.31 32.35 10.89 30.85C11 30.56 10.84 29.78 11.47 30.07C11.88 30.26 12.42 30.69 12.11 31.46C11.32 33.4 10.61 35.38 9.87 37.34C9.74 37.69 9.6 38.03 9.49 38.39C9.34 38.87 9.16 38.97 8.73 38.58C6.32 36.38 3.89 34.22 1.47 32.03C0.69 31.32 0.48 30.25 0 29.28L0 29.29Z" fill="white"/>
<path d="M40.2619 39.0099C39.2519 36.3799 38.3419 33.92 37.3619 31.4799C37.0119 30.6099 37.8319 30.48 38.2919 29.95C38.8719 31.59 39.4519 33.2299 40.0219 34.8699C40.1019 35.0999 40.1719 35.34 40.2619 35.57C40.7719 36.9999 40.8719 37.03 42.0219 36C44.0219 34.21 46.0119 32.41 48.0119 30.62C48.2619 30.39 48.4319 29.9699 48.9819 30.1299C48.9119 30.9999 48.4419 31.64 47.8219 32.2C45.3419 34.44 42.8619 36.6699 40.2619 39.0099Z" fill="white"/>
<path d="M7.71094 47.8299C7.80094 47.3599 8.35094 47.2999 8.76094 47.1499C11.0309 46.3199 13.4109 46.0899 15.8009 45.8499C20.0409 45.4199 24.3009 45.4999 28.5409 45.6499C32.5709 45.7999 36.6809 45.6699 40.5809 47.0899C41.0709 47.2699 41.5909 47.3699 41.8009 47.8299C30.4309 45.4699 19.0909 45.4399 7.71094 47.8299Z" fill="white"/>
<path d="M41.2114 54.58C41.2814 54.65 41.2814 54.79 41.2114 55C41.1414 55.22 41.0314 55.46 40.8614 55.72C39.4714 58.33 38.1414 60.95 36.8714 63.58C35.6014 66.21 34.3114 68.86 33.0214 71.54L29.1514 79.48L27.1714 83.45L26.1314 85.38L25.3914 86.87L25.2914 87.02V87.07C25.2914 87.07 25.2414 87.1 25.2414 87.17C25.1714 87.24 25.0914 87.32 24.9914 87.42C24.8914 87.52 24.7614 87.6 24.5914 87.67C24.4914 87.74 24.3114 87.77 24.0414 87.77C23.8414 87.7 23.6814 87.64 23.5414 87.57C23.4114 87.44 23.3214 87.34 23.2914 87.27C23.1914 87.17 23.1414 87.09 23.1414 87.02L22.4014 85.53L21.4614 83.55L7.92141 55.77C7.82141 55.54 7.74141 55.32 7.67141 55.12C7.60141 54.92 7.59141 54.77 7.62141 54.67C7.69141 54.6 7.72141 54.55 7.72141 54.52C7.79141 54.45 7.94141 54.35 8.19141 54.22C8.44141 54.09 8.63141 54.05 8.76141 54.12C8.83141 54.15 8.88141 54.2 8.93141 54.27C8.98141 54.34 9.04141 54.4 9.10141 54.47C9.10141 54.5 9.13141 54.59 9.20141 54.72C9.27141 54.85 9.33141 54.95 9.40141 55.02L22.9414 82.8L23.8814 84.83L24.2314 85.47L24.6814 84.63L25.6714 82.7L27.6514 78.73L31.5214 70.79C32.8114 68.14 34.1014 65.5 35.3914 62.85C36.6814 60.2 38.0214 57.57 39.4114 54.96C39.5414 54.7 39.6814 54.46 39.8314 54.27C39.9814 54.07 40.1014 53.99 40.2014 54.02C40.5614 54.19 40.8914 54.37 41.1914 54.57L41.2114 54.58ZM13.5814 56.26C13.4814 56.16 13.5014 56.08 13.6314 56.01L13.7814 55.91L14.7714 55.41H14.9214C14.9214 55.41 14.9414 55.46 14.9714 55.46L15.0214 55.51L16.5614 58.49L17.3514 59.98L17.4514 60.13L17.5514 59.93L18.2914 58.49L19.8814 55.51C19.9514 55.38 20.0614 55.34 20.2314 55.41L21.2214 55.96C21.3914 56.06 21.4214 56.16 21.3214 56.26L19.7814 59.24L18.5914 61.47L18.3414 61.87L18.2414 62.02L18.1414 62.22C18.0714 62.35 17.9414 62.47 17.7414 62.57C17.6414 62.6 17.5114 62.62 17.3414 62.62C17.2114 62.62 17.0714 62.59 16.9414 62.52L16.6914 62.32C16.6914 62.32 16.6714 62.25 16.6414 62.22L16.5914 62.17V62.12L16.5414 62.07L16.2414 61.47L15.8914 60.73L15.1014 59.24L13.5614 56.26H13.5814ZM18.5914 68.17C19.0214 67.41 19.4314 66.64 19.8314 65.86C20.2314 65.08 20.6214 64.3 21.0214 63.5L22.2614 61.22L22.9114 60.03L23.2114 59.48L23.4614 59.03L23.5114 58.93C23.6414 58.76 23.8114 58.63 24.0114 58.53C24.0814 58.5 24.2114 58.48 24.4114 58.48C24.5814 58.48 24.7114 58.53 24.8114 58.63L25.0614 58.83L25.1114 58.93L25.1614 58.98L25.2614 59.13L25.7114 60.02L26.3114 61.16L27.5014 63.49L29.9314 68.15C30.0014 68.32 29.9814 68.43 29.8814 68.5L29.7814 68.6C29.7114 68.67 29.5514 68.77 29.2814 68.9C29.0114 69.03 28.8514 69.1 28.7814 69.1C28.6814 69.1 28.6114 69.08 28.5814 69.05C28.5514 69.05 28.5314 69.03 28.5314 69C28.5014 68.97 28.4814 68.93 28.4814 68.9L26.0514 64.24L24.8614 61.96L24.3114 60.92L23.7114 61.96L22.5214 64.29L20.0414 68.9C19.9714 69.13 19.8414 69.2 19.6414 69.1C19.4714 69.03 19.3214 68.95 19.1714 68.85C19.0214 68.75 18.8614 68.65 18.7014 68.55C18.5014 68.45 18.4714 68.32 18.6014 68.15L18.5914 68.17ZM20.6714 73.58C20.5014 73.45 20.4514 73.35 20.5214 73.28L22.0114 70.35L22.7514 68.91L23.1514 68.17L23.3514 67.82L23.4514 67.62L23.5014 67.57V67.47C23.5714 67.4 23.6214 67.35 23.6714 67.3C23.7214 67.25 23.8114 67.19 23.9414 67.13C24.1414 67.06 24.2914 67.03 24.3914 67.03L24.7414 67.18L24.9914 67.38C24.9914 67.38 25.0114 67.45 25.0414 67.48L25.0914 67.53L25.2414 67.83L25.3914 68.18L25.7914 68.92L26.4814 70.36L27.9714 73.29C28.0014 73.36 27.9714 73.44 27.8714 73.54L27.7714 73.64L26.7814 74.14C26.6814 74.14 26.6114 74.12 26.5814 74.09L26.5314 74.04L25.0414 71.11L24.3014 69.67L24.2514 69.57L24.2014 69.67L23.4614 71.11C23.1914 71.61 22.9514 72.09 22.7214 72.57C22.4914 73.05 22.2414 73.54 21.9814 74.03C21.9814 74.2 21.8614 74.21 21.6314 74.08C21.4614 74.01 21.3114 73.94 21.1614 73.86C21.0114 73.78 20.8514 73.69 20.6914 73.59L20.6714 73.58ZM27.4214 56.26C27.3214 56.16 27.3514 56.08 27.5214 56.01L27.6214 55.91L28.6114 55.41H28.8114L28.9114 55.51L30.4514 58.49L31.2414 59.98L31.2914 60.13L31.3914 59.93L32.1814 58.49C32.4414 57.99 32.7114 57.5 32.9714 57C33.2314 56.5 33.5014 56.01 33.7614 55.51C33.8314 55.38 33.9414 55.34 34.1114 55.41L35.0514 55.96C35.2214 56.09 35.2614 56.19 35.2014 56.26L33.6114 59.24L32.4214 61.47L32.2214 61.87L32.1214 62.02L32.0214 62.22C31.9514 62.35 31.8014 62.47 31.5714 62.57C31.5014 62.6 31.3714 62.62 31.1714 62.62C31.0714 62.62 30.9514 62.59 30.8214 62.52L30.5714 62.32C30.5714 62.32 30.5214 62.25 30.5214 62.22L30.4714 62.17V62.12L30.4214 62.07L30.1214 61.47L29.7214 60.73L28.9814 59.24L27.3914 56.26H27.4214Z" fill="white"/>
<path d="M69.0014 86.13C69.1014 86.33 69.1814 86.53 69.2514 86.73C69.3214 86.93 69.3314 87.08 69.3014 87.18C69.2314 87.25 69.2014 87.3 69.2014 87.33C69.1314 87.4 68.9714 87.5 68.7014 87.63C68.4314 87.76 68.2514 87.8 68.1514 87.73L67.8014 87.33L67.7014 87.13C67.6714 87.06 67.6314 87.01 67.6014 86.98C67.5714 86.95 67.5314 86.9 67.5014 86.83L62.0914 75.02H56.8814L55.3914 78.2L54.3514 80.43L54.1014 80.93L53.0114 80.88L52.8114 80.38C52.5814 79.85 52.3514 79.34 52.1214 78.84C51.8914 78.34 51.6614 77.86 51.4314 77.4C51.2614 77.04 51.0814 76.66 50.8814 76.26C50.6814 75.86 50.5014 75.45 50.3314 75.02H44.8214C43.8914 77 42.9714 78.98 42.0414 80.95C41.1114 82.92 40.1714 84.89 39.2114 86.88C39.0814 87.15 38.9414 87.38 38.7914 87.57C38.6414 87.77 38.5214 87.85 38.4214 87.82L37.4314 87.32C37.3614 87.25 37.3614 87.11 37.4314 86.87C37.5014 86.64 37.6014 86.39 37.7314 86.13C39.0214 83.52 40.2814 80.9 41.5014 78.29C42.7214 75.68 43.9514 73.03 45.1714 70.35C45.7714 69.03 46.3714 67.71 46.9814 66.41C47.5914 65.1 48.2114 63.79 48.8414 62.47C49.1414 61.81 49.4414 61.15 49.7614 60.49C50.0714 59.83 50.4014 59.17 50.7314 58.51L51.6714 56.57L52.4114 55.08L52.4614 54.93L52.5114 54.88L52.5614 54.78L52.7614 54.53C52.8914 54.4 53.0214 54.3 53.1614 54.23C53.3914 54.16 53.5914 54.15 53.7614 54.18C53.8914 54.21 54.0614 54.3 54.2614 54.43C54.3914 54.56 54.4714 54.66 54.5114 54.73L54.6114 54.88V54.93L54.8614 55.43L55.3114 56.42L58.0414 62.37L61.7114 70.26L69.0014 86.14V86.13ZM51.2314 83.9C51.3014 84.03 51.3514 84.17 51.3814 84.32C51.4114 84.47 51.4014 84.58 51.3314 84.64L51.2314 84.74C51.1614 84.81 51.0114 84.91 50.7614 85.04C50.5114 85.17 50.3414 85.22 50.2414 85.19C50.1114 85.12 50.0214 85.04 49.9914 84.94L49.8914 84.84C49.7914 84.74 49.7414 84.66 49.7414 84.59L48.3014 81.71L47.6114 80.27L47.5614 80.22V80.32L46.8214 81.71L45.3814 84.64C45.2814 84.81 45.1714 84.96 45.0614 85.11C44.9414 85.26 44.8414 85.3 44.7414 85.23C44.5714 85.16 44.4214 85.08 44.2714 84.98C44.1214 84.88 43.9614 84.8 43.8014 84.73C43.7314 84.66 43.7214 84.55 43.7514 84.38C43.7814 84.21 43.8314 84.05 43.9014 83.88L46.0814 79.51L46.6814 78.47L46.7314 78.27L46.7814 78.17H46.8314V78.12C46.9614 77.92 47.1114 77.79 47.2814 77.72C47.3514 77.69 47.4614 77.67 47.6314 77.67C47.7614 77.67 47.8914 77.7 48.0314 77.77C48.1314 77.84 48.2014 77.89 48.2514 77.94C48.3014 77.99 48.3614 78.05 48.4214 78.11L48.5214 78.41L48.7214 78.81L49.8114 80.94L51.2514 83.87L51.2314 83.9ZM61.3114 73.38L60.2214 71L53.8214 57.16L53.5214 56.56L53.1714 57.3L52.2314 59.29C51.9014 59.95 51.5814 60.6 51.2614 61.25C50.9514 61.89 50.6414 62.55 50.3414 63.21L46.6714 71.1L45.6314 73.38H50.2414C50.5014 72.82 50.7614 72.27 51.0114 71.74C51.2614 71.21 51.5114 70.67 51.7814 70.1L52.8214 67.87L53.0214 67.37H54.1614L54.3614 67.92C54.5914 68.45 54.8114 68.95 55.0314 69.43C55.2414 69.91 55.4714 70.38 55.7014 70.84L56.8914 73.37H61.3114V73.38ZM55.4014 74.13L54.2114 71.55C54.1114 71.32 54.0014 71.1 53.8914 70.88C53.7714 70.67 53.6714 70.43 53.5714 70.16L53.2714 70.76C53.0014 71.32 52.7514 71.87 52.5014 72.4C52.2514 72.93 52.0014 73.48 51.7314 74.04C51.9314 74.5 52.1314 74.96 52.3514 75.4C52.5614 75.85 52.7714 76.29 52.9714 76.71C53.0714 76.94 53.1714 77.17 53.2714 77.38C53.3714 77.6 53.4814 77.82 53.6214 78.05L53.8714 77.45C54.1314 76.92 54.3914 76.39 54.6414 75.86C54.8914 75.33 55.1414 74.79 55.4114 74.22V74.12L55.4014 74.13ZM63.0914 83.85C63.1614 84.02 63.2114 84.16 63.2614 84.3C63.3114 84.43 63.3014 84.53 63.2414 84.6L63.1414 84.75C63.0714 84.82 62.9214 84.92 62.6714 85.05C62.4214 85.18 62.2514 85.23 62.1514 85.2C62.0214 85.13 61.9214 85.05 61.8514 84.95L61.7514 84.85C61.6814 84.78 61.6514 84.7 61.6514 84.6L60.1614 81.72L59.4714 80.28L59.4214 80.23L59.3714 80.33L57.1414 84.65C57.0714 84.82 56.9814 84.97 56.8714 85.12C56.7514 85.27 56.6514 85.31 56.5514 85.24L55.5614 84.74C55.4914 84.67 55.4814 84.56 55.5114 84.39C55.5414 84.22 55.6114 84.06 55.7114 83.89L57.2014 81.01L58.2914 78.83L58.4914 78.48L58.6914 78.08C58.7614 77.95 58.8914 77.83 59.0914 77.73C59.1614 77.7 59.2914 77.68 59.4914 77.68C59.5914 77.68 59.7014 77.71 59.8414 77.78C60.0414 77.85 60.1714 77.96 60.2414 78.13L60.2914 78.28L60.3914 78.43L60.5914 78.78L60.9414 79.52L61.6814 80.96L63.1214 83.84L63.0914 83.85Z" fill="white"/>
<path d="M73.0197 76.76C72.9197 76.69 72.7597 76.58 72.5497 76.41C72.3297 76.24 72.2097 76.11 72.1797 76.01C72.1797 75.88 72.2097 75.76 72.2797 75.66C72.2797 75.63 72.2997 75.59 72.3297 75.56C72.3597 75.53 72.3897 75.49 72.3997 75.46C72.4197 75.43 72.4397 75.39 72.4697 75.36L75.7897 71.24L72.4697 67.12C72.3397 66.95 72.2397 66.8 72.1697 66.65C72.0997 66.5 72.0997 66.39 72.1697 66.33C72.3397 66.2 72.4797 66.08 72.6197 65.98C72.7497 65.88 72.8997 65.78 73.0697 65.68C73.1397 65.61 73.2397 65.62 73.3697 65.7C73.4997 65.78 73.6197 65.91 73.7197 66.07L76.8997 69.94L80.0297 66.07C80.3297 65.71 80.5597 65.57 80.7197 65.67C80.8897 65.77 81.0297 65.87 81.1697 65.97C81.2997 66.07 81.4297 66.2 81.5697 66.37C81.6397 66.44 81.6397 66.54 81.5697 66.67C81.4997 66.8 81.4197 66.95 81.3197 67.12L77.9497 71.24L81.3197 75.36C81.3897 75.46 81.4497 75.58 81.5197 75.71C81.5897 75.84 81.5997 75.94 81.5697 76.01C81.5697 76.04 81.5697 76.07 81.5497 76.08C81.5297 76.1 81.5297 76.12 81.5297 76.15C81.4597 76.22 81.3197 76.34 81.1097 76.52C80.8897 76.7 80.7397 76.79 80.6397 76.79C80.5397 76.79 80.4397 76.74 80.3397 76.64C80.3097 76.64 80.2697 76.61 80.2197 76.54C80.1697 76.47 80.1097 76.42 80.0497 76.39L76.9197 72.52L73.7397 76.39C73.5397 76.65 73.3597 76.79 73.1897 76.79C73.1597 76.76 73.1097 76.74 73.0397 76.74L73.0197 76.76ZM76.5397 78.39L73.8597 81.86C73.7597 81.96 73.6597 82.05 73.5597 82.13C73.4597 82.21 73.3597 82.25 73.2597 82.25C73.2297 82.22 73.1797 82.2 73.1097 82.2C73.0097 82.13 72.8497 82.02 72.6397 81.85C72.4197 81.68 72.2997 81.55 72.2697 81.45C72.2697 81.38 72.2997 81.28 72.3697 81.15C72.3697 81.12 72.3897 81.07 72.4197 81C72.4497 80.97 72.4797 80.93 72.4897 80.9C72.5097 80.87 72.5297 80.83 72.5597 80.8L74.3497 78.47L75.2897 77.33L75.9297 76.44L76.1297 76.24V76.19L76.3297 76.04C76.4597 75.97 76.5397 75.94 76.5797 75.94C76.9397 75.81 77.2397 75.84 77.4697 76.04C77.5397 76.07 77.5797 76.11 77.5897 76.14C77.6097 76.17 77.6297 76.21 77.6597 76.24L77.7097 76.29L77.7597 76.39L78.0097 76.69L78.4597 77.29L79.2997 78.43L81.0897 80.81C81.1897 80.98 81.2597 81.13 81.3097 81.28C81.3597 81.43 81.3497 81.54 81.2897 81.6C81.1597 81.7 81.0197 81.81 80.8697 81.92C80.7197 82.04 80.5597 82.14 80.3997 82.24C80.3297 82.31 80.2297 82.29 80.0997 82.19C79.9697 82.09 79.8497 81.96 79.7497 81.79L78.0097 79.41L77.1197 78.27L76.8697 77.92L76.5197 78.37L76.5397 78.39ZM73.5097 62.81C73.1797 62.38 73.1797 61.93 73.5097 61.47L76.0397 58.34V54.57C76.0397 54.4 76.1097 54.32 76.2397 54.32C76.2697 54.29 76.3197 54.27 76.3897 54.27H76.9597C77.2397 54.27 77.4097 54.29 77.4797 54.32C77.5797 54.32 77.6297 54.35 77.6297 54.42V54.47C77.6297 54.47 77.6497 54.54 77.6797 54.57V58.34L80.2097 61.52C80.6097 61.92 80.6197 62.35 80.2597 62.81L77.7297 66.03C77.5297 66.33 77.2497 66.48 76.8897 66.48C76.5297 66.48 76.2497 66.33 76.0497 66.03L73.5197 62.81H73.5097ZM75.1497 62.17L76.8897 64.4L78.6297 62.17L76.8897 60.04L75.1497 62.17ZM97.9697 86.28C97.9997 86.68 97.9997 87.04 97.9697 87.37C97.9697 87.57 97.8397 87.67 97.5697 87.67H77.1297C76.6297 87.6 76.2997 87.36 76.1397 86.93L76.0397 86.58V81.32C76.0397 81.12 76.1097 80.99 76.2397 80.92C76.3097 80.92 76.3597 80.9 76.3897 80.87C76.4897 80.87 76.6797 80.87 76.9597 80.85C77.2397 80.83 77.4097 80.85 77.4797 80.92C77.5797 80.99 77.6297 81.05 77.6297 81.12V81.22C77.6297 81.22 77.6497 81.29 77.6797 81.32V86.03H97.5797C97.8397 85.96 97.9797 86.05 97.9797 86.28H97.9697Z" fill="white"/>
<path d="M129.332 86.03C129.632 86.33 129.762 86.56 129.732 86.72C129.732 86.79 129.712 86.84 129.682 86.87C129.612 86.97 129.492 87.12 129.312 87.32C129.132 87.52 128.972 87.62 128.842 87.62L128.542 87.47C128.542 87.47 128.462 87.44 128.392 87.37C128.322 87.3 128.262 87.24 128.192 87.17L124.372 83.3C122.812 84.69 121.122 85.73 119.282 86.43C117.442 87.12 115.552 87.47 113.602 87.47C111.652 87.47 109.682 87.09 107.702 86.33C106.112 85.67 104.682 84.81 103.412 83.75C102.142 82.69 101.052 81.44 100.162 79.98C98.342 77.14 97.482 74.01 97.582 70.6C97.652 68.29 98.172 66.08 99.142 64C100.122 61.92 101.452 60.11 103.132 58.59C104.822 57.1 106.722 56.01 108.842 55.32C110.962 54.63 113.172 54.38 115.492 54.58C117.802 54.78 119.942 55.42 121.892 56.49C123.842 57.57 125.512 59.03 126.902 60.88C128.322 62.8 129.272 64.91 129.752 67.21C130.232 69.51 130.222 71.85 129.732 74.23C129.172 76.71 128.092 78.98 126.502 81.03L125.562 82.17L129.332 86.04V86.03ZM108.322 84.74C110.872 85.77 113.472 86.03 116.102 85.53C118.732 85.03 121.092 83.88 123.182 82.06L118.572 77.35L118.472 77.25H118.122L117.222 77.2H115.432L111.852 77.1C111.422 77.1 111.152 77.04 111.052 76.91C111.022 76.88 111.002 76.83 111.002 76.77C110.932 76.67 110.912 76.49 110.922 76.22C110.942 75.95 110.982 75.78 111.042 75.72C111.112 75.66 111.162 75.62 111.212 75.62C111.262 75.62 111.322 75.6 111.382 75.57C111.412 75.57 111.492 75.57 111.602 75.55C111.722 75.53 111.812 75.53 111.872 75.53L115.402 75.58L117.192 75.63H118.092L118.142 75.68L118.192 75.48V74.59C118.222 74.29 118.242 73.99 118.242 73.7V72.86L118.292 69.29C118.292 69.06 118.312 68.85 118.362 68.67C118.412 68.49 118.482 68.4 118.582 68.4C118.782 68.37 118.972 68.36 119.152 68.38C119.332 68.4 119.512 68.42 119.672 68.45C119.772 68.45 119.842 68.54 119.872 68.72C119.902 68.9 119.922 69.11 119.922 69.34L119.872 72.86V73.75C119.872 74.05 119.852 74.35 119.822 74.64V75.53L119.772 75.97V76.31L124.332 80.89L125.172 79.95C126.592 78.07 127.552 76.03 128.052 73.85C128.512 71.77 128.522 69.68 128.072 67.6C127.622 65.52 126.772 63.63 125.512 61.94C124.292 60.25 122.802 58.93 121.042 57.97C119.292 57.01 117.362 56.43 115.282 56.23C115.052 56.23 114.822 56.23 114.612 56.21C114.392 56.19 114.172 56.19 113.942 56.19C112.122 56.19 110.372 56.5 108.722 57.13C107.062 57.76 105.542 58.69 104.142 59.91C102.612 61.27 101.422 62.88 100.562 64.75C99.702 66.62 99.232 68.6 99.172 70.68C99.102 72.27 99.282 73.77 99.692 75.2C100.102 76.62 100.712 77.95 101.512 79.19C102.312 80.43 103.282 81.52 104.422 82.46C105.562 83.4 106.852 84.17 108.282 84.77L108.322 84.74ZM109.282 69.81C108.982 69.74 108.682 69.69 108.362 69.64C108.052 69.59 107.722 69.53 107.392 69.47C106.992 69.37 106.752 69.16 106.652 68.83C106.522 68.4 106.382 67.99 106.252 67.59C106.122 67.19 105.972 66.81 105.802 66.45C105.672 66.09 105.532 65.71 105.402 65.33C105.272 64.95 105.122 64.56 104.952 64.16C104.852 63.83 104.922 63.52 105.152 63.22C105.382 62.92 105.682 62.82 106.042 62.92C106.542 62.99 107.032 63.07 107.532 63.17C108.032 63.27 108.522 63.37 109.022 63.47C109.352 63.54 109.662 63.59 109.962 63.64C110.262 63.69 110.572 63.75 110.902 63.81C111.232 63.84 111.482 64.06 111.642 64.46C111.772 64.86 111.902 65.25 112.042 65.65C112.172 66.05 112.322 66.43 112.492 66.79L113.232 68.97C113.402 69.33 113.352 69.68 113.082 70.01C112.852 70.24 112.582 70.36 112.292 70.36C112.192 70.36 112.122 70.34 112.092 70.31L109.262 69.81H109.282ZM108.142 67.87L109.582 68.17L111.322 68.47L110.922 67.38L110.182 65.35C109.912 65.32 109.682 65.28 109.462 65.25C109.242 65.22 109.002 65.17 108.742 65.1L107.002 64.75C107.072 64.95 107.132 65.14 107.202 65.32C107.272 65.5 107.332 65.68 107.402 65.84L108.142 67.87ZM109.882 73.63C109.522 73.57 109.302 73.49 109.242 73.39C109.242 73.36 109.242 73.33 109.222 73.32C109.202 73.3 109.202 73.28 109.202 73.25C109.172 73.15 109.152 72.97 109.152 72.7C109.152 72.43 109.182 72.26 109.252 72.19L109.552 72.05H109.702C109.802 72.05 109.882 72.03 109.952 72L114.272 72.1H114.872L114.922 71.41V69.97L114.972 67.09C114.972 66.66 115.072 66.41 115.282 66.35C115.482 66.35 115.682 66.35 115.872 66.37C116.062 66.39 116.242 66.39 116.412 66.39C116.652 66.46 116.732 66.7 116.672 67.13L116.622 70.01V71.45L116.572 72.19V72.86L116.472 73.2C116.372 73.39 116.212 73.54 116.012 73.63L115.652 73.73H115.342L114.982 73.68H112.802L109.922 73.63H109.882Z" fill="white"/>
<path d="M159.352 76.21V76.53C159.352 76.65 159.332 76.75 159.302 76.85C159.272 77.25 159.232 77.65 159.182 78.07C159.132 78.48 159.062 78.89 158.962 79.29C158.762 80.12 158.492 80.92 158.142 81.7C157.792 82.48 157.342 83.2 156.782 83.86C156.222 84.55 155.612 85.15 154.942 85.65C154.312 86.11 153.572 86.53 152.712 86.89C151.922 87.22 151.112 87.45 150.282 87.58C149.452 87.71 148.612 87.76 147.752 87.73C146.922 87.7 146.102 87.61 145.292 87.48C144.482 87.35 143.682 87.13 142.882 86.83C142.092 86.5 141.342 86.09 140.652 85.59C139.962 85.09 139.332 84.52 138.762 83.85C137.672 82.49 136.942 80.97 136.582 79.29C136.352 78.43 136.222 77.62 136.182 76.86L136.132 76.21V74.42L136.082 55.57C136.082 55.24 136.102 54.95 136.132 54.7C136.162 54.45 136.252 54.31 136.382 54.28C136.552 54.25 136.722 54.24 136.902 54.26C137.082 54.28 137.272 54.28 137.472 54.28C137.542 54.31 137.592 54.46 137.642 54.73C137.692 55 137.712 55.28 137.712 55.57L137.762 74.42V75.61L137.812 76.16V76.71C137.882 77.54 137.992 78.28 138.162 78.94C138.332 79.63 138.562 80.31 138.852 80.97C139.152 81.63 139.532 82.24 139.992 82.81C140.952 83.9 142.112 84.73 143.462 85.29C144.122 85.55 144.822 85.74 145.542 85.86C146.272 85.98 147.012 86.05 147.772 86.08C148.532 86.08 149.262 86.03 149.952 85.93C150.682 85.8 151.372 85.6 152.032 85.33C152.392 85.16 152.732 85.01 153.052 84.86C153.362 84.71 153.652 84.52 153.922 84.29C154.482 83.86 154.992 83.36 155.462 82.8C155.922 82.24 156.312 81.63 156.632 80.96C156.942 80.3 157.182 79.62 157.352 78.93C157.482 78.2 157.582 77.46 157.652 76.7C157.652 76.63 157.652 76.55 157.672 76.45C157.692 76.35 157.692 76.25 157.692 76.15V55.56C157.692 55 157.762 54.62 157.892 54.42L158.042 54.32C158.142 54.25 158.332 54.22 158.612 54.22C158.892 54.22 159.062 54.29 159.132 54.42C159.232 54.52 159.282 54.69 159.282 54.92V55.17C159.282 55.24 159.282 55.3 159.302 55.37C159.322 55.44 159.332 55.5 159.332 55.57V76.21H159.352ZM140.492 67.92C140.262 67.69 140.162 67.51 140.192 67.37C140.192 67.34 140.192 67.31 140.212 67.3C140.232 67.28 140.232 67.26 140.232 67.23C140.302 67.13 140.422 66.98 140.602 66.78C140.782 66.58 140.922 66.47 141.022 66.43C141.092 66.43 141.182 66.46 141.322 66.53L141.422 66.63C141.492 66.7 141.552 66.73 141.622 66.73L147.572 72.39L153.572 66.73C153.872 66.43 154.102 66.35 154.262 66.48L155.002 67.27C155.102 67.4 155.002 67.62 154.702 67.91L148.752 73.52L148.902 73.67L150.742 75.41L151.682 76.3L151.882 76.5L152.032 76.6L152.132 76.7L152.232 76.8C152.432 77.03 152.492 77.31 152.432 77.64C152.362 77.84 152.302 77.97 152.232 78.04L152.082 78.19L151.832 78.39L149.992 80.13L148.652 81.47L148.402 81.67L148.352 81.72L148.252 81.77L148.052 81.92C147.852 81.99 147.692 82.02 147.552 82.02C147.322 82.02 147.142 81.97 147.002 81.87C146.932 81.87 146.872 81.84 146.802 81.77L146.752 81.72V81.67H146.702L146.452 81.42L145.112 80.13L143.272 78.39L143.022 78.19L142.972 78.14V78.09L142.922 78.04C142.792 77.91 142.722 77.76 142.722 77.59C142.652 77.42 142.652 77.26 142.722 77.09L142.872 76.84L142.972 76.74L143.472 76.24L144.362 75.4L146.202 73.66L146.352 73.51L140.452 67.9L140.492 67.92ZM142.772 63.96C142.542 63.66 142.422 63.45 142.422 63.31L142.522 63.16C142.592 63.06 142.712 62.91 142.892 62.71C143.072 62.51 143.212 62.41 143.312 62.41C143.382 62.41 143.482 62.44 143.612 62.51L143.962 62.76L147.192 66.03L147.692 66.58L151.512 62.76C151.642 62.59 151.782 62.48 151.932 62.41C152.082 62.34 152.192 62.34 152.252 62.41C152.552 62.64 152.812 62.91 153.042 63.2C153.142 63.33 153.012 63.58 152.642 63.94L149.412 67.16L148.812 67.71L148.412 68.11L148.362 68.21L148.262 68.26C148.192 68.29 148.142 68.33 148.112 68.36C148.082 68.39 148.032 68.41 147.962 68.41C147.762 68.51 147.562 68.51 147.362 68.41C147.262 68.41 147.142 68.34 147.012 68.21H146.962L146.912 68.16L146.812 68.01L146.512 67.76L145.962 67.21L144.922 66.12L142.742 63.94L142.772 63.96ZM144.462 59.84C144.292 59.71 144.242 59.56 144.312 59.39L144.412 59.29C144.482 59.19 144.612 59.04 144.812 58.84C145.012 58.64 145.142 58.54 145.212 58.54C145.282 58.51 145.322 58.5 145.332 58.52C145.352 58.54 145.392 58.54 145.452 58.54C145.482 58.54 145.522 58.56 145.552 58.59L145.652 58.69L146.942 60.03L147.632 60.67L147.682 60.77L147.832 60.67L149.812 58.69C150.012 58.43 150.192 58.38 150.362 58.54L151.102 59.33C151.232 59.46 151.182 59.63 150.952 59.83L149.662 61.17L148.972 61.86L148.622 62.16L148.472 62.36L148.372 62.41L148.272 62.51C148.172 62.61 148.072 62.66 147.972 62.66C147.802 62.76 147.612 62.76 147.372 62.66C147.272 62.66 147.172 62.61 147.072 62.51L146.772 62.21L145.782 61.17L144.442 59.83L144.462 59.84ZM147.592 74.67L147.392 74.87L145.552 76.61L144.712 77.45L146.302 78.94L147.192 79.83L147.592 80.18L147.992 79.83L148.932 78.94L150.522 77.45L149.682 76.61L147.842 74.87L147.592 74.67Z" fill="white"/>
<path d="M166.891 55.62C166.891 55.62 166.841 55.54 166.841 55.47C166.811 55.37 166.791 55.18 166.791 54.9C166.791 54.62 166.821 54.45 166.891 54.38L167.091 54.23H167.191C167.191 54.23 167.261 54.23 167.291 54.21C167.321 54.19 167.361 54.19 167.391 54.19H176.521C176.651 54.19 176.781 54.21 176.891 54.24C177.011 54.27 177.061 54.36 177.061 54.49C177.091 54.82 177.091 55.18 177.061 55.58C177.061 55.65 177.001 55.7 176.891 55.75C176.771 55.8 176.651 55.82 176.521 55.82H172.901L172.851 62.32C172.851 62.32 172.871 62.37 172.901 62.37L175.331 65.64C175.631 66.07 175.641 66.5 175.381 66.93L172.901 70.3C172.701 70.6 172.421 70.75 172.061 70.75C171.701 70.75 171.411 70.6 171.221 70.3L168.791 66.93C168.461 66.47 168.461 66.04 168.791 65.64L171.221 62.37V55.82H167.401C167.301 55.82 167.201 55.8 167.101 55.77C167.001 55.74 166.931 55.69 166.901 55.62H166.891ZM176.511 86.08C176.641 86.05 176.771 86.06 176.881 86.1C177.001 86.15 177.051 86.22 177.051 86.32C177.081 86.72 177.081 87.08 177.051 87.41C177.051 87.51 176.991 87.58 176.881 87.63C176.761 87.68 176.641 87.7 176.511 87.7L167.381 87.75C167.111 87.75 166.951 87.68 166.881 87.55C166.851 87.52 166.831 87.47 166.831 87.4C166.801 87.3 166.781 87.11 166.781 86.83C166.781 86.55 166.811 86.38 166.881 86.31C166.911 86.21 166.981 86.16 167.081 86.16H167.181C167.181 86.16 167.251 86.16 167.281 86.14C167.311 86.12 167.351 86.12 167.381 86.12L171.001 86.07L171.051 79.97L168.321 76.3C168.221 76.17 168.151 76.04 168.101 75.93C168.051 75.81 168.081 75.72 168.171 75.66C168.301 75.53 168.431 75.41 168.571 75.31C168.701 75.21 168.851 75.11 169.021 75.01C169.091 74.94 169.191 74.94 169.321 75.01C169.451 75.08 169.551 75.18 169.621 75.31L171.901 78.34L174.331 75.26H174.381C174.581 75.06 174.741 74.96 174.881 74.96C174.911 74.99 174.961 75.01 175.031 75.01C175.101 75.08 175.241 75.19 175.451 75.36C175.661 75.53 175.791 75.66 175.821 75.76C175.851 75.83 175.841 75.93 175.771 76.06C175.771 76.09 175.751 76.13 175.721 76.16C175.691 76.19 175.671 76.23 175.671 76.26C175.671 76.29 175.651 76.31 175.621 76.31L172.691 79.98V86.08H176.511ZM167.931 52.25C167.931 52.25 167.881 52.17 167.881 52.1L167.931 52C169.091 51.14 170.231 50.26 171.351 49.35C172.471 48.44 173.601 47.52 174.721 46.6C174.791 46.53 174.891 46.57 175.021 46.7L175.711 47.54C175.811 47.67 175.831 47.77 175.761 47.84C173.511 49.73 171.231 51.56 168.911 53.35C168.811 53.35 168.731 53.32 168.661 53.25L168.561 53.15C168.491 53.08 168.381 52.94 168.211 52.7C168.041 52.47 167.941 52.32 167.911 52.25H167.931ZM175.821 70.85C175.851 70.92 175.861 70.97 175.841 71C175.821 71.03 175.821 71.08 175.821 71.15C175.791 71.15 175.761 71.18 175.751 71.25C175.731 71.32 175.691 71.37 175.631 71.4L174.141 73.29L173.351 74.23L173.001 74.73L172.801 74.98L172.601 75.18C172.471 75.31 172.371 75.4 172.301 75.43C172.031 75.53 171.771 75.53 171.511 75.43C171.341 75.4 171.231 75.33 171.161 75.23C171.161 75.2 171.161 75.18 171.141 75.18C171.121 75.18 171.111 75.16 171.111 75.13H171.061V75.08H171.011L170.861 74.83L170.461 74.33L169.771 73.34L168.281 71.41C168.211 71.28 168.161 71.15 168.111 71.04C168.061 70.92 168.091 70.83 168.181 70.77C168.311 70.64 168.441 70.52 168.581 70.42C168.711 70.32 168.861 70.22 169.031 70.12C169.161 70.05 169.361 70.15 169.631 70.42L171.071 72.35L171.811 73.34L171.911 73.44L172.111 73.19L172.851 72.25L174.391 70.36C174.591 70.16 174.751 70.08 174.891 70.11C174.961 70.11 175.011 70.13 175.041 70.16C175.111 70.19 175.251 70.3 175.461 70.48C175.671 70.66 175.801 70.79 175.831 70.85H175.821ZM172.051 64.05L170.361 66.28L172.051 68.61L173.741 66.28L172.051 64.05Z" fill="white"/>
<path d="M207.23 86.08C207.33 86.25 207.42 86.41 207.5 86.58C207.58 86.75 207.61 86.86 207.57 86.93L207.47 87.08C207.4 87.15 207.25 87.26 207.02 87.43C206.79 87.5999 206.62 87.6599 206.52 87.6299C206.39 87.5599 206.27 87.4799 206.17 87.3799C206.14 87.3499 206.1 87.3 206.07 87.23L205.87 87.0299L197.34 74.33L197.19 74.08C196.53 74.31 195.78 74.48 194.96 74.58C194.17 74.71 193.38 74.7999 192.6 74.8499C191.82 74.8999 191.05 74.9199 190.29 74.9199C189.99 74.9199 189.72 74.8999 189.47 74.8499C189.22 74.7999 189.08 74.7299 189.05 74.6299C189.02 74.4599 189.01 74.28 189.03 74.08C189.05 73.88 189.07 73.6999 189.1 73.5299C189.1 73.4299 189.22 73.36 189.47 73.33C189.72 73.3 189.99 73.2799 190.29 73.2799C191.05 73.2499 191.79 73.21 192.52 73.18C193.25 73.15 193.98 73.0599 194.7 72.93C195.39 72.83 196.09 72.69 196.78 72.51C197.47 72.33 198.14 72.0699 198.76 71.7399C200.08 71.1099 201.11 70.24 201.84 69.11C202.2 68.55 202.49 67.9399 202.68 67.2699C202.78 66.9399 202.85 66.6099 202.9 66.2799C202.95 65.9499 202.99 65.5999 203.02 65.2399V64.15C203.02 63.98 203.02 63.82 203 63.65C202.98 63.48 202.96 63.32 202.93 63.15C202.83 62.46 202.63 61.81 202.33 61.22C202.07 60.62 201.69 60.08 201.21 59.58C200.73 59.08 200.19 58.65 199.6 58.29C199 57.93 198.37 57.6099 197.69 57.3499C197.01 57.0899 196.33 56.87 195.63 56.7C194.94 56.5 194.23 56.3399 193.52 56.2299C192.81 56.1099 192.07 56.0199 191.31 55.9599C190.58 55.8899 189.85 55.86 189.13 55.86C188.41 55.86 187.66 55.88 186.9 55.91V59.1399L186.95 68.22V86.33C186.95 86.59 186.93 86.83 186.9 87.05C186.87 87.27 186.82 87.41 186.75 87.47C186.72 87.47 186.69 87.4699 186.68 87.4899C186.67 87.5099 186.64 87.51 186.61 87.51C186.51 87.58 186.32 87.61 186.04 87.61C185.76 87.61 185.59 87.5599 185.52 87.4599L185.37 86.9599C185.34 86.8899 185.32 86.8099 185.32 86.7099V68.1999L185.27 59.1199V55.65C185.27 55.58 185.29 55.53 185.32 55.5C185.32 55.4 185.35 55.29 185.42 55.15C185.45 54.95 185.59 54.7699 185.82 54.5999C185.95 54.4699 186.15 54.3699 186.42 54.2999C186.55 54.2999 186.65 54.28 186.72 54.25H186.82C187.58 54.22 188.35 54.2 189.13 54.2C189.91 54.2 190.69 54.2299 191.49 54.2999C191.85 54.3699 192.23 54.42 192.63 54.45C193.03 54.48 193.41 54.5299 193.77 54.5999C194.6 54.6999 195.37 54.8699 196.1 55.0999C196.86 55.2999 197.6 55.54 198.33 55.82C199.06 56.1 199.77 56.4599 200.46 56.8899C201.19 57.3499 201.83 57.87 202.39 58.43C202.56 58.6 202.7 58.76 202.81 58.93C202.93 59.1 203.05 59.26 203.18 59.43C203.31 59.6 203.43 59.77 203.53 59.95C203.63 60.13 203.73 60.31 203.83 60.47C204.23 61.26 204.48 62.07 204.57 62.9C204.6 63.1 204.63 63.3 204.64 63.5C204.66 63.7 204.66 63.8999 204.66 64.0999V65.3399C204.59 65.7399 204.54 66.1299 204.49 66.5299C204.44 66.9299 204.35 67.32 204.22 67.72C204.02 68.51 203.69 69.28 203.23 70C202.8 70.66 202.24 71.2899 201.54 71.8899C201.21 72.15 200.88 72.39 200.55 72.61C200.22 72.83 199.87 73.03 199.51 73.23L198.77 73.5299L207.2 86.08H207.23ZM191.89 66.6299C191.56 66.4299 191.23 66.2399 190.9 66.0599C190.57 65.8799 190.22 65.67 189.86 65.44C189.69 65.37 189.58 65.27 189.51 65.12C189.44 64.97 189.41 64.81 189.41 64.65C189.41 64.32 189.58 64.04 189.91 63.81C190.34 63.58 190.76 63.3499 191.18 63.1199C191.59 62.8899 192.02 62.64 192.45 62.38L194.04 61.49C194.37 61.32 194.7 61.32 195.03 61.49C195.39 61.72 195.74 61.9399 196.07 62.1399C196.4 62.3399 196.75 62.54 197.11 62.74L199 63.83C199.36 64.03 199.55 64.33 199.55 64.72C199.55 65.11 199.37 65.41 199 65.61L196.62 66.9499C196.36 67.1199 196.08 67.2699 195.8 67.4199C195.52 67.5699 195.25 67.7299 194.98 67.8899C194.88 67.9599 194.73 67.9899 194.53 67.9899C194.43 67.9899 194.34 67.99 194.26 67.97C194.18 67.95 194.09 67.93 193.99 67.9C193.66 67.67 193.32 67.45 192.97 67.25C192.62 67.05 192.27 66.85 191.9 66.65L191.89 66.6299ZM191.79 64.65L192.73 65.1999C193.03 65.3699 193.33 65.5299 193.62 65.6999C193.92 65.8699 194.22 66.0299 194.51 66.1999L195.75 65.51L197.19 64.72L196.25 64.1699C195.95 63.9999 195.65 63.8399 195.36 63.6699C195.06 63.4999 194.76 63.3399 194.47 63.1699L193.23 63.86L191.79 64.65ZM201.87 86.33C202.04 86.56 202.08 86.7399 202.02 86.8799C202.02 86.9099 201.99 86.9599 201.92 87.0299C201.85 87.0999 201.7 87.1999 201.47 87.3499C201.24 87.5 201.07 87.57 200.97 87.57C200.94 87.57 200.85 87.54 200.72 87.47L200.62 87.37C200.55 87.3 200.52 87.25 200.52 87.22L195.06 79.08C194.8 78.78 194.75 78.5499 194.91 78.3899L195.85 77.79C195.92 77.72 196.01 77.7299 196.12 77.8099C196.24 77.8899 196.33 77.9999 196.39 78.1299L201.85 86.32L201.87 86.33Z" fill="white"/>
<path d="M212.432 55.6199C212.432 55.6199 212.382 55.5399 212.382 55.4699C212.352 55.3699 212.332 55.1799 212.332 54.8999C212.332 54.6199 212.362 54.4499 212.432 54.3799L212.632 54.2299H212.732C212.732 54.2299 212.802 54.2299 212.832 54.2099C212.862 54.1899 212.902 54.1899 212.932 54.1899H222.062C222.192 54.1899 222.322 54.2099 222.432 54.2399C222.552 54.2699 222.602 54.3599 222.602 54.4899C222.632 54.8199 222.632 55.1799 222.602 55.5799C222.602 55.6499 222.542 55.6999 222.432 55.7499C222.312 55.7999 222.192 55.8199 222.062 55.8199H218.442L218.392 62.3199C218.392 62.3199 218.412 62.3699 218.442 62.3699L220.872 65.6399C221.172 66.0699 221.182 66.4999 220.922 66.9299L218.442 70.2999C218.242 70.5999 217.962 70.7499 217.602 70.7499C217.242 70.7499 216.952 70.5999 216.762 70.2999L214.332 66.9299C214.002 66.4699 214.002 66.0399 214.332 65.6399L216.762 62.3699V55.8199H212.942C212.842 55.8199 212.742 55.7999 212.642 55.7699C212.542 55.7399 212.472 55.6899 212.442 55.6199H212.432ZM222.062 86.0799C222.192 86.0499 222.322 86.0599 222.432 86.0999C222.552 86.1499 222.602 86.2199 222.602 86.3199C222.632 86.7199 222.632 87.0799 222.602 87.4099C222.602 87.5099 222.542 87.5799 222.432 87.6299C222.312 87.6799 222.192 87.6999 222.062 87.6999L212.932 87.7499C212.662 87.7499 212.502 87.6799 212.432 87.5499C212.402 87.5199 212.382 87.4699 212.382 87.3999C212.352 87.2999 212.332 87.1099 212.332 86.8299C212.332 86.5499 212.362 86.3799 212.432 86.3099C212.462 86.2099 212.532 86.1599 212.632 86.1599H212.732C212.732 86.1599 212.802 86.1599 212.832 86.1399C212.862 86.1199 212.902 86.1199 212.932 86.1199L216.552 86.0699L216.602 79.9699L213.872 76.2999C213.772 76.1699 213.702 76.0399 213.652 75.9299C213.602 75.8099 213.632 75.7199 213.722 75.6599C213.852 75.5299 213.982 75.4099 214.122 75.3099C214.252 75.2099 214.402 75.1099 214.572 75.0099C214.642 74.9399 214.742 74.9399 214.872 75.0099C215.002 75.0799 215.102 75.1799 215.172 75.3099L217.452 78.3399L219.882 75.2599H219.932C220.132 75.0599 220.292 74.9599 220.432 74.9599C220.462 74.9899 220.512 75.0099 220.582 75.0099C220.652 75.0799 220.792 75.1899 221.002 75.3599C221.212 75.5299 221.342 75.6599 221.372 75.7599C221.402 75.8299 221.392 75.9299 221.322 76.0599C221.322 76.0899 221.302 76.1299 221.272 76.1599C221.242 76.1899 221.222 76.2299 221.222 76.2599C221.222 76.2899 221.202 76.3099 221.172 76.3099L218.242 79.9799V86.0799H222.062ZM221.372 70.8499C221.402 70.9199 221.412 70.9699 221.392 70.9999C221.372 71.0299 221.372 71.0799 221.372 71.1499C221.342 71.1499 221.312 71.1799 221.302 71.2499C221.282 71.3199 221.242 71.3699 221.182 71.3999L219.692 73.2899L218.902 74.2299L218.552 74.7299L218.352 74.9799L218.152 75.1799C218.022 75.3099 217.922 75.3999 217.852 75.4299C217.582 75.5299 217.322 75.5299 217.062 75.4299C216.892 75.3999 216.782 75.3299 216.712 75.2299C216.712 75.1999 216.712 75.1799 216.692 75.1799C216.672 75.1799 216.662 75.1599 216.662 75.1299H216.612V75.0799H216.562L216.412 74.8299L216.012 74.3299L215.322 73.3399L213.832 71.4099C213.762 71.2799 213.712 71.1499 213.662 71.0399C213.612 70.9199 213.642 70.8299 213.732 70.7699C213.862 70.6399 213.992 70.5199 214.132 70.4199C214.262 70.3199 214.412 70.2199 214.582 70.1199C214.712 70.0499 214.912 70.1499 215.182 70.4199L216.622 72.3499L217.362 73.3399L217.462 73.4399L217.662 73.1899L218.402 72.2499L219.942 70.3599C220.142 70.1599 220.302 70.0799 220.442 70.1099C220.512 70.1099 220.562 70.1299 220.592 70.1599C220.662 70.1899 220.802 70.2999 221.012 70.4799C221.222 70.6599 221.352 70.7899 221.382 70.8499H221.372ZM217.592 64.0499L215.902 66.2799L217.592 68.6099L219.282 66.2799L217.592 64.0499Z" fill="white"/>
<path d="M258.281 86.13C258.381 86.33 258.461 86.53 258.531 86.73C258.601 86.93 258.611 87.08 258.581 87.18C258.511 87.25 258.481 87.3 258.481 87.33C258.411 87.4 258.251 87.5 257.981 87.63C257.711 87.76 257.531 87.8 257.431 87.73L257.081 87.33L256.981 87.13C256.951 87.06 256.911 87.01 256.881 86.98C256.851 86.95 256.811 86.9 256.781 86.83L251.371 75.02H246.161L244.671 78.2L243.631 80.43L243.381 80.93L242.291 80.88L242.091 80.38C241.861 79.85 241.631 79.34 241.401 78.84C241.171 78.34 240.941 77.86 240.711 77.4C240.541 77.04 240.361 76.66 240.161 76.26C239.961 75.86 239.781 75.45 239.611 75.02H234.101C233.171 77 232.251 78.98 231.321 80.95C230.391 82.92 229.451 84.89 228.491 86.88C228.361 87.15 228.221 87.38 228.071 87.57C227.921 87.77 227.801 87.85 227.701 87.82L226.711 87.32C226.641 87.25 226.641 87.11 226.711 86.87C226.781 86.64 226.881 86.39 227.011 86.13C228.301 83.52 229.561 80.9 230.781 78.29C232.001 75.68 233.231 73.03 234.451 70.35C235.051 69.03 235.651 67.71 236.261 66.41C236.871 65.1 237.491 63.79 238.121 62.47C238.421 61.81 238.721 61.15 239.041 60.49C239.351 59.83 239.681 59.17 240.011 58.51L240.951 56.57L241.691 55.08L241.741 54.93L241.791 54.88L241.841 54.78L242.041 54.53C242.171 54.4 242.301 54.3 242.441 54.23C242.671 54.16 242.871 54.15 243.041 54.18C243.171 54.21 243.341 54.3 243.541 54.43C243.671 54.56 243.751 54.66 243.791 54.73L243.891 54.88V54.93L244.141 55.43L244.591 56.42L247.321 62.37L250.991 70.26L258.281 86.14V86.13ZM240.521 83.9C240.591 84.03 240.641 84.17 240.671 84.32C240.701 84.47 240.691 84.58 240.621 84.64L240.521 84.74C240.451 84.81 240.301 84.91 240.051 85.04C239.801 85.17 239.631 85.22 239.531 85.19C239.401 85.12 239.311 85.04 239.281 84.94L239.181 84.84C239.081 84.74 239.031 84.66 239.031 84.59L237.591 81.71L236.901 80.27L236.851 80.22V80.32L236.111 81.71L234.671 84.64C234.571 84.81 234.461 84.96 234.351 85.11C234.231 85.26 234.131 85.3 234.031 85.23C233.861 85.16 233.711 85.08 233.561 84.98C233.411 84.88 233.251 84.8 233.091 84.73C233.021 84.66 233.011 84.55 233.041 84.38C233.071 84.21 233.121 84.05 233.191 83.88L235.371 79.51L235.971 78.47L236.021 78.27L236.071 78.17H236.121V78.12C236.251 77.92 236.401 77.79 236.571 77.72C236.641 77.69 236.751 77.67 236.921 77.67C237.051 77.67 237.181 77.7 237.321 77.77C237.421 77.84 237.491 77.89 237.541 77.94C237.591 77.99 237.651 78.05 237.711 78.11L237.811 78.41L238.011 78.81L239.101 80.94L240.541 83.87L240.521 83.9ZM250.591 73.38L249.501 71L243.101 57.16L242.801 56.56L242.451 57.3L241.511 59.29C241.181 59.95 240.861 60.6 240.541 61.25C240.231 61.89 239.921 62.55 239.621 63.21L235.951 71.1L234.911 73.38H239.521C239.781 72.82 240.041 72.27 240.291 71.74C240.541 71.21 240.791 70.67 241.061 70.1L242.101 67.87L242.301 67.37H243.441L243.641 67.92C243.871 68.45 244.091 68.95 244.311 69.43C244.521 69.91 244.751 70.38 244.981 70.84L246.171 73.37H250.591V73.38ZM244.681 74.13L243.491 71.55C243.391 71.32 243.281 71.1 243.171 70.88C243.051 70.67 242.951 70.43 242.851 70.16L242.551 70.76C242.291 71.32 242.031 71.87 241.781 72.4C241.531 72.93 241.281 73.48 241.011 74.04C241.211 74.5 241.411 74.96 241.631 75.4C241.841 75.85 242.051 76.29 242.251 76.71C242.351 76.94 242.451 77.17 242.551 77.38C242.651 77.6 242.761 77.82 242.901 78.05L243.151 77.45C243.411 76.92 243.671 76.39 243.921 75.86C244.171 75.33 244.421 74.79 244.691 74.22V74.12L244.681 74.13ZM252.371 83.85C252.441 84.02 252.491 84.16 252.541 84.3C252.591 84.43 252.581 84.53 252.521 84.6L252.421 84.75C252.351 84.82 252.201 84.92 251.951 85.05C251.701 85.18 251.531 85.23 251.431 85.2C251.301 85.13 251.201 85.05 251.131 84.95L251.031 84.85C250.961 84.78 250.931 84.7 250.931 84.6L249.441 81.72L248.751 80.28L248.701 80.23L248.651 80.33L246.421 84.65C246.351 84.82 246.261 84.97 246.151 85.12C246.031 85.27 245.931 85.31 245.831 85.24L244.841 84.74C244.771 84.67 244.761 84.56 244.791 84.39C244.821 84.22 244.891 84.06 244.991 83.89L246.481 81.01L247.571 78.83L247.771 78.48L247.971 78.08C248.041 77.95 248.171 77.83 248.371 77.73C248.441 77.7 248.571 77.68 248.771 77.68C248.871 77.68 248.991 77.71 249.121 77.78C249.321 77.85 249.451 77.96 249.521 78.13L249.571 78.28L249.671 78.43L249.871 78.78L250.221 79.52L250.961 80.96L252.401 83.84L252.371 83.85Z" fill="white"/>
<path d="M281.102 79.2401C281.202 80.0701 281.152 80.8801 280.952 81.6701C280.822 82.4601 280.492 83.2301 279.962 83.9501C279.532 84.6101 278.982 85.2201 278.322 85.7901C277.032 86.7801 275.562 87.4301 273.902 87.7201C273.142 87.8201 272.382 87.8901 271.622 87.9201C270.862 87.9501 270.082 87.9401 269.292 87.8701C268.462 87.7701 267.702 87.6201 267.012 87.4201C266.252 87.2201 265.502 86.9201 264.782 86.5301C264.422 86.3301 264.082 86.1201 263.762 85.8801C263.452 85.6501 263.142 85.3801 262.842 85.0901C262.542 84.7901 262.272 84.4801 262.022 84.1501C261.772 83.8201 261.562 83.4601 261.402 83.0601L261.302 82.9101C261.302 82.9101 261.302 82.8401 261.282 82.8101C261.262 82.7801 261.262 82.7401 261.262 82.7101C261.192 82.5801 261.162 82.4601 261.162 82.3601C261.092 82.1301 261.092 81.9801 261.162 81.9101L261.262 81.7601C261.332 81.6901 261.502 81.6201 261.782 81.5401C262.062 81.4601 262.252 81.4501 262.352 81.5201L262.602 81.8701L262.702 82.0701L262.802 82.2201C262.802 82.2201 262.802 82.2801 262.822 82.2901C262.842 82.3101 262.842 82.3301 262.842 82.3601C263.142 82.9201 263.532 83.4401 264.012 83.9001C264.492 84.3601 265.012 84.7601 265.572 85.0901C266.132 85.3901 266.762 85.6401 267.462 85.8301C268.152 86.0601 268.832 86.1901 269.492 86.2301C270.182 86.3001 270.882 86.3101 271.572 86.2801C272.262 86.2501 272.962 86.1801 273.652 86.0801C275.012 85.8201 276.212 85.2901 277.272 84.4901C278.362 83.6001 279.062 82.5401 279.352 81.3101C279.522 80.6201 279.552 79.9701 279.452 79.3801C279.352 78.6901 279.192 78.0701 278.952 77.5401C278.622 76.9101 278.262 76.3701 277.862 75.9001C277.462 75.4001 276.972 74.9401 276.372 74.5101C276.072 74.2801 275.782 74.0601 275.502 73.8601C275.222 73.6601 274.912 73.4801 274.582 73.3101C273.922 72.9101 273.292 72.5801 272.692 72.3201C272.032 71.9901 271.372 71.6601 270.712 71.3301C270.052 71.0001 269.392 70.6401 268.732 70.2401C268.072 69.8401 267.432 69.4101 266.822 68.9501C266.212 68.4901 265.622 67.9601 265.062 67.3601C264.792 67.1001 264.552 66.8001 264.322 66.4701C264.092 66.1401 263.872 65.7901 263.672 65.4301C263.272 64.7001 262.992 63.9401 262.832 63.1501C262.762 62.9501 262.722 62.7501 262.712 62.5501C262.692 62.3501 262.672 62.1501 262.642 61.9501V61.3001C262.642 61.0401 262.662 60.8401 262.692 60.7001C262.762 59.8401 262.992 59.0301 263.382 58.2701C263.742 57.5801 264.262 56.9301 264.922 56.3301C265.612 55.7701 266.312 55.3401 267.002 55.0401C267.762 54.6801 268.522 54.4301 269.282 54.3001C269.682 54.2301 270.072 54.1801 270.472 54.1501C270.872 54.1201 271.262 54.1001 271.662 54.1001C272.452 54.1301 273.242 54.2501 274.022 54.4501C274.802 54.6501 275.552 54.9501 276.282 55.3401C276.972 55.7001 277.612 56.1701 278.192 56.7301C278.772 57.2901 279.292 57.9001 279.752 58.5701C279.952 58.8301 280.092 59.0901 280.172 59.3401C280.252 59.5901 280.242 59.7501 280.152 59.8101C279.982 59.9101 279.822 60.0001 279.652 60.0801C279.482 60.1601 279.322 60.2401 279.152 60.3001C279.082 60.3301 278.982 60.2601 278.832 60.0801C278.682 59.9001 278.522 59.6901 278.362 59.4601C277.572 58.3001 276.612 57.4101 275.482 56.7801C274.292 56.1501 273.002 55.8001 271.612 55.7401C270.882 55.7401 270.202 55.8101 269.582 55.9401C268.922 56.0401 268.272 56.2401 267.652 56.5401C267.052 56.8101 266.512 57.1501 266.012 57.5801C265.512 58.0101 265.122 58.5101 264.822 59.0701C264.552 59.5701 264.392 60.1601 264.322 60.8601C264.292 60.9601 264.272 61.1201 264.272 61.3601V61.8101L264.422 62.8001C264.592 63.4601 264.822 64.0701 265.112 64.6401C265.412 65.2401 265.802 65.7801 266.302 66.2801C266.762 66.7801 267.272 67.2301 267.812 67.6401C268.362 68.0501 268.942 68.4401 269.572 68.8101C270.202 69.1701 270.842 69.5201 271.482 69.8501C272.122 70.1801 272.782 70.5101 273.442 70.8401L275.422 71.8801C275.752 72.0801 276.072 72.2901 276.392 72.5001C276.702 72.7201 277.032 72.9401 277.362 73.1701C277.662 73.4401 277.962 73.7001 278.252 73.9601C278.552 74.2301 278.832 74.5101 279.092 74.8001C279.352 75.1001 279.602 75.4201 279.832 75.7701C280.062 76.1201 280.262 76.4701 280.432 76.8401C280.762 77.5301 280.982 78.3301 281.082 79.2201L281.102 79.2401ZM267.062 80.0301C266.862 79.8301 266.762 79.6001 266.762 79.3401C266.762 79.0401 266.872 78.8101 267.102 78.6501L268.832 77.1601C269.092 76.9301 269.362 76.7001 269.622 76.4701C269.882 76.2401 270.162 76.0101 270.462 75.7801C270.692 75.6101 270.952 75.5301 271.232 75.5301C271.512 75.5301 271.762 75.6101 271.992 75.7801L273.962 77.5201C274.192 77.6901 274.412 77.8701 274.632 78.0701C274.842 78.2701 275.072 78.4701 275.302 78.6701C275.502 78.8401 275.602 79.0701 275.602 79.3601C275.602 79.6301 275.482 79.8401 275.262 80.0101L273.532 81.5001L271.802 82.9901C271.632 83.1201 271.422 83.1901 271.162 83.1901C270.862 83.1901 270.632 83.1101 270.472 82.9401C270.112 82.6801 269.762 82.3901 269.432 82.1001C269.102 81.8001 268.762 81.5001 268.392 81.2101C268.162 81.0101 267.942 80.8101 267.722 80.6101C267.512 80.4101 267.282 80.2301 267.052 80.0601L267.062 80.0301ZM268.502 63.6101C268.572 63.7801 268.482 63.8601 268.252 63.8601H267.162C266.962 63.8601 266.862 63.7801 266.862 63.6101V59.8901C266.862 59.7601 266.932 59.6901 267.062 59.6901C267.092 59.6601 267.142 59.6401 267.212 59.6401H267.782C268.062 59.6401 268.232 59.6601 268.302 59.6901C268.332 59.6901 268.352 59.6901 268.352 59.7101C268.352 59.7301 268.372 59.7301 268.402 59.7301H268.452V59.7801C268.452 59.7801 268.472 59.8501 268.502 59.8801V63.6001V63.6101ZM268.902 79.3401L269.502 79.8901L271.192 81.3301C271.422 81.1601 271.642 80.9801 271.832 80.7801C272.032 80.5801 272.232 80.4001 272.432 80.2301C272.632 80.0601 272.822 79.9101 273.002 79.7601C273.182 79.6101 273.362 79.4501 273.522 79.2901L272.922 78.7401L271.232 77.3001L269.942 78.3901L268.902 79.3301V79.3401ZM272.122 65.1501C272.122 65.4101 272.042 65.5601 271.872 65.6001H270.782C270.582 65.5701 270.482 65.4201 270.482 65.1501V58.5001C270.482 58.3001 270.552 58.1901 270.682 58.1501C270.712 58.1201 270.762 58.1001 270.832 58.1001C270.932 58.0701 271.122 58.0501 271.402 58.0501C271.682 58.0501 271.852 58.0801 271.922 58.1501C272.022 58.1501 272.072 58.2001 272.072 58.3001V58.4001C272.072 58.4001 272.092 58.4701 272.122 58.5001V65.1501ZM275.692 63.6101C275.692 63.7801 275.592 63.8601 275.402 63.8601H274.342C274.112 63.8601 274.032 63.7801 274.102 63.6101H274.052V59.8901H274.102C274.102 59.7601 274.162 59.6901 274.292 59.6901C274.322 59.6601 274.372 59.6401 274.432 59.6401H274.982C275.252 59.6401 275.422 59.6601 275.492 59.6901C275.522 59.6901 275.552 59.6901 275.562 59.7101C275.582 59.7301 275.602 59.7301 275.632 59.7301V59.7801C275.632 59.8501 275.652 59.8801 275.682 59.8801V63.6001L275.692 63.6101Z" fill="white"/>
<path d="M92.0408 38.3599C92.2408 38.6299 92.4008 38.8599 92.5408 39.0799C92.6708 39.2999 92.7108 39.4399 92.6408 39.4999C92.4708 39.6299 92.3308 39.7599 92.1908 39.8699C92.0608 39.9899 91.9108 40.0899 91.7408 40.1899C91.6708 40.2599 91.5408 40.1899 91.3408 40.0199C91.1408 39.8399 90.9608 39.6299 90.7908 39.3999C88.8708 37.0199 86.9608 34.6599 85.0608 32.3299C83.1608 29.9999 81.2308 27.6599 79.2808 25.3099C75.4408 20.6099 71.5708 15.9499 67.6708 11.3199L66.1808 9.5799L65.5408 8.8399V11.3199L65.4908 20.3999L65.4408 38.6099C65.4408 38.8699 65.4208 39.1099 65.3908 39.2999C65.3608 39.4999 65.3108 39.6299 65.2408 39.6999L65.0908 39.7999C64.9908 39.8699 64.8008 39.8899 64.5208 39.8699C64.2408 39.8499 64.0608 39.7999 64.0008 39.6999L63.8508 39.1999C63.8208 39.1299 63.8008 39.0499 63.8008 38.9499V38.5499L63.8508 20.3899L63.9008 11.2599V7.3399C63.9008 7.2699 63.9208 7.2099 63.9508 7.1399C63.9808 7.0699 64.0208 7.0099 64.0508 6.9399C64.0508 6.9099 64.0808 6.8599 64.1508 6.7899L64.2508 6.6899C64.4208 6.5599 64.5508 6.4799 64.6508 6.4699C64.7508 6.4499 64.8808 6.4299 65.0508 6.3999C65.2208 6.3999 65.3508 6.4199 65.4508 6.4499C65.6508 6.5199 65.8108 6.6199 65.9508 6.7499L66.6908 7.6399L67.4308 8.4799L68.9208 10.2199C70.9008 12.5699 72.8608 14.8999 74.7708 17.2199C76.6908 19.5399 78.6208 21.8699 80.5808 24.2199L92.0908 38.3599H92.0408ZM97.4908 25.3099C97.4908 25.4099 97.4408 25.5299 97.3408 25.6599C97.3408 25.6899 97.3108 25.7599 97.2408 25.8599C97.1708 25.9599 97.1108 26.0399 97.0408 26.1099L94.4608 29.0399L92.5208 31.2699L92.1708 31.6699L91.9208 31.9199C91.8508 32.0499 91.7508 32.1399 91.6208 32.1699C91.1608 32.4999 90.6908 32.4699 90.2308 32.0699L89.9308 31.7699L89.7808 31.5699L89.1808 30.8299L85.4608 26.2199C85.2908 26.0199 85.1708 25.8199 85.0908 25.6199C85.0108 25.4199 85.0008 25.2899 85.0708 25.2199C85.2008 25.0899 85.3308 24.9699 85.4708 24.8699C85.6008 24.7699 85.7508 24.6699 85.9208 24.5699C85.9908 24.4999 86.1008 24.5399 86.2708 24.6699C86.4408 24.7999 86.6008 24.9699 86.7708 25.1699L90.4908 29.7799L91.0408 30.4699L91.2908 30.1699L91.9308 29.4299L93.2208 27.9899L95.8008 25.0099C96.1608 24.6499 96.4108 24.4599 96.5408 24.4599C96.5708 24.4599 96.6008 24.4599 96.6108 24.4799C96.6308 24.4999 96.6508 24.4999 96.6808 24.4999C96.7808 24.5299 96.9408 24.6399 97.1508 24.8199C97.3608 24.9999 97.4708 25.1599 97.4708 25.2899L97.4908 25.3099ZM87.1708 22.1899C87.0708 22.0599 87.0008 21.9299 86.9508 21.7899C86.9008 21.6599 86.9108 21.5599 86.9708 21.4899L87.8108 20.7999C87.8808 20.7299 87.9808 20.7399 88.1108 20.8199C88.2408 20.8999 88.3608 21.0099 88.4608 21.1399L90.1508 23.2199L90.9408 24.2599L91.1408 24.4599L91.4908 24.0099L92.3808 23.0199L94.1208 21.0399C94.3508 20.8099 94.5308 20.7099 94.6708 20.7399C94.7008 20.7399 94.7308 20.7399 94.7408 20.7599C94.7608 20.7799 94.7808 20.7799 94.8108 20.7799C94.9108 20.8499 95.0708 20.9699 95.2808 21.1499C95.4908 21.3299 95.6008 21.4599 95.6008 21.5199C95.6008 21.6499 95.5808 21.7499 95.5508 21.8199L95.4508 21.9199C95.3808 21.9899 95.3508 22.0499 95.3508 22.1199L93.6108 24.0999L92.2708 25.5899L92.0708 25.8399L91.9208 26.0399H91.8708C91.8708 26.0399 91.8508 26.1099 91.8208 26.1399C91.7908 26.1399 91.7408 26.1699 91.6708 26.2399C91.2408 26.5699 90.7908 26.5399 90.3308 26.1399C90.3308 26.1099 90.3108 26.0699 90.2808 26.0399L90.1808 25.9399L90.0808 25.7899L89.6308 25.2899L88.8408 24.2499L87.1508 22.1699L87.1708 22.1899ZM90.4008 20.3999C90.4008 20.3999 90.4008 20.2999 90.3808 20.1999C90.3608 20.0999 90.3608 20.0199 90.3608 19.9499L90.4108 7.4499C90.4108 7.2799 90.4308 7.1199 90.4608 6.9499C90.4908 6.7799 90.5808 6.6999 90.7108 6.6999C91.0408 6.6699 91.4008 6.6699 91.8008 6.6999C91.8708 6.6999 91.9208 6.7799 91.9708 6.9499C92.0208 7.1199 92.0408 7.2999 92.0408 7.4999L91.9908 19.9999C91.9908 20.3599 91.9208 20.5999 91.7908 20.6899C91.7608 20.6899 91.7308 20.6899 91.7208 20.7099C91.7008 20.7299 91.6808 20.7299 91.6508 20.7299C91.5508 20.7599 91.3608 20.7799 91.0808 20.7799C90.8008 20.7799 90.6208 20.7499 90.5608 20.6799C90.4608 20.5799 90.4108 20.4799 90.4108 20.3799L90.4008 20.3999Z" fill="white"/>
<path d="M130.29 38.7098C130.39 38.9098 130.47 39.1098 130.54 39.3098C130.61 39.5098 130.62 39.6598 130.59 39.7598C130.52 39.8298 130.49 39.8798 130.49 39.9098C130.42 39.9798 130.26 40.0798 129.99 40.2098C129.72 40.3398 129.54 40.3798 129.44 40.3098L129.09 39.9098L128.99 39.7098C128.96 39.6398 128.92 39.5898 128.89 39.5598C128.86 39.5298 128.82 39.4798 128.79 39.4098L123.38 27.5998H118.17L116.68 30.7798L115.64 33.0098L115.39 33.5098L114.3 33.4598L114.1 32.9598C113.87 32.4298 113.64 31.9198 113.41 31.4198C113.18 30.9198 112.95 30.4398 112.72 29.9798C112.55 29.6198 112.37 29.2398 112.17 28.8398C111.97 28.4398 111.79 28.0298 111.62 27.5998H106.11C105.18 29.5798 104.26 31.5598 103.33 33.5298C102.4 35.4998 101.46 37.4698 100.5 39.4598C100.37 39.7298 100.23 39.9598 100.08 40.1498C99.9305 40.3498 99.8105 40.4298 99.7105 40.3998L98.7205 39.8998C98.6505 39.8298 98.6505 39.6898 98.7205 39.4498C98.7905 39.2198 98.8905 38.9698 99.0205 38.7098C100.31 36.0998 101.57 33.4798 102.79 30.8698C104.01 28.2598 105.24 25.6098 106.46 22.9298C107.06 21.6098 107.66 20.2898 108.27 18.9898C108.88 17.6798 109.5 16.3698 110.13 15.0498C110.43 14.3898 110.73 13.7298 111.05 13.0698C111.36 12.4098 111.69 11.7498 112.02 11.0898L112.96 9.14984L113.7 7.65984L113.75 7.50984L113.8 7.45984L113.85 7.35984L114.05 7.10984C114.18 6.97984 114.31 6.87984 114.45 6.80984C114.68 6.73984 114.88 6.72984 115.05 6.75984C115.18 6.78984 115.35 6.87984 115.55 7.00984C115.68 7.13984 115.76 7.23984 115.8 7.30984L115.9 7.45984V7.50984L116.15 8.00984L116.6 8.99984L119.33 14.9498L123 22.8398L130.29 38.7198V38.7098ZM112.53 36.4698C112.6 36.5998 112.65 36.7398 112.68 36.8898C112.71 37.0398 112.7 37.1498 112.63 37.2098L112.53 37.3098C112.46 37.3798 112.31 37.4798 112.06 37.6098C111.81 37.7398 111.64 37.7898 111.54 37.7598C111.41 37.6898 111.32 37.6098 111.29 37.5098L111.19 37.4098C111.09 37.3098 111.04 37.2298 111.04 37.1598L109.6 34.2798L108.91 32.8398L108.86 32.7898V32.8898L108.12 34.2798L106.68 37.2098C106.58 37.3798 106.47 37.5298 106.36 37.6798C106.24 37.8298 106.14 37.8698 106.04 37.7998C105.87 37.7298 105.72 37.6498 105.57 37.5498C105.42 37.4498 105.26 37.3698 105.1 37.2998C105.03 37.2298 105.02 37.1198 105.05 36.9498C105.08 36.7798 105.13 36.6198 105.2 36.4498L107.38 32.0798L107.98 31.0398L108.03 30.8398L108.08 30.7398H108.13V30.6898C108.26 30.4898 108.41 30.3598 108.58 30.2898C108.65 30.2598 108.76 30.2398 108.93 30.2398C109.06 30.2398 109.19 30.2698 109.33 30.3398C109.43 30.4098 109.5 30.4598 109.55 30.5098C109.6 30.5598 109.66 30.6198 109.72 30.6798L109.82 30.9798L110.02 31.3798L111.11 33.5098L112.55 36.4398L112.53 36.4698ZM122.6 25.9598L121.51 23.5798L115.11 9.73984L114.81 9.13984L114.46 9.87984L113.52 11.8598C113.19 12.5198 112.87 13.1698 112.55 13.8198C112.24 14.4598 111.93 15.1198 111.63 15.7798L107.96 23.6698L106.92 25.9498H111.53C111.79 25.3898 112.05 24.8398 112.3 24.3098C112.55 23.7798 112.8 23.2398 113.07 22.6698L114.11 20.4398L114.31 19.9398H115.45L115.65 20.4898C115.88 21.0198 116.1 21.5198 116.32 21.9998C116.53 22.4798 116.76 22.9498 116.99 23.4098L118.18 25.9398H122.6V25.9598ZM116.69 26.6998L115.5 24.1198C115.4 23.8898 115.29 23.6698 115.18 23.4498C115.06 23.2398 114.96 22.9998 114.86 22.7298L114.56 23.3298C114.29 23.8898 114.04 24.4398 113.79 24.9698C113.54 25.4998 113.29 26.0498 113.02 26.6098C113.22 27.0698 113.42 27.5298 113.64 27.9698C113.85 28.4198 114.06 28.8598 114.26 29.2798C114.36 29.5098 114.46 29.7398 114.56 29.9498C114.66 30.1698 114.77 30.3898 114.91 30.6198L115.16 30.0198C115.42 29.4898 115.68 28.9598 115.93 28.4298C116.18 27.8998 116.43 27.3598 116.7 26.7898V26.6898L116.69 26.6998ZM124.39 36.4198C124.46 36.5898 124.51 36.7298 124.56 36.8698C124.61 36.9998 124.6 37.0998 124.54 37.1698L124.44 37.3198C124.37 37.3898 124.22 37.4898 123.97 37.6198C123.72 37.7498 123.55 37.7998 123.45 37.7698C123.32 37.6998 123.22 37.6198 123.15 37.5198L123.05 37.4198C122.98 37.3498 122.95 37.2698 122.95 37.1698L121.46 34.2898L120.77 32.8498L120.72 32.7998L120.67 32.8998L118.44 37.2198C118.37 37.3898 118.28 37.5398 118.17 37.6898C118.05 37.8398 117.95 37.8798 117.85 37.8098L116.86 37.3098C116.79 37.2398 116.78 37.1298 116.81 36.9598C116.84 36.7898 116.91 36.6298 117.01 36.4598L118.5 33.5798L119.59 31.3998L119.79 31.0498L119.99 30.6498C120.06 30.5198 120.19 30.3998 120.39 30.2998C120.46 30.2698 120.59 30.2498 120.79 30.2498C120.89 30.2498 121 30.2798 121.14 30.3498C121.34 30.4198 121.47 30.5298 121.54 30.6998L121.59 30.8498L121.69 30.9998L121.89 31.3498L122.24 32.0898L122.98 33.5298L124.42 36.4098L124.39 36.4198Z" fill="white"/>
<path d="M160.509 33.5C160.639 33.53 160.819 33.62 161.059 33.77C161.289 33.92 161.389 34.08 161.359 34.24C161.289 34.44 161.209 34.6 161.109 34.74C161.079 34.74 161.059 34.76 161.059 34.79C161.029 34.82 161.009 34.86 161.009 34.89C161.009 34.92 160.989 34.96 160.959 34.99C160.889 35.06 160.839 35.11 160.809 35.16C160.779 35.21 160.729 35.25 160.659 35.28C159.499 36.54 158.199 37.6 156.739 38.46C155.279 39.32 153.709 39.93 152.029 40.3C150.809 40.56 149.629 40.7 148.509 40.7V43.03C148.939 43.13 149.349 43.28 149.729 43.48C150.109 43.68 150.429 43.94 150.699 44.27C151.059 44.63 151.359 45.1 151.589 45.66C151.789 46.26 151.869 46.82 151.839 47.35C151.839 47.85 151.709 48.39 151.439 48.99C151.209 49.49 150.839 49.92 150.349 50.28C149.919 50.61 149.439 50.86 148.909 51.02C148.299 51.19 147.779 51.27 147.329 51.27C147.119 51.27 147.009 51.2 146.969 51.07V50.92C146.939 50.82 146.919 50.63 146.919 50.35C146.919 50.07 146.939 49.89 146.969 49.83L147.069 49.68H147.119C147.119 49.68 147.169 49.68 147.169 49.66C147.169 49.64 147.189 49.64 147.219 49.64C148.009 49.64 148.709 49.42 149.299 48.99C149.859 48.59 150.139 48.01 150.139 47.25C150.209 46.56 149.969 45.94 149.449 45.41C148.989 44.88 148.389 44.62 147.659 44.62H147.609C147.379 44.62 147.189 44.54 147.039 44.37C146.889 44.2 146.819 44.01 146.819 43.77V40.69C145.129 40.52 143.549 40.18 142.059 39.65C141.659 39.48 141.269 39.31 140.869 39.13C140.469 38.95 140.089 38.76 139.729 38.56C139.369 38.33 139.009 38.1 138.659 37.87C138.309 37.64 137.969 37.39 137.639 37.13C137.309 36.87 136.989 36.59 136.669 36.31C136.359 36.03 136.069 35.72 135.799 35.39C135.599 35.19 135.469 35.03 135.399 34.89L134.949 34.44C134.819 34.27 134.689 34.1 134.579 33.92C134.459 33.74 134.359 33.56 134.259 33.4C133.299 31.98 132.579 30.45 132.099 28.81C131.619 27.17 131.379 25.51 131.379 23.82C131.409 23.39 131.439 22.97 131.449 22.55C131.469 22.14 131.509 21.71 131.569 21.28C131.639 21.02 131.669 20.82 131.669 20.68L131.819 20.03L132.119 18.84C132.249 18.44 132.379 18.05 132.519 17.65C132.649 17.25 132.799 16.86 132.969 16.46C133.299 15.67 133.699 14.92 134.159 14.23C134.359 13.83 134.609 13.49 134.899 13.19L135.689 12.2L137.029 10.86L137.529 10.46C138.789 9.36999 140.209 8.47999 141.799 7.77999C143.389 7.11999 145.009 6.68999 146.659 6.48999C148.309 6.28999 149.999 6.36999 151.719 6.73999L152.959 7.03999L153.559 7.23999L154.159 7.43999C154.889 7.70999 155.649 8.04999 156.439 8.47999C157.929 9.33999 159.269 10.38 160.459 11.61C160.719 11.84 160.919 12.08 161.059 12.33C161.189 12.58 161.229 12.74 161.159 12.8C160.889 13.07 160.609 13.3 160.319 13.49C160.219 13.56 160.069 13.49 159.869 13.32C159.669 13.14 159.469 12.95 159.269 12.75C158.739 12.19 158.169 11.67 157.559 11.19C156.949 10.71 156.309 10.29 155.649 9.91999C155.319 9.74999 154.979 9.58999 154.629 9.41999C154.279 9.24999 153.929 9.10999 153.559 8.96999L153.009 8.76999L152.459 8.61999L151.369 8.31999C149.909 8.01999 148.409 7.95999 146.849 8.11999C145.289 8.28999 143.819 8.67999 142.429 9.30999C141.039 9.90999 139.749 10.7 138.559 11.69L138.109 12.09C137.939 12.19 137.809 12.32 137.709 12.49C137.579 12.62 137.439 12.75 137.309 12.86C137.179 12.98 137.039 13.12 136.909 13.28L136.169 14.17C135.939 14.43 135.719 14.75 135.519 15.11C135.319 15.41 135.129 15.72 134.949 16.05C134.769 16.38 134.589 16.73 134.429 17.09C134.129 17.75 133.879 18.48 133.689 19.27L133.389 20.36L133.289 20.96C133.259 21.06 133.229 21.15 133.219 21.23C133.199 21.31 133.199 21.4 133.199 21.5C133.129 21.86 133.089 22.24 133.079 22.64C133.059 23.04 133.039 23.42 133.009 23.78C133.009 25.34 133.219 26.85 133.659 28.32C134.089 29.79 134.729 31.16 135.589 32.41C135.689 32.58 135.799 32.73 135.909 32.88C136.029 33.03 136.149 33.19 136.279 33.35C136.409 33.55 136.529 33.7 136.629 33.8L136.979 34.25C137.509 34.78 138.069 35.29 138.669 35.79C138.969 36.05 139.269 36.29 139.589 36.48C139.899 36.68 140.229 36.88 140.559 37.08C140.889 37.28 141.219 37.45 141.549 37.6C141.879 37.75 142.229 37.91 142.589 38.07C143.909 38.57 145.299 38.86 146.759 38.96V36.38C146.759 36.18 146.859 36.08 147.059 36.08H148.199C148.369 36.08 148.449 36.18 148.449 36.38L148.499 39.01C149.029 39.01 149.559 38.98 150.089 38.91C150.619 38.84 151.149 38.76 151.679 38.66C153.169 38.3 154.569 37.73 155.899 36.97C157.219 36.21 158.409 35.27 159.469 34.14L159.719 33.89C159.789 33.82 159.839 33.78 159.869 33.77C159.899 33.75 159.939 33.71 159.969 33.65C160.169 33.52 160.299 33.45 160.369 33.45H160.519L160.509 33.5ZM155.099 17.62C155.169 17.69 155.139 17.87 155.029 18.17C154.909 18.47 154.759 18.77 154.559 19.06C154.129 19.79 153.709 20.52 153.289 21.24C152.879 21.97 152.439 22.7 151.979 23.42L154.609 27.89C154.939 28.45 155.109 28.87 155.109 29.13C155.109 29.2 155.109 29.24 155.089 29.25C155.069 29.27 155.069 29.29 155.069 29.32C154.999 29.42 154.849 29.54 154.619 29.69C154.389 29.84 154.189 29.86 154.019 29.76C153.889 29.69 153.749 29.54 153.619 29.31C153.589 29.24 153.539 29.16 153.469 29.06C153.399 28.99 153.349 28.93 153.299 28.86C153.249 28.79 153.209 28.73 153.179 28.66L151.049 25.04C150.849 25.34 150.659 25.64 150.479 25.96C150.299 26.27 150.109 26.6 149.909 26.93L148.719 28.86L148.619 28.96L148.719 29.16L149.119 29.76L149.809 30.95L151.299 33.38C151.499 33.68 151.549 33.89 151.449 34.03L151.349 34.13C151.279 34.2 151.129 34.31 150.879 34.48C150.629 34.65 150.469 34.71 150.409 34.68C150.309 34.68 150.209 34.63 150.109 34.53L150.009 34.43C149.939 34.36 149.909 34.3 149.909 34.23L148.419 31.8L147.649 30.61L147.599 30.51L147.549 30.66L145.299 34.23C145.069 34.66 144.849 34.83 144.649 34.73L143.759 34.13C143.689 34.06 143.679 33.96 143.709 33.83C143.739 33.7 143.809 33.55 143.909 33.38L145.349 30.95L146.139 29.76L146.489 29.16L146.339 28.91L145.999 28.27L145.219 26.98L144.189 25.14C143.829 25.74 143.469 26.33 143.119 26.93C142.769 27.53 142.419 28.12 142.049 28.72C141.849 29.05 141.649 29.34 141.449 29.59C141.249 29.84 141.099 29.95 140.999 29.91C140.699 29.78 140.389 29.58 140.059 29.31C139.989 29.24 140.029 29.07 140.159 28.79C140.289 28.51 140.439 28.2 140.609 27.87C141.069 27.14 141.509 26.41 141.919 25.69C142.329 24.96 142.759 24.24 143.189 23.51L140.609 19.09C140.439 18.83 140.309 18.57 140.209 18.32C140.109 18.07 140.079 17.9 140.109 17.8C140.109 17.7 140.129 17.63 140.159 17.6C140.229 17.5 140.369 17.38 140.609 17.23C140.839 17.08 141.019 17.06 141.159 17.16C141.289 17.23 141.439 17.38 141.609 17.61C141.639 17.68 141.689 17.76 141.759 17.86C141.889 18.06 141.989 18.19 142.059 18.26L144.189 21.88L145.309 20.04L146.089 18.7L146.479 18.05L146.629 17.8L146.079 16.91L145.339 15.72L143.899 13.29C143.699 12.99 143.649 12.78 143.749 12.65C143.749 12.62 143.749 12.59 143.769 12.58C143.789 12.56 143.789 12.54 143.789 12.51C143.859 12.44 144.009 12.34 144.259 12.19C144.509 12.04 144.679 11.98 144.779 12.02C144.849 12.02 144.929 12.07 145.029 12.17L145.129 12.27C145.129 12.27 145.189 12.34 145.199 12.37C145.219 12.4 145.239 12.44 145.269 12.47L146.709 14.85L147.479 16.09L147.529 16.19L147.629 16.04L148.399 14.85L149.889 12.42C149.959 12.25 150.049 12.12 150.159 12.02C150.279 11.92 150.379 11.9 150.479 11.97C150.649 12.07 150.799 12.16 150.949 12.24C151.099 12.32 151.259 12.43 151.419 12.56C151.489 12.63 151.489 12.73 151.439 12.86C151.389 12.99 151.329 13.14 151.269 13.31L149.779 15.69L149.039 16.93L148.639 17.53L148.589 17.63V17.68L148.789 18.03L149.189 18.67L149.929 20.01L151.019 21.8C151.379 21.2 151.739 20.61 152.089 20.01C152.439 19.41 152.789 18.82 153.159 18.22C153.359 17.89 153.559 17.6 153.759 17.35C153.959 17.1 154.109 17.01 154.209 17.08C154.379 17.15 154.529 17.22 154.679 17.3C154.829 17.38 154.969 17.49 155.099 17.62ZM150.039 23.48L150.089 23.43L148.549 20.8L147.729 19.51L147.629 19.31L147.479 19.61L146.669 20.9L145.079 23.48V23.53L146.619 26.16L147.379 27.45L147.479 27.65L147.679 27.35L148.499 26.06L150.039 23.48Z" fill="white"/>
<path d="M195.482 38.7099C195.582 38.9099 195.662 39.1099 195.732 39.3099C195.802 39.5099 195.812 39.6599 195.782 39.7599C195.712 39.8299 195.682 39.8799 195.682 39.9099C195.612 39.9799 195.452 40.0799 195.182 40.2099C194.912 40.3399 194.732 40.3799 194.632 40.3099L194.282 39.9099L194.182 39.7099C194.152 39.6399 194.112 39.5899 194.082 39.5599C194.052 39.5299 194.012 39.4799 193.982 39.4099L188.572 27.5999H183.362L181.872 30.7299L180.832 33.0099L180.582 33.5099L179.492 33.4599L179.292 32.9599C179.062 32.4299 178.832 31.9199 178.602 31.4199C178.372 30.9199 178.142 30.4399 177.912 29.9799C177.742 29.6199 177.562 29.2399 177.362 28.8399C177.162 28.4399 176.982 28.0299 176.812 27.5999H171.302C170.372 29.5799 169.452 31.5599 168.522 33.5299C167.592 35.4999 166.652 37.4699 165.692 39.4599C165.562 39.7299 165.422 39.9599 165.272 40.1499C165.122 40.3499 165.002 40.4299 164.902 40.3999L163.912 39.8999C163.842 39.8299 163.842 39.6899 163.912 39.4499C163.982 39.2199 164.082 38.9699 164.212 38.7099C165.502 36.0999 166.762 33.4799 167.982 30.8699C169.202 28.2599 170.432 25.6099 171.652 22.9299C172.252 21.6099 172.852 20.2899 173.462 18.9899C174.072 17.6799 174.692 16.3699 175.322 15.0499C175.622 14.3899 175.922 13.7299 176.242 13.0699C176.552 12.4099 176.882 11.7499 177.212 11.0899L178.152 9.14994L179.042 7.35994L179.242 7.10994C179.372 6.97994 179.502 6.87994 179.642 6.80994C179.872 6.73994 180.072 6.72994 180.242 6.75994C180.372 6.78994 180.542 6.87994 180.742 7.00994C180.872 7.13994 180.962 7.23994 180.992 7.30994L181.092 7.45994V7.50994L181.342 8.00994L181.792 8.99994L184.522 14.9499L188.192 22.8399L195.482 38.7199V38.7099ZM177.722 36.4699C177.792 36.5999 177.842 36.7399 177.872 36.8899C177.902 37.0399 177.892 37.1499 177.822 37.2099L177.722 37.3099C177.652 37.3799 177.502 37.4799 177.252 37.6099C177.002 37.7399 176.832 37.7899 176.732 37.7599C176.602 37.6899 176.512 37.6099 176.482 37.5099L176.382 37.4099C176.282 37.3099 176.232 37.2299 176.232 37.1599L174.792 34.2799L174.102 32.8399L174.052 32.7899V32.8899L173.312 34.2799L171.872 37.2099C171.772 37.3799 171.662 37.5299 171.552 37.6799C171.432 37.8299 171.332 37.8699 171.232 37.7999C171.062 37.7299 170.912 37.6499 170.762 37.5499C170.612 37.4499 170.452 37.3699 170.292 37.2999C170.222 37.2299 170.212 37.1199 170.242 36.9499C170.272 36.7799 170.322 36.6199 170.392 36.4499L172.572 32.0799L173.172 31.0399L173.222 30.8399L173.272 30.7399H173.322V30.6899C173.452 30.4899 173.602 30.3599 173.772 30.2899C173.842 30.2599 173.952 30.2399 174.122 30.2399C174.252 30.2399 174.382 30.2699 174.522 30.3399C174.622 30.4099 174.692 30.4599 174.742 30.5099C174.792 30.5599 174.852 30.6199 174.912 30.6799L175.012 30.9799L175.212 31.3799L176.302 33.5099L177.742 36.4399L177.722 36.4699ZM172.212 3.52994C172.042 3.39994 172.032 3.26994 172.162 3.12994C172.422 2.76994 172.682 2.43994 172.932 2.13994C173.182 1.83994 173.472 1.53994 173.802 1.24994C173.972 1.11994 174.132 0.989943 174.302 0.849943C174.472 0.719943 174.662 0.589943 174.902 0.449943L175.102 0.399943L175.252 0.349943L175.552 0.199943L176.242 0.0499429C176.702 -0.0200571 177.152 -0.0200571 177.582 0.0299429C178.012 0.0799429 178.422 0.169943 178.822 0.299943C179.182 0.369943 179.582 0.519943 180.012 0.749943L180.562 0.999943L181.112 1.34994C181.472 1.54994 181.802 1.75994 182.102 1.96994C182.402 2.18994 182.702 2.37994 182.992 2.53994L183.392 2.73994C183.462 2.73994 183.502 2.73994 183.512 2.75994C183.532 2.77994 183.572 2.77994 183.632 2.77994L183.832 2.82994C184.062 2.92994 184.332 2.94994 184.622 2.87994C185.152 2.77994 185.682 2.49994 186.212 2.03994C186.612 1.63994 187.022 1.09994 187.452 0.399943C187.552 0.299943 187.652 0.269943 187.752 0.299943C187.782 0.299943 187.812 0.299943 187.822 0.319943C187.842 0.339943 187.862 0.339943 187.892 0.339943C187.962 0.409943 188.112 0.499943 188.362 0.609943C188.612 0.729943 188.762 0.819943 188.832 0.879943C188.862 0.909943 188.882 0.979943 188.882 1.07994V1.12994C188.882 1.12994 188.862 1.19994 188.832 1.22994C188.632 1.58994 188.412 1.93994 188.162 2.26994C187.912 2.59994 187.622 2.90994 187.292 3.20994C186.992 3.50994 186.642 3.77994 186.222 4.02994C185.812 4.27994 185.372 4.43994 184.902 4.49994C184.342 4.56994 183.862 4.54994 183.462 4.44994L183.112 4.34994L182.762 4.24994L182.162 3.94994C181.802 3.74994 181.462 3.54994 181.142 3.32994C180.832 3.11994 180.502 2.90994 180.172 2.70994C179.972 2.57994 179.822 2.49994 179.722 2.45994L179.272 2.20994C179.102 2.13994 178.952 2.07994 178.802 2.00994C178.652 1.93994 178.492 1.88994 178.332 1.85994C177.602 1.62994 176.972 1.55994 176.442 1.65994L175.992 1.75994L175.742 1.85994H175.642L175.592 1.90994C175.362 2.00994 175.112 2.18994 174.852 2.45994C174.292 2.95994 173.822 3.48994 173.462 4.04994C173.362 4.21994 173.232 4.22994 173.062 4.09994L172.172 3.49994L172.212 3.52994ZM187.792 25.9599L186.702 23.5799L180.302 9.73994L180.002 9.13994L179.652 9.87994L178.712 11.8599C178.382 12.5199 178.062 13.1699 177.742 13.8199C177.432 14.4599 177.122 15.1199 176.822 15.7799L173.152 23.6699L172.112 25.9499H176.722C176.982 25.3899 177.242 24.8399 177.492 24.3099C177.742 23.7799 177.992 23.2399 178.262 22.6699L179.302 20.4399L179.552 19.9399H180.592L180.842 20.4399C181.072 20.9999 181.292 21.5199 181.512 21.9999C181.722 22.4799 181.952 22.9499 182.182 23.4099L183.372 25.9399H187.792V25.9599ZM181.892 26.6999L180.702 24.1199C180.602 23.8899 180.492 23.6699 180.382 23.4499C180.262 23.2399 180.162 22.9999 180.062 22.7299L179.762 23.3799L178.222 26.5999C178.422 27.0599 178.622 27.5199 178.842 27.9599C179.062 28.4099 179.262 28.8499 179.462 29.2699C179.562 29.4999 179.662 29.7299 179.762 29.9399C179.862 30.1599 179.972 30.3799 180.112 30.6099L180.412 30.0099L181.902 26.7899V26.6899L181.892 26.6999ZM189.582 36.4199C189.652 36.5899 189.702 36.7299 189.752 36.8699C189.802 36.9999 189.792 37.0999 189.732 37.1699L189.632 37.3199C189.562 37.3899 189.412 37.4899 189.162 37.6199C188.912 37.7499 188.742 37.7999 188.642 37.7699C188.512 37.6999 188.412 37.6199 188.342 37.5199L188.242 37.4199C188.172 37.3499 188.142 37.2699 188.142 37.1699L186.652 34.2899L185.962 32.8499L185.912 32.7999L185.862 32.8999L183.632 37.2199C183.562 37.3899 183.472 37.5399 183.362 37.6899C183.242 37.8399 183.142 37.8799 183.042 37.8099L182.052 37.3099C181.982 37.2399 181.972 37.1299 182.002 36.9599C182.032 36.7899 182.102 36.6299 182.202 36.4599L183.692 33.5799L184.782 31.3999L184.982 31.0499L185.182 30.6499C185.252 30.5199 185.382 30.3999 185.582 30.2999C185.652 30.2699 185.782 30.2499 185.982 30.2499C186.082 30.2499 186.192 30.2799 186.332 30.3499C186.532 30.4199 186.662 30.5299 186.732 30.6999L186.782 30.8499L186.882 30.9999L187.432 32.0899L188.172 33.5299L189.612 36.4099L189.582 36.4199Z" fill="white"/>
<path d="M227.538 14.2499C228.468 15.7099 229.148 17.2499 229.598 18.8899C230.048 20.5299 230.238 22.2199 230.168 23.9799C230.098 26.3599 229.568 28.6299 228.578 30.7799C227.588 32.9299 226.208 34.7799 224.458 36.3399C222.868 37.7299 221.118 38.7899 219.198 39.5199C217.278 40.2499 215.278 40.6099 213.198 40.6099H212.428C212.178 40.6099 211.928 40.5899 211.658 40.5599C209.248 40.3599 207.028 39.6999 205.008 38.5799C202.988 37.4599 201.268 35.9299 199.848 34.0199C198.388 32.0399 197.408 29.8499 196.898 27.4699C196.388 25.0899 196.408 22.6899 196.968 20.2799C197.528 17.7299 198.618 15.3899 200.238 13.2299C201.428 11.7099 202.788 10.4399 204.308 9.40986C205.828 8.38986 207.438 7.62986 209.148 7.14986C210.848 6.66986 212.608 6.46986 214.408 6.54986C216.208 6.62986 217.968 7.01986 219.688 7.71986C221.338 8.37986 222.818 9.26986 224.128 10.3699C225.438 11.4799 226.568 12.7799 227.528 14.2599L227.538 14.2499ZM228.528 23.9199C228.558 22.2999 228.368 20.7299 227.958 19.2099C227.548 17.6899 226.928 16.2899 226.118 15.0199C225.308 13.7499 224.308 12.6099 223.118 11.6199C221.928 10.6299 220.588 9.82986 219.098 9.23986C217.348 8.54986 215.538 8.19986 213.688 8.19986C211.408 8.19986 209.218 8.70986 207.118 9.73986C205.018 10.7699 203.188 12.2699 201.638 14.2599C200.878 15.2199 200.258 16.2299 199.778 17.2899C199.298 18.3499 198.928 19.4599 198.658 20.6099C198.198 22.7899 198.188 24.9599 198.638 27.1099C199.088 29.2599 199.948 31.2299 201.238 33.0099C202.498 34.7299 204.028 36.0899 205.848 37.0999C207.668 38.1099 209.668 38.6999 211.848 38.8599C213.998 39.0599 216.058 38.8399 218.028 38.1899C219.998 37.5399 221.778 36.5099 223.358 35.0899C224.948 33.6999 226.188 32.0299 227.078 30.0799C227.968 28.1299 228.448 26.0799 228.518 23.9299L228.528 23.9199ZM204.408 25.8099L202.668 27.7899C202.368 28.0899 202.138 28.1899 201.978 28.0899L201.188 27.3499C201.118 27.2799 201.118 27.1799 201.188 27.0499C201.258 26.9199 201.338 26.7999 201.438 26.6999L203.178 24.7199L204.018 23.7299L204.368 23.2799L204.268 23.1299L203.868 22.6299L203.078 21.5899L201.438 19.6099C201.208 19.3799 201.128 19.1799 201.188 19.0099C201.188 18.9799 201.218 18.9299 201.288 18.8599C201.358 18.7899 201.488 18.6599 201.688 18.4599C201.888 18.2599 202.038 18.1599 202.138 18.1599C202.168 18.1599 202.258 18.1899 202.388 18.2599C202.418 18.2599 202.518 18.3399 202.688 18.5099L204.378 20.5399L205.168 21.6299L205.768 22.3699L205.868 22.5199C205.968 22.6499 206.048 22.7799 206.118 22.9199C206.218 23.2199 206.188 23.5299 206.018 23.8599L205.868 24.0599L205.818 24.1099V24.1599L205.718 24.2599L205.268 24.7599L204.428 25.7999L204.408 25.8099ZM209.078 27.5899L206.048 31.3599H205.998C205.828 31.6199 205.658 31.8399 205.478 31.9999C205.298 32.1699 205.158 32.2199 205.058 32.1499C204.758 31.9499 204.478 31.7199 204.218 31.4599C204.148 31.3899 204.178 31.2499 204.288 31.0399C204.408 30.8299 204.558 30.5899 204.758 30.3199C205.258 29.6899 205.758 29.0699 206.268 28.4599C206.778 27.8499 207.288 27.2099 207.778 26.5499L209.318 24.7099L210.108 23.7699L210.458 23.2699L210.508 23.1699L210.208 22.7699L209.468 21.8299L207.928 19.9399L204.798 16.2699C204.628 16.0999 204.498 15.9299 204.398 15.7499C204.298 15.5699 204.248 15.4299 204.248 15.3299C204.248 15.2599 204.268 15.2099 204.298 15.1799C204.368 15.0799 204.498 14.9299 204.698 14.7299C204.898 14.5299 205.058 14.4499 205.198 14.4799C205.328 14.5499 205.458 14.6499 205.598 14.7799L206.048 15.2299L209.228 18.8999L210.768 20.7899L211.508 21.7799L211.908 22.2299L212.008 22.3799L212.058 22.4299L212.158 22.6299C212.288 22.8299 212.328 23.1099 212.258 23.4699L212.108 23.8699L211.958 24.0699L211.758 24.3199L211.358 24.7699L210.618 25.7099L209.078 27.5999V27.5899ZM208.578 12.7099C208.448 12.5399 208.348 12.3799 208.278 12.2099C208.208 12.0399 208.208 11.9299 208.278 11.8599C208.448 11.7299 208.588 11.6099 208.728 11.5099C208.858 11.4099 209.008 11.3099 209.178 11.2099C209.248 11.1399 209.348 11.1799 209.498 11.3099C209.648 11.4399 209.788 11.5899 209.918 11.7599L212.048 14.4899C212.218 14.7199 212.398 14.9499 212.598 15.1599C212.798 15.3799 212.978 15.6199 213.148 15.8799L213.498 16.3799V16.3299L214.048 15.6399L215.088 14.2499L217.218 11.4699C217.318 11.3399 217.428 11.2199 217.538 11.1199C217.658 11.0199 217.748 10.9699 217.808 10.9699H218.008C218.108 11.0399 218.268 11.1399 218.478 11.2899C218.688 11.4399 218.818 11.5599 218.848 11.6599C218.848 11.7299 218.818 11.8599 218.748 12.0599C218.718 12.0899 218.678 12.1399 218.648 12.2099C218.578 12.3399 218.528 12.4299 218.498 12.4599L215.368 16.6299L214.818 17.3199L214.568 17.6699L214.418 17.8199L214.368 17.9699L214.068 18.2199C213.798 18.3899 213.508 18.4399 213.178 18.3699C213.108 18.3399 213.058 18.2999 213.008 18.2699C212.958 18.2399 212.898 18.1999 212.838 18.1699L212.688 18.0199C212.688 18.0199 212.638 17.9999 212.638 17.9699L212.588 17.9199L212.338 17.5699L211.788 16.8799L210.748 15.4899C210.388 15.0299 210.018 14.5699 209.658 14.1299C209.298 13.6799 208.928 13.2099 208.568 12.7199L208.578 12.7099ZM218.458 34.3399C218.688 34.6999 218.788 34.9499 218.758 35.0799L218.658 35.2299C218.588 35.2999 218.448 35.4199 218.238 35.5999C218.018 35.7799 217.868 35.8599 217.768 35.8199L217.418 35.6199L217.118 35.3199C216.788 34.8599 216.458 34.4199 216.128 34.0099C215.798 33.5999 215.448 33.1599 215.088 32.6899L214.048 31.3499L213.548 30.6599L212.158 32.4499L210.078 35.0799C209.948 35.2499 209.808 35.3899 209.678 35.4999C209.548 35.6199 209.448 35.6399 209.378 35.5699L208.488 34.9199C208.418 34.8499 208.418 34.7399 208.488 34.5699C208.558 34.3999 208.658 34.2399 208.788 34.0699C209.148 33.6099 209.498 33.1599 209.828 32.7299C210.158 32.2999 210.508 31.8499 210.868 31.3899L211.908 30.0999L212.408 29.4499L212.658 29.0999L212.908 28.8499C212.978 28.8199 213.038 28.7799 213.108 28.7499C213.178 28.7199 213.238 28.6999 213.308 28.6999C213.568 28.5999 213.858 28.6299 214.148 28.7999C214.248 28.8699 214.328 28.9499 214.398 29.0499L214.498 29.1499L214.648 29.3499L214.898 29.6499L215.398 30.3399L216.388 31.6299L218.468 34.3099L218.458 34.3399ZM222.278 30.3699C222.478 30.5999 222.638 30.8299 222.748 31.0599C222.868 31.2899 222.888 31.4399 222.818 31.5099C222.648 31.6399 222.508 31.7599 222.368 31.8599C222.238 31.9599 222.088 32.0599 221.918 32.1599C221.848 32.2299 221.718 32.1799 221.518 32.0099C221.318 31.8399 221.138 31.6299 220.968 31.3699L217.938 27.6499L216.398 25.7599L215.608 24.8199L215.258 24.3699L215.158 24.2199L215.008 24.0699C214.908 23.9399 214.828 23.7099 214.758 23.3799C214.758 23.1499 214.808 22.8999 214.908 22.6399L215.108 22.3899L215.158 22.2899L215.558 21.7899L216.298 20.8499L217.788 18.9199L220.918 15.1999C221.088 15.0299 221.248 14.8899 221.418 14.7499C221.588 14.6199 221.718 14.5399 221.818 14.4999C221.848 14.4999 221.878 14.4999 221.888 14.5299C221.908 14.5499 221.928 14.5499 221.958 14.5499C222.088 14.5799 222.268 14.6799 222.478 14.8499C222.688 15.0199 222.788 15.1799 222.748 15.3499C222.748 15.3799 222.678 15.5299 222.548 15.7999C222.478 15.8699 222.428 15.9299 222.398 15.9999C222.328 16.0699 222.288 16.1199 222.278 16.1699C222.258 16.2199 222.238 16.2599 222.208 16.2899L219.078 19.9599L216.848 22.7899L216.498 23.2899L216.548 23.3399L216.898 23.7899L217.638 24.7299L222.248 30.3899L222.278 30.3699ZM220.888 22.5799C221.418 21.9499 221.938 21.3199 222.448 20.6899C222.958 20.0599 223.498 19.4299 224.058 18.7999C224.288 18.5699 224.468 18.4699 224.608 18.4999C224.638 18.4999 224.668 18.4999 224.678 18.5199C224.698 18.5399 224.718 18.5399 224.748 18.5399C224.848 18.6099 224.998 18.7399 225.198 18.9399C225.398 19.1399 225.508 19.2699 225.548 19.3399C225.548 19.4099 225.518 19.5099 225.448 19.6399C225.448 19.6699 225.428 19.7099 225.398 19.7399C225.328 19.8099 225.298 19.8599 225.298 19.8899C224.798 20.4499 224.318 21.0099 223.838 21.5799C223.358 22.1399 222.888 22.7199 222.428 23.3199L222.628 23.5699L223.418 24.5099L225.058 26.3499C225.318 26.6499 225.388 26.8599 225.258 26.9899L224.468 27.7299C224.398 27.7999 224.298 27.7999 224.168 27.7299C224.038 27.6599 223.918 27.5599 223.818 27.4299L222.178 25.5899L221.388 24.6499L220.988 24.1499L220.838 23.9999C220.838 23.9999 220.838 23.9499 220.818 23.9499C220.798 23.9499 220.798 23.9299 220.798 23.8999L220.648 23.5999C220.578 23.3999 220.578 23.1999 220.648 22.9999L220.798 22.6999L220.848 22.6499V22.5999L220.898 22.5499L220.888 22.5799Z" fill="white"/>
</g>
<defs>
<clipPath id="clip0_2405_462">
<rect width="281.15" height="87.94" fill="white"/>
</clipPath>
</defs>
</svg>
