<svg width="450" height="141" viewBox="0 0 450 141" fill="none" xmlns="http://www.w3.org/2000/svg">
<g clip-path="url(#clip0_2541_2298)">
<path d="M71.8191 61.2167C70.3946 63.9424 68.9861 66.6681 67.5616 69.3938C67.3375 69.8107 67.0174 69.8107 66.5693 69.6023C61.5595 67.4057 56.1816 67.2774 50.8677 66.9247C41.1042 66.2833 31.3407 66.3314 21.6093 67.55C18.5522 67.9348 15.3991 68.063 12.6141 69.6343C11.8458 70.0672 11.7018 69.49 11.4617 69.0571C9.82908 65.9947 8.21251 62.9162 6.33984 59.3888C9.25288 61.8901 11.8458 63.9745 14.2627 66.2512C15.6231 67.5179 16.0713 67.1652 16.6475 65.6259C18.3761 61.1365 20.2328 56.6952 22.1055 52.0454C25.8028 56.0699 29.372 59.966 32.9413 63.8462C35.2141 66.3154 35.1981 66.3154 36.6546 63.3652C37.5509 61.5534 38.5433 59.7897 39.6157 57.7855C40.8641 60.1905 42.0165 62.3551 43.0889 64.5356C43.7451 65.8985 44.3214 65.9626 45.3617 64.8082C49.1551 60.5913 53.0285 56.4386 57.0619 52.0614C58.8705 56.5188 60.6152 60.8158 62.3438 65.1128C63.4001 67.7103 63.4001 67.7263 65.5769 65.8504C67.4976 64.1829 69.4023 62.4833 71.307 60.8158C71.483 60.9601 71.6431 61.1044 71.8191 61.2327V61.2167Z" fill="#5F2E89"/>
<path d="M34.2342 60.768C29.7206 55.99 25.3511 51.3883 21.0135 46.7706C19.8771 45.5681 18.7247 44.3816 17.6363 43.131C16.58 41.9124 16.0518 42.3614 15.6516 43.6441C14.6113 47.0432 13.5709 50.4423 12.4985 53.9056C10.8819 53.1841 10.5618 52.19 11.058 50.5065C12.3865 46.0331 13.5069 41.4956 14.7873 36.6694C18.0045 40.0525 21.0296 43.2272 24.0386 46.4179C26.8076 49.3521 29.5926 52.2702 32.3136 55.2524C33.3379 56.3748 33.9461 56.5512 34.7144 55.0119C36.235 51.9495 37.8996 48.9672 39.5802 45.7926C41.2768 48.9352 42.9734 51.8373 44.4299 54.8516C45.2942 56.6474 45.8544 56.3588 47.0228 55.1081C52.7208 48.9672 58.5149 42.8905 64.405 36.6694C65.7655 41.7361 67.0459 46.6424 68.3904 51.5326C68.7265 52.7512 67.8142 53.2643 67.158 53.7613C66.5497 54.2103 66.5657 53.4246 66.4377 53.0238C65.5094 49.9934 64.581 46.963 63.6047 43.9487C62.9805 42.0086 62.7404 41.9605 61.3799 43.4196C56.3381 48.7588 51.2643 54.0659 46.3186 59.4853C45.0541 60.8642 44.638 60.4473 43.9817 59.1166C42.9253 56.9841 41.7569 54.9157 40.6205 52.8314C40.3804 52.3824 40.2204 51.7731 39.5481 51.8212C38.8919 51.8533 38.7799 52.4626 38.5398 52.9115C37.1313 55.509 35.7228 58.1064 34.2342 60.8161V60.768Z" fill="#5F2E89"/>
<path d="M39.5979 34.3921C42.2549 39.2663 44.7357 43.9161 47.2967 48.5177C47.9369 49.6722 47.0246 50.1692 46.4324 50.5861C45.568 51.2114 45.552 50.1371 45.328 49.7363C43.7274 46.9304 42.1748 44.1085 40.6063 41.2866C39.918 40.0359 39.3258 39.9237 38.5896 41.3026C37.085 44.1566 35.5005 46.9785 33.8999 49.7844C33.6758 50.1852 33.6438 51.2755 32.7795 50.5701C32.2193 50.1211 31.259 49.7203 31.9312 48.5177C34.4921 43.9161 36.957 39.2663 39.5979 34.3921Z" fill="#5F2E89"/>
<path d="M66.8728 72.2799C48.6743 68.4318 30.5399 68.4318 12.3574 72.2799C12.9496 71.2858 14.1501 71.1094 15.2064 70.8048C19.8641 69.474 24.6658 69.0571 29.4835 68.8487C38.1266 68.4799 46.7697 68.4318 55.3967 69.2976C58.7419 69.6343 62.0871 70.0031 65.2562 71.2377C65.8805 71.4782 66.6647 71.5744 66.8568 72.2959L66.8728 72.2799Z" fill="#5F2E89"/>
<path d="M40.7819 75.9033C47.6003 76.0637 55.3471 76.1278 62.9658 77.635C64.0542 77.8434 65.0946 78.3404 66.1189 78.7573C66.439 78.8856 66.9672 79.1421 66.7111 79.6071C66.375 80.2003 65.7668 80.5531 65.0465 80.4569C63.9101 80.2965 65.0465 79.9438 64.9985 79.6873C64.8705 78.6611 64.0062 78.597 63.2699 78.4527C59.7647 77.7793 56.2114 77.4746 52.6421 77.2822C41.086 76.6248 29.5299 76.6729 18.0218 78.0999C17.1735 78.2122 16.3252 78.3404 15.4769 78.5168C14.9007 78.6451 14.3085 78.8375 14.1644 79.543C14.1004 79.8797 14.7727 80.521 13.8123 80.4408C13.3001 80.3927 12.7079 80.1522 12.5159 79.6552C12.2118 78.9337 12.964 78.7894 13.3802 78.5809C16.2932 77.1379 19.5103 77.0257 22.6475 76.689C28.3615 76.0797 34.1075 75.9033 40.7659 75.9033H40.7819Z" fill="#5F2E89"/>
<path d="M0 46.9628C3.90539 50.5063 7.81078 54.0497 11.7162 57.5931C13.7969 59.4851 13.8929 59.453 14.8373 56.7433C15.6856 54.3223 16.5019 51.8691 17.4302 49.4641C17.6063 48.9991 17.3502 47.7485 18.3585 48.2134C19.0148 48.5181 19.8791 49.2075 19.3829 50.4421C18.1184 53.5526 16.982 56.7273 15.7976 59.8699C15.5895 60.4311 15.3655 60.9762 15.1894 61.5534C14.9493 62.3231 14.6612 62.4834 13.973 61.8581C10.1156 58.3307 6.22621 54.8674 2.35284 51.356C1.10439 50.2176 0.768273 48.502 0 46.9468L0 46.9628Z" fill="#5F2E89"/>
<path d="M64.4391 62.547C62.8226 58.3301 61.3661 54.3859 59.7975 50.4737C59.2373 49.0787 60.5498 48.8703 61.286 48.0205C62.2144 50.65 63.1427 53.2795 64.055 55.9091C64.1831 56.2778 64.2951 56.6626 64.4391 57.0314C65.2554 59.3242 65.4155 59.3723 67.2562 57.7209C70.4573 54.8508 73.6424 51.9648 76.8436 49.0948C77.2437 48.726 77.5158 48.0526 78.3961 48.3091C78.2841 49.704 77.5318 50.7302 76.5394 51.6281C72.57 55.2196 68.6006 58.7951 64.4391 62.547Z" fill="#5F2E89"/>
<path d="M12.3418 76.6895C12.4858 75.9359 13.3662 75.8397 14.0224 75.5992C17.6557 74.2684 21.465 73.8997 25.2904 73.5149C32.0768 72.8254 38.8952 72.9537 45.6817 73.1942C52.132 73.4347 58.7103 73.2263 64.9525 75.503C65.7368 75.7916 66.5691 75.952 66.9052 76.6895C48.7067 72.9056 30.5563 72.8575 12.3418 76.6895Z" fill="#5F2E89"/>
<path d="M65.9586 87.5117C66.0706 87.6239 66.0706 87.8484 65.9586 88.1851C65.8465 88.5378 65.6705 88.9227 65.3984 89.3395C63.1736 93.5243 61.0448 97.7251 59.0121 101.942C56.9794 106.159 54.9146 110.408 52.8499 114.705L46.6557 127.436L43.4866 133.801L41.822 136.895L40.6376 139.284L40.4775 139.525V139.605C40.4775 139.605 40.3975 139.653 40.3975 139.765C40.2854 139.878 40.1574 140.006 39.9973 140.166C39.8373 140.327 39.6292 140.455 39.3571 140.567C39.197 140.679 38.9089 140.727 38.4768 140.727C38.1567 140.615 37.9006 140.519 37.6765 140.407C37.4684 140.198 37.3244 140.038 37.2764 139.926C37.1163 139.765 37.0363 139.637 37.0363 139.525L35.8519 137.136L34.3473 133.961L12.6756 89.4197C12.5156 89.0509 12.3875 88.6982 12.2755 88.3775C12.1634 88.0568 12.1474 87.8163 12.1954 87.656C12.3075 87.5438 12.3555 87.4636 12.3555 87.4155C12.4675 87.3032 12.7076 87.1429 13.1078 86.9345C13.5079 86.726 13.812 86.6619 14.0201 86.7741C14.1321 86.8222 14.2122 86.9024 14.2922 87.0146C14.3722 87.1269 14.4683 87.2231 14.5643 87.3353C14.5643 87.3834 14.6123 87.5277 14.7243 87.7362C14.8364 87.9446 14.9324 88.1049 15.0445 88.2172L36.7162 132.759L38.2207 136.014L38.7809 137.04L39.5012 135.693L41.0857 132.598L44.2548 126.233L50.449 113.502C52.5138 109.253 54.5785 105.02 56.6432 100.772C58.708 96.5226 60.8527 92.3057 63.0775 88.121C63.2856 87.7041 63.5097 87.3193 63.7498 87.0146C63.9899 86.694 64.1819 86.5657 64.342 86.6138C64.9182 86.8864 65.4464 87.175 65.9265 87.4957L65.9586 87.5117ZM21.7348 90.2053C21.5748 90.045 21.6068 89.9167 21.8149 89.8045L22.0549 89.6442L23.6395 88.8425H23.8796C23.8796 88.8425 23.9116 88.9226 23.9596 88.9226L24.0397 89.0028L26.5045 93.7808L27.769 96.1699L27.929 96.4104L28.0891 96.0897L29.2735 93.7808L31.8184 89.0028C31.9305 88.7944 32.1065 88.7302 32.3786 88.8425L33.9632 89.7243C34.2353 89.8847 34.2833 90.045 34.1232 90.2053L31.6584 94.9834L29.7537 98.5589L29.3535 99.2002L29.1935 99.4407L29.0334 99.7614C28.9214 99.9698 28.7133 100.162 28.3932 100.323C28.2331 100.371 28.0251 100.403 27.753 100.403C27.5449 100.403 27.3208 100.355 27.1127 100.242L26.7126 99.9217C26.7126 99.9217 26.6806 99.8095 26.6326 99.7614L26.5525 99.6812V99.6011L26.4725 99.5209L25.9923 98.5589L25.4322 97.3724L24.1677 94.9834L21.7028 90.2053H21.7348ZM29.7537 109.301C30.4419 108.083 31.0982 106.848 31.7384 105.598C32.3786 104.347 33.0028 103.096 33.6431 101.814L35.6278 98.158L36.6681 96.25L37.1483 95.3682L37.5485 94.6467L37.6285 94.4863C37.8366 94.2138 38.1087 94.0053 38.4288 93.845C38.5408 93.7969 38.7489 93.7648 39.069 93.7648C39.3411 93.7648 39.5492 93.845 39.7092 94.0053L40.1094 94.326L40.1894 94.4863L40.2694 94.5665L40.4295 94.807L41.1497 96.234L42.1101 98.0618L44.0148 101.798L47.9041 109.269C48.0162 109.542 47.9842 109.718 47.8241 109.831L47.6641 109.991C47.552 110.103 47.2959 110.263 46.8638 110.472C46.4316 110.68 46.1755 110.793 46.0635 110.793C45.9034 110.793 45.7914 110.76 45.7434 110.712C45.6954 110.712 45.6633 110.68 45.6633 110.632C45.6153 110.584 45.5833 110.52 45.5833 110.472L41.6939 103L39.7893 99.3445L38.9089 97.677L37.9486 99.3445L36.0439 103.08L32.0745 110.472C31.9625 110.841 31.7544 110.953 31.4343 110.793C31.1622 110.68 30.9221 110.552 30.682 110.392C30.4419 110.231 30.1858 110.071 29.9298 109.911C29.6096 109.75 29.5616 109.542 29.7697 109.269L29.7537 109.301ZM33.0829 117.976C32.8108 117.767 32.7307 117.607 32.8428 117.495L35.2276 112.797L36.4121 110.488L37.0523 109.301L37.3724 108.74L37.5325 108.42L37.6125 108.339V108.179C37.7245 108.067 37.8046 107.987 37.8846 107.907C37.9646 107.826 38.1087 107.73 38.3167 107.634C38.6368 107.522 38.8769 107.474 39.037 107.474L39.5972 107.714L39.9973 108.035C39.9973 108.035 40.0293 108.147 40.0774 108.195L40.1574 108.275L40.3975 108.756L40.6376 109.317L41.2778 110.504L42.3822 112.813L44.767 117.511C44.815 117.623 44.767 117.751 44.607 117.912L44.4469 118.072L42.8624 118.874C42.7023 118.874 42.5903 118.841 42.5422 118.793L42.4622 118.713L40.0774 114.015L38.8929 111.706L38.8129 111.546L38.7329 111.706L37.5485 114.015C37.1163 114.817 36.7322 115.587 36.364 116.356C35.9959 117.126 35.5958 117.912 35.1796 118.697C35.1796 118.97 34.9875 118.986 34.6194 118.777C34.3473 118.665 34.1072 118.553 33.8671 118.425C33.6271 118.296 33.371 118.152 33.1149 117.992L33.0829 117.976ZM43.8867 90.2053C43.7267 90.045 43.7747 89.9167 44.0468 89.8045L44.2068 89.6442L45.7914 88.8425H46.1115L46.2716 89.0028L48.7364 93.7808L50.0009 96.1699L50.0809 96.4104L50.241 96.0897L51.5054 93.7808C51.9216 92.9792 52.3537 92.1935 52.7699 91.3918C53.186 90.5901 53.6182 89.8045 54.0343 89.0028C54.1464 88.7944 54.3224 88.7302 54.5945 88.8425L56.0991 89.7243C56.3712 89.9328 56.4352 90.0931 56.3391 90.2053L53.7942 94.9834L51.8896 98.5589L51.5694 99.2002L51.4094 99.4407L51.2493 99.7614C51.1373 99.9698 50.8972 100.162 50.5291 100.323C50.417 100.371 50.209 100.403 49.8888 100.403C49.7288 100.403 49.5367 100.355 49.3286 100.242L48.9285 99.9217C48.9285 99.9217 48.8485 99.8095 48.8485 99.7614L48.7684 99.6812V99.6011L48.6884 99.5209L48.2083 98.5589L47.568 97.3724L46.3836 94.9834L43.8387 90.2053H43.8867Z" fill="#5F2E89"/>
<path d="M110.438 138.098C110.598 138.419 110.726 138.74 110.838 139.06C110.95 139.381 110.966 139.622 110.918 139.782C110.806 139.894 110.758 139.974 110.758 140.022C110.646 140.135 110.39 140.295 109.958 140.503C109.526 140.712 109.238 140.776 109.078 140.664L108.518 140.022L108.357 139.702C108.309 139.589 108.245 139.509 108.197 139.461C108.149 139.413 108.085 139.333 108.037 139.221L99.3783 120.285H91.0393L88.6545 125.384L86.9899 128.959L86.5897 129.761L84.8451 129.681L84.525 128.879C84.1569 128.029 83.7887 127.211 83.4206 126.41C83.0525 125.608 82.6843 124.838 82.3162 124.101C82.0441 123.524 81.756 122.914 81.4359 122.273C81.1158 121.632 80.8277 120.974 80.5556 120.285H71.7365C70.2479 123.46 68.7754 126.634 67.2869 129.793C65.7983 132.952 64.2938 136.11 62.7573 139.301C62.5492 139.734 62.3251 140.103 62.085 140.407C61.8449 140.728 61.6529 140.856 61.4928 140.808L59.9082 140.006C59.7962 139.894 59.7962 139.67 59.9082 139.285C60.0203 138.916 60.1803 138.515 60.3884 138.098C62.4532 133.914 64.4699 129.713 66.4226 125.528C68.3753 121.343 70.344 117.094 72.2967 112.797C73.257 110.681 74.2173 108.564 75.1937 106.48C76.17 104.38 77.1624 102.279 78.1707 100.163C78.6509 99.1045 79.1311 98.0462 79.6433 96.988C80.1394 95.9298 80.6676 94.8716 81.1958 93.8134L82.7004 90.7028L83.8848 88.3138L83.9648 88.0733L84.0448 87.9931L84.1249 87.8328L84.445 87.432C84.653 87.2235 84.8611 87.0632 85.0852 86.9509C85.4533 86.8387 85.7734 86.8227 86.0455 86.8708C86.2536 86.9189 86.5257 87.0632 86.8458 87.2716C87.0539 87.4801 87.1819 87.6404 87.246 87.7526L87.406 87.9931V88.0733L87.8062 88.875L88.5264 90.4623L92.896 100.002L98.7701 112.653L110.438 138.114V138.098ZM81.9961 134.523C82.1081 134.731 82.1882 134.956 82.2362 135.196C82.2842 135.437 82.2682 135.613 82.1562 135.709L81.9961 135.87C81.8841 135.982 81.644 136.142 81.2438 136.351C80.8437 136.559 80.5716 136.639 80.4115 136.591C80.2035 136.479 80.0594 136.351 80.0114 136.19L79.8513 136.03C79.6913 135.87 79.6113 135.741 79.6113 135.629L77.3064 131.011L76.202 128.703L76.122 128.622V128.783L74.9376 131.011L72.6328 135.709C72.4727 135.982 72.2967 136.222 72.1206 136.463C71.9285 136.703 71.7685 136.768 71.6084 136.655C71.3363 136.543 71.0962 136.415 70.8561 136.254C70.6161 136.094 70.36 135.966 70.1039 135.854C69.9918 135.741 69.9758 135.565 70.0238 135.292C70.0719 135.02 70.1519 134.763 70.2639 134.491L73.7532 127.484L74.7135 125.817L74.7935 125.496L74.8736 125.336H74.9536V125.255C75.1617 124.935 75.4018 124.726 75.6739 124.614C75.7859 124.566 75.962 124.534 76.2341 124.534C76.4421 124.534 76.6502 124.582 76.8743 124.694C77.0343 124.806 77.1464 124.887 77.2264 124.967C77.3064 125.047 77.4025 125.143 77.4985 125.239L77.6586 125.72L77.9787 126.362L79.7233 129.777L82.0281 134.475L81.9961 134.523ZM98.1298 117.655L96.3852 113.839L86.1416 91.6488L85.6614 90.6868L85.1012 91.8733L83.5967 95.064C83.0685 96.1222 82.5563 97.1644 82.0441 98.2066C81.5479 99.2327 81.0518 100.291 80.5716 101.349L74.6975 114L73.0329 117.655H80.4115C80.8277 116.758 81.2438 115.876 81.644 115.026C82.0441 114.176 82.4443 113.31 82.8764 112.396L84.541 108.821L84.8611 108.019H86.6858L87.0059 108.901C87.374 109.751 87.7261 110.552 88.0783 111.322C88.4144 112.092 88.7825 112.845 89.1507 113.583L91.0553 117.639H98.1298V117.655ZM88.6705 118.858L86.7658 114.721C86.6057 114.352 86.4297 114 86.2536 113.647C86.0615 113.31 85.9015 112.925 85.7414 112.493L85.2613 113.455C84.8291 114.352 84.429 115.234 84.0288 116.084C83.6287 116.934 83.2285 117.816 82.7964 118.714C83.1165 119.451 83.4366 120.189 83.7887 120.894C84.1249 121.616 84.461 122.321 84.7811 122.995C84.9412 123.363 85.1012 123.732 85.2613 124.069C85.4213 124.422 85.5974 124.774 85.8215 125.143L86.2216 124.181C86.6378 123.331 87.0539 122.482 87.454 121.632C87.8542 120.782 88.2543 119.916 88.6865 119.002V118.842L88.6705 118.858ZM100.979 134.443C101.091 134.715 101.171 134.94 101.251 135.164C101.331 135.373 101.315 135.533 101.219 135.645L101.059 135.886C100.947 135.998 100.707 136.158 100.307 136.367C99.9065 136.575 99.6344 136.655 99.4743 136.607C99.2662 136.495 99.1062 136.367 98.9941 136.206L98.8341 136.046C98.7221 135.934 98.674 135.806 98.674 135.645L96.2892 131.027L95.1848 128.719L95.1048 128.638L95.0247 128.799L91.4555 135.725C91.3434 135.998 91.1994 136.238 91.0233 136.479C90.8312 136.719 90.6712 136.784 90.5111 136.671L88.9266 135.87C88.8145 135.757 88.7985 135.581 88.8465 135.308C88.8946 135.036 89.0066 134.779 89.1667 134.507L91.5515 129.889L93.2961 126.394L93.6162 125.833L93.9363 125.191C94.0484 124.983 94.2565 124.79 94.5766 124.63C94.6886 124.582 94.8967 124.55 95.2168 124.55C95.3769 124.55 95.5529 124.598 95.777 124.71C96.0971 124.822 96.3052 124.999 96.4172 125.271L96.4973 125.512L96.6573 125.752L96.9774 126.314L97.5376 127.5L98.7221 129.809L101.027 134.427L100.979 134.443Z" fill="#5F2E89"/>
<path d="M116.872 123.075C116.712 122.963 116.456 122.786 116.12 122.514C115.768 122.241 115.576 122.033 115.528 121.872C115.528 121.664 115.576 121.471 115.688 121.311C115.688 121.263 115.72 121.199 115.768 121.151C115.816 121.103 115.864 121.039 115.88 120.99C115.912 120.942 115.944 120.878 115.992 120.83L121.306 114.224L115.992 107.618C115.784 107.346 115.624 107.105 115.512 106.865C115.4 106.624 115.4 106.448 115.512 106.352C115.784 106.143 116.008 105.951 116.232 105.791C116.44 105.63 116.68 105.47 116.952 105.31C117.064 105.197 117.224 105.213 117.432 105.342C117.641 105.47 117.833 105.678 117.993 105.935L123.082 112.14L128.092 105.935C128.572 105.358 128.941 105.133 129.197 105.294C129.469 105.454 129.693 105.614 129.917 105.775C130.125 105.935 130.333 106.143 130.557 106.416C130.669 106.528 130.669 106.688 130.557 106.897C130.445 107.105 130.317 107.346 130.157 107.618L124.763 114.224L130.157 120.83C130.269 120.99 130.365 121.183 130.477 121.391C130.589 121.6 130.605 121.76 130.557 121.872C130.557 121.92 130.557 121.969 130.525 121.985C130.493 122.017 130.493 122.049 130.493 122.097C130.381 122.209 130.157 122.401 129.821 122.69C129.469 122.979 129.229 123.123 129.069 123.123C128.909 123.123 128.748 123.043 128.588 122.882C128.54 122.882 128.476 122.834 128.396 122.722C128.316 122.61 128.22 122.53 128.124 122.482L123.114 116.277L118.025 122.482C117.705 122.898 117.416 123.123 117.144 123.123C117.096 123.075 117.016 123.043 116.904 123.043L116.872 123.075ZM122.506 125.688L118.217 131.252C118.057 131.412 117.897 131.557 117.737 131.685C117.576 131.813 117.416 131.877 117.256 131.877C117.208 131.829 117.128 131.797 117.016 131.797C116.856 131.685 116.6 131.509 116.264 131.236C115.912 130.963 115.72 130.755 115.672 130.595C115.672 130.482 115.72 130.322 115.832 130.114C115.832 130.066 115.864 129.985 115.912 129.873C115.96 129.825 116.008 129.761 116.024 129.713C116.056 129.665 116.088 129.601 116.136 129.552L119.001 125.817L120.506 123.989L121.53 122.562L121.85 122.241V122.161L122.17 121.92C122.378 121.808 122.506 121.76 122.57 121.76C123.146 121.552 123.627 121.6 123.995 121.92C124.107 121.969 124.171 122.033 124.187 122.081C124.219 122.129 124.251 122.193 124.299 122.241L124.379 122.321L124.459 122.482L124.859 122.963L125.579 123.925L126.924 125.752L129.789 129.568C129.949 129.841 130.061 130.082 130.141 130.322C130.221 130.563 130.205 130.739 130.109 130.835C129.901 130.995 129.677 131.172 129.437 131.348C129.197 131.541 128.941 131.701 128.684 131.861C128.572 131.974 128.412 131.941 128.204 131.781C127.996 131.621 127.804 131.412 127.644 131.14L124.859 127.324L123.435 125.496L123.034 124.935L122.474 125.656L122.506 125.688ZM117.657 100.708C117.128 100.018 117.128 99.2969 117.657 98.5594L121.706 93.5408V87.4961C121.706 87.2236 121.818 87.0953 122.026 87.0953C122.074 87.0472 122.154 87.0151 122.266 87.0151H123.178C123.627 87.0151 123.899 87.0472 124.011 87.0953C124.171 87.0953 124.251 87.1434 124.251 87.2556V87.3358C124.251 87.3358 124.283 87.448 124.331 87.4961V93.5408L128.38 98.6395C129.021 99.2809 129.037 99.9703 128.46 100.708L124.411 105.871C124.091 106.352 123.643 106.592 123.066 106.592C122.49 106.592 122.042 106.352 121.722 105.871L117.673 100.708H117.657ZM120.281 99.6817L123.066 103.257L125.851 99.6817L123.066 96.2666L120.281 99.6817ZM156.806 138.339C156.854 138.98 156.854 139.557 156.806 140.087C156.806 140.407 156.598 140.568 156.166 140.568H123.451C122.65 140.455 122.122 140.071 121.866 139.381L121.706 138.82V130.386C121.706 130.066 121.818 129.857 122.026 129.745C122.138 129.745 122.218 129.713 122.266 129.665C122.426 129.665 122.73 129.665 123.178 129.633C123.627 129.601 123.899 129.633 124.011 129.745C124.171 129.857 124.251 129.953 124.251 130.066V130.226C124.251 130.226 124.283 130.338 124.331 130.386V137.938H156.182C156.598 137.826 156.822 137.97 156.822 138.339H156.806Z" fill="#5F2E89"/>
<path d="M207.002 137.938C207.483 138.419 207.691 138.787 207.643 139.044C207.643 139.156 207.611 139.236 207.563 139.285C207.451 139.445 207.259 139.685 206.97 140.006C206.682 140.327 206.426 140.487 206.218 140.487L205.738 140.247C205.738 140.247 205.61 140.198 205.498 140.086C205.386 139.974 205.29 139.878 205.178 139.766L199.064 133.561C196.567 135.789 193.862 137.457 190.917 138.579C187.972 139.685 184.947 140.247 181.825 140.247C178.704 140.247 175.551 139.637 172.382 138.419C169.837 137.36 167.548 135.982 165.516 134.282C163.483 132.582 161.738 130.578 160.314 128.237C157.401 123.684 156.024 118.665 156.184 113.198C156.296 109.494 157.129 105.951 158.681 102.616C160.25 99.2806 162.379 96.3785 165.068 93.9413C167.772 91.5523 170.814 89.8047 174.207 88.6983C177.6 87.592 181.137 87.1912 184.851 87.5119C188.548 87.8325 191.973 88.8587 195.094 90.5743C198.215 92.3059 200.888 94.6468 203.113 97.6131C205.386 100.692 206.906 104.075 207.675 107.762C208.443 111.45 208.427 115.202 207.643 119.018C206.746 122.994 205.018 126.634 202.473 129.921L200.968 131.749L207.002 137.954V137.938ZM173.374 135.869C177.456 137.521 181.617 137.938 185.827 137.136C190.036 136.334 193.814 134.49 197.159 131.572L189.78 124.02L189.62 123.86H189.06L187.62 123.78H184.755L179.024 123.62C178.336 123.62 177.904 123.523 177.744 123.315C177.696 123.267 177.664 123.187 177.664 123.091C177.552 122.93 177.52 122.642 177.536 122.209C177.568 121.776 177.632 121.503 177.728 121.407C177.84 121.311 177.92 121.247 178 121.247C178.08 121.247 178.176 121.215 178.272 121.166C178.32 121.166 178.448 121.167 178.624 121.134C178.816 121.102 178.96 121.102 179.057 121.102L184.707 121.183L187.572 121.263H189.012L189.092 121.343L189.172 121.022V119.595C189.22 119.114 189.252 118.633 189.252 118.168V116.821L189.332 111.097C189.332 110.729 189.364 110.392 189.444 110.103C189.524 109.815 189.636 109.67 189.796 109.67C190.116 109.622 190.421 109.606 190.709 109.638C190.997 109.67 191.285 109.702 191.541 109.751C191.701 109.751 191.813 109.895 191.861 110.183C191.909 110.472 191.941 110.809 191.941 111.178L191.861 116.821V118.248C191.861 118.729 191.829 119.21 191.781 119.675V121.102L191.701 121.808V122.353L199 129.696L200.344 128.189C202.617 125.175 204.153 121.904 204.954 118.409C205.69 115.074 205.706 111.723 204.986 108.388C204.265 105.053 202.905 102.022 200.888 99.3126C198.936 96.6029 196.551 94.4865 193.734 92.9473C190.933 91.408 187.844 90.4781 184.514 90.1574C184.146 90.1574 183.778 90.1574 183.442 90.1253C183.09 90.0933 182.738 90.0933 182.37 90.0933C179.457 90.0933 176.656 90.5903 174.015 91.6004C171.358 92.6106 168.925 94.1017 166.684 96.0578C164.235 98.2384 162.331 100.82 160.954 103.818C159.578 106.816 158.825 109.991 158.729 113.326C158.617 115.875 158.905 118.28 159.562 120.573C160.218 122.85 161.194 124.983 162.475 126.971C163.755 128.959 165.308 130.707 167.132 132.214C168.957 133.721 171.022 134.955 173.31 135.917L173.374 135.869ZM174.911 111.931C174.431 111.819 173.951 111.739 173.439 111.659C172.942 111.578 172.414 111.482 171.886 111.386C171.246 111.226 170.862 110.889 170.702 110.36C170.493 109.67 170.269 109.013 170.061 108.372C169.853 107.73 169.613 107.121 169.341 106.544C169.133 105.967 168.909 105.357 168.701 104.748C168.493 104.139 168.253 103.513 167.981 102.872C167.821 102.343 167.933 101.846 168.301 101.365C168.669 100.884 169.149 100.724 169.725 100.884C170.525 100.996 171.31 101.124 172.11 101.285C172.91 101.445 173.695 101.605 174.495 101.766C175.023 101.878 175.519 101.958 175.999 102.038C176.48 102.119 176.976 102.215 177.504 102.311C178.032 102.359 178.432 102.712 178.688 103.353C178.896 103.994 179.105 104.62 179.329 105.261C179.537 105.902 179.777 106.512 180.049 107.089L181.233 110.584C181.505 111.161 181.425 111.723 180.993 112.252C180.625 112.621 180.193 112.813 179.729 112.813C179.569 112.813 179.457 112.781 179.409 112.733L174.879 111.931H174.911ZM173.086 108.821L175.391 109.302L178.176 109.783L177.536 108.035L176.352 104.78C175.919 104.732 175.551 104.668 175.199 104.62C174.847 104.572 174.463 104.491 174.047 104.379L171.262 103.818C171.374 104.139 171.47 104.443 171.582 104.732C171.694 105.021 171.79 105.309 171.902 105.566L173.086 108.821ZM175.871 118.056C175.295 117.96 174.943 117.831 174.847 117.671C174.847 117.623 174.847 117.575 174.815 117.559C174.783 117.527 174.783 117.495 174.783 117.447C174.735 117.286 174.703 116.998 174.703 116.565C174.703 116.132 174.751 115.859 174.863 115.747L175.343 115.523H175.583C175.743 115.523 175.871 115.491 175.983 115.442L182.898 115.603H183.858L183.938 114.497V112.188L184.018 107.57C184.018 106.881 184.178 106.48 184.514 106.383C184.835 106.383 185.155 106.383 185.459 106.416C185.763 106.448 186.051 106.448 186.323 106.448C186.707 106.56 186.835 106.945 186.739 107.634L186.659 112.252V114.561L186.579 115.747V116.821L186.419 117.367C186.259 117.671 186.003 117.912 185.683 118.056L185.107 118.216H184.61L184.034 118.136H180.545L175.935 118.056H175.871Z" fill="#5F2E89"/>
<path d="M255.05 122.193V122.706C255.05 122.899 255.018 123.059 254.97 123.219C254.922 123.861 254.858 124.502 254.778 125.175C254.698 125.833 254.586 126.49 254.426 127.131C254.106 128.462 253.673 129.745 253.113 130.996C252.553 132.246 251.833 133.401 250.936 134.459C250.04 135.565 249.064 136.527 247.991 137.329C246.983 138.066 245.799 138.74 244.422 139.317C243.158 139.846 241.861 140.215 240.533 140.423C239.204 140.632 237.86 140.712 236.483 140.664C235.155 140.616 233.842 140.471 232.546 140.263C231.249 140.055 229.969 139.702 228.689 139.221C227.424 138.692 226.224 138.034 225.119 137.233C224.015 136.431 223.007 135.517 222.094 134.443C220.35 132.262 219.181 129.825 218.605 127.131C218.237 125.753 218.029 124.454 217.965 123.235L217.885 122.193V119.323L217.805 89.0996C217.805 88.5705 217.837 88.1055 217.885 87.7047C217.933 87.3038 218.077 87.0794 218.285 87.0313C218.557 86.9832 218.829 86.9671 219.117 86.9992C219.405 87.0313 219.709 87.0313 220.029 87.0313C220.142 87.0794 220.222 87.3199 220.302 87.7528C220.382 88.1857 220.414 88.6346 220.414 89.0996L220.494 119.323V121.231L220.574 122.113V122.995C220.686 124.326 220.862 125.512 221.134 126.57C221.406 127.677 221.774 128.767 222.238 129.825C222.718 130.883 223.327 131.861 224.063 132.775C225.599 134.523 227.456 135.854 229.617 136.752C230.673 137.169 231.794 137.473 232.946 137.666C234.114 137.858 235.299 137.97 236.515 138.018C237.732 138.018 238.9 137.938 240.005 137.778C241.173 137.569 242.277 137.249 243.334 136.816C243.91 136.543 244.454 136.303 244.966 136.062C245.463 135.822 245.927 135.517 246.359 135.148C247.255 134.459 248.071 133.657 248.824 132.759C249.56 131.861 250.184 130.883 250.696 129.809C251.193 128.751 251.577 127.661 251.849 126.554C252.057 125.384 252.217 124.197 252.329 122.979C252.329 122.866 252.329 122.738 252.361 122.578C252.393 122.418 252.393 122.257 252.393 122.097V89.0836C252.393 88.1857 252.505 87.5764 252.713 87.2557L252.953 87.0954C253.113 86.9832 253.417 86.9351 253.866 86.9351C254.314 86.9351 254.586 87.0473 254.698 87.2557C254.858 87.4161 254.938 87.6886 254.938 88.0574V88.4583C254.938 88.5705 254.938 88.6667 254.97 88.7789C255.002 88.8912 255.018 88.9874 255.018 89.0996V122.193H255.05ZM224.863 108.901C224.495 108.532 224.335 108.244 224.383 108.019C224.383 107.971 224.383 107.923 224.415 107.907C224.447 107.875 224.447 107.843 224.447 107.795C224.559 107.635 224.751 107.394 225.039 107.073C225.327 106.753 225.551 106.576 225.712 106.512C225.824 106.512 225.968 106.56 226.192 106.672L226.352 106.833C226.464 106.945 226.56 106.993 226.672 106.993L236.195 116.068L245.799 106.993C246.279 106.512 246.647 106.384 246.903 106.592L248.087 107.859C248.248 108.067 248.087 108.42 247.607 108.885L238.084 117.88L238.324 118.121L241.269 120.91L242.774 122.337L243.094 122.658L243.334 122.818L243.494 122.979L243.654 123.139C243.974 123.508 244.07 123.957 243.974 124.486C243.862 124.807 243.766 125.015 243.654 125.127L243.414 125.368L243.014 125.688L240.069 128.478L237.924 130.627L237.524 130.947L237.444 131.028L237.284 131.108L236.964 131.348C236.643 131.461 236.387 131.509 236.163 131.509C235.795 131.509 235.507 131.428 235.283 131.268C235.171 131.268 235.075 131.22 234.963 131.108L234.883 131.028V130.947H234.803L234.403 130.547L232.258 128.478L229.313 125.688L228.913 125.368L228.833 125.288V125.207L228.753 125.127C228.545 124.919 228.432 124.678 228.432 124.406C228.32 124.133 228.32 123.877 228.432 123.604L228.673 123.203L228.833 123.043L229.633 122.241L231.057 120.894L234.002 118.104L234.243 117.864L224.799 108.869L224.863 108.901ZM228.512 102.552C228.144 102.071 227.952 101.734 227.952 101.51L228.112 101.269C228.224 101.109 228.416 100.868 228.705 100.548C228.993 100.227 229.217 100.067 229.377 100.067C229.489 100.067 229.649 100.115 229.857 100.227L230.417 100.628L235.587 105.871L236.387 106.753L242.501 100.628C242.71 100.355 242.934 100.179 243.174 100.067C243.414 99.9544 243.59 99.9544 243.686 100.067C244.166 100.435 244.582 100.868 244.95 101.333C245.11 101.542 244.902 101.943 244.31 102.52L239.14 107.683L238.18 108.564L237.54 109.206L237.46 109.366L237.3 109.446C237.188 109.494 237.108 109.559 237.06 109.607C237.012 109.655 236.931 109.687 236.819 109.687C236.499 109.847 236.179 109.847 235.859 109.687C235.699 109.687 235.507 109.575 235.299 109.366H235.219L235.139 109.286L234.979 109.045L234.499 108.645L233.618 107.763L231.954 106.015L228.464 102.52L228.512 102.552ZM231.217 95.946C230.945 95.7375 230.865 95.497 230.977 95.2245L231.137 95.0641C231.249 94.9038 231.458 94.6633 231.778 94.3426C232.098 94.0219 232.306 93.8616 232.418 93.8616C232.53 93.8135 232.594 93.7975 232.61 93.8295C232.642 93.8616 232.706 93.8616 232.802 93.8616C232.85 93.8616 232.914 93.8937 232.962 93.9418L233.122 94.1021L235.187 96.2506L236.291 97.2768L236.371 97.4371L236.611 97.2768L239.78 94.1021C240.101 93.6852 240.389 93.6051 240.661 93.8616L241.845 95.1283C242.053 95.3367 241.973 95.6093 241.605 95.9299L239.54 98.0784L238.436 99.1848L237.876 99.6658L237.636 99.9865L237.476 100.067L237.316 100.227C237.156 100.387 236.996 100.467 236.835 100.467C236.563 100.628 236.259 100.628 235.875 100.467C235.715 100.467 235.555 100.387 235.395 100.227L234.915 99.7459L233.33 98.0784L231.185 95.9299L231.217 95.946ZM236.227 119.724L235.907 120.045L232.962 122.834L231.618 124.181L234.163 126.57L235.587 127.997L236.227 128.558L236.867 127.997L238.372 126.57L240.917 124.181L239.572 122.834L236.627 120.045L236.227 119.724Z" fill="#5F2E89"/>
<path d="M267.117 89.1796C267.117 89.1796 267.037 89.0513 267.037 88.9391C266.989 88.7788 266.957 88.4741 266.957 88.0252C266.957 87.5762 267.005 87.3037 267.117 87.1914L267.438 86.9509H267.598C267.598 86.9509 267.71 86.9509 267.758 86.9189C267.806 86.8868 267.87 86.8868 267.918 86.8868H282.531C282.739 86.8868 282.947 86.9189 283.123 86.967C283.315 87.0151 283.395 87.1594 283.395 87.3678C283.443 87.8969 283.443 88.4741 283.395 89.1155C283.395 89.2277 283.299 89.3079 283.123 89.388C282.931 89.4682 282.739 89.5003 282.531 89.5003H276.737L276.657 99.9222C276.657 99.9222 276.689 100.002 276.737 100.002L280.626 105.245C281.106 105.935 281.122 106.624 280.706 107.314L276.737 112.717C276.417 113.198 275.969 113.439 275.392 113.439C274.816 113.439 274.352 113.198 274.048 112.717L270.159 107.314C269.63 106.576 269.63 105.887 270.159 105.245L274.048 100.002V89.5003H267.934C267.774 89.5003 267.614 89.4682 267.454 89.4201C267.294 89.372 267.181 89.2918 267.133 89.1796H267.117ZM282.515 138.018C282.723 137.97 282.931 137.986 283.107 138.05C283.299 138.13 283.379 138.243 283.379 138.403C283.427 139.044 283.427 139.622 283.379 140.151C283.379 140.311 283.283 140.423 283.107 140.503C282.915 140.584 282.723 140.616 282.515 140.616L267.902 140.696C267.47 140.696 267.214 140.584 267.101 140.375C267.053 140.327 267.021 140.247 267.021 140.135C266.973 139.974 266.941 139.67 266.941 139.221C266.941 138.772 266.989 138.499 267.101 138.387C267.149 138.227 267.262 138.146 267.422 138.146H267.582C267.582 138.146 267.694 138.146 267.742 138.114C267.79 138.082 267.854 138.082 267.902 138.082L273.696 138.002L273.776 128.222L269.406 122.337C269.246 122.129 269.134 121.92 269.054 121.744C268.974 121.552 269.022 121.407 269.166 121.311C269.374 121.103 269.582 120.91 269.806 120.75C270.015 120.59 270.255 120.429 270.527 120.269C270.639 120.157 270.799 120.157 271.007 120.269C271.215 120.381 271.375 120.541 271.487 120.75L275.136 125.608L279.026 120.67H279.106C279.426 120.349 279.682 120.189 279.906 120.189C279.954 120.237 280.034 120.269 280.146 120.269C280.258 120.381 280.482 120.557 280.818 120.83C281.154 121.103 281.363 121.311 281.411 121.471C281.459 121.584 281.443 121.744 281.331 121.952C281.331 122.001 281.299 122.065 281.25 122.113C281.202 122.161 281.17 122.225 281.17 122.273C281.17 122.321 281.138 122.353 281.09 122.353L276.401 128.238V138.018H282.515ZM268.782 83.7763C268.782 83.7763 268.702 83.648 268.702 83.5358L268.782 83.3754C270.639 81.9965 272.463 80.5856 274.256 79.1265C276.049 77.6674 277.857 76.1923 279.65 74.7172C279.762 74.605 279.922 74.6691 280.13 74.8776L281.235 76.2244C281.395 76.4328 281.427 76.5932 281.315 76.7054C277.713 79.7358 274.064 82.6699 270.351 85.54C270.191 85.54 270.063 85.4919 269.95 85.3796L269.79 85.2193C269.678 85.1071 269.502 84.8826 269.23 84.4978C268.958 84.129 268.798 83.8885 268.75 83.7763H268.782ZM281.411 113.599C281.459 113.711 281.475 113.791 281.443 113.839C281.411 113.887 281.411 113.968 281.411 114.08C281.363 114.08 281.315 114.128 281.299 114.24C281.267 114.352 281.202 114.433 281.106 114.481L278.722 117.511L277.457 119.018L276.897 119.82L276.577 120.221L276.257 120.541C276.049 120.75 275.889 120.894 275.777 120.942C275.344 121.103 274.928 121.103 274.512 120.942C274.24 120.894 274.064 120.782 273.952 120.622C273.952 120.574 273.952 120.541 273.92 120.541C273.888 120.541 273.872 120.509 273.872 120.461H273.792V120.381H273.712L273.472 119.98L272.832 119.179L271.727 117.591L269.342 114.497C269.23 114.288 269.15 114.08 269.07 113.904C268.99 113.711 269.038 113.567 269.182 113.471C269.39 113.262 269.598 113.07 269.822 112.909C270.031 112.749 270.271 112.589 270.543 112.428C270.751 112.316 271.071 112.477 271.503 112.909L273.808 116.004L274.992 117.591L275.152 117.752L275.472 117.351L276.657 115.844L279.122 112.813C279.442 112.493 279.698 112.364 279.922 112.412C280.034 112.412 280.114 112.444 280.162 112.493C280.274 112.541 280.498 112.717 280.834 113.006C281.17 113.294 281.379 113.503 281.427 113.599H281.411ZM275.376 102.696L272.671 106.271L275.376 110.007L278.081 106.271L275.376 102.696Z" fill="#5F2E89"/>
<path d="M331.686 138.019C331.846 138.291 331.99 138.548 332.118 138.82C332.246 139.093 332.294 139.269 332.23 139.381L332.07 139.622C331.958 139.734 331.718 139.911 331.349 140.183C330.981 140.456 330.709 140.552 330.549 140.504C330.341 140.392 330.149 140.263 329.989 140.103C329.941 140.055 329.877 139.975 329.829 139.862L329.509 139.542L315.856 119.179L315.616 118.778C314.56 119.147 313.359 119.42 312.047 119.58C310.782 119.788 309.518 119.933 308.269 120.013C307.021 120.093 305.788 120.125 304.572 120.125C304.092 120.125 303.66 120.093 303.259 120.013C302.859 119.933 302.635 119.82 302.587 119.66C302.539 119.388 302.523 119.099 302.555 118.778C302.587 118.458 302.619 118.169 302.667 117.896C302.667 117.736 302.859 117.624 303.259 117.576C303.66 117.528 304.092 117.496 304.572 117.496C305.788 117.447 306.973 117.383 308.141 117.335C309.31 117.287 310.478 117.143 311.63 116.934C312.735 116.774 313.855 116.55 314.96 116.261C316.064 115.972 317.136 115.555 318.129 115.026C320.242 114.016 321.89 112.621 323.059 110.81C323.635 109.912 324.099 108.934 324.403 107.859C324.563 107.33 324.675 106.801 324.755 106.272C324.835 105.743 324.899 105.182 324.947 104.604V102.857C324.947 102.584 324.947 102.328 324.915 102.055C324.883 101.783 324.851 101.526 324.803 101.253C324.643 100.147 324.323 99.1049 323.843 98.1589C323.427 97.1969 322.818 96.3311 322.05 95.5294C321.282 94.7277 320.418 94.0383 319.473 93.4611C318.513 92.8839 317.505 92.3708 316.416 91.9539C315.328 91.537 314.239 91.1843 313.119 90.9117C312.015 90.5911 310.878 90.3345 309.742 90.1582C308.605 89.9657 307.421 89.8214 306.205 89.7252C305.036 89.613 303.868 89.5649 302.715 89.5649C301.563 89.5649 300.362 89.597 299.146 89.6451V94.8239L299.226 109.383V138.419C299.226 138.836 299.194 139.221 299.146 139.574C299.098 139.927 299.018 140.151 298.906 140.247C298.858 140.247 298.81 140.247 298.794 140.279C298.778 140.311 298.73 140.311 298.682 140.311C298.522 140.424 298.218 140.472 297.77 140.472C297.321 140.472 297.049 140.392 296.937 140.231L296.697 139.43C296.649 139.317 296.617 139.189 296.617 139.029V109.35L296.537 94.7919V89.2282C296.537 89.116 296.569 89.0358 296.617 88.9877C296.617 88.8274 296.665 88.651 296.777 88.4265C296.825 88.1058 297.049 87.8172 297.417 87.5447C297.626 87.3362 297.946 87.1759 298.378 87.0637C298.586 87.0637 298.746 87.0316 298.858 86.9835H299.018C300.234 86.9354 301.467 86.9033 302.715 86.9033C303.964 86.9033 305.212 86.9514 306.493 87.0637C307.069 87.1759 307.677 87.2561 308.317 87.3042C308.958 87.3523 309.566 87.4324 310.142 87.5447C311.47 87.705 312.703 87.9776 313.871 88.3463C315.088 88.667 316.272 89.0518 317.441 89.5008C318.609 89.9497 319.745 90.5269 320.85 91.2164C322.018 91.9539 323.043 92.7877 323.939 93.6856C324.211 93.9581 324.435 94.2147 324.611 94.4872C324.803 94.7598 324.995 95.0164 325.203 95.2889C325.411 95.5615 325.603 95.8341 325.763 96.1227C325.924 96.4113 326.084 96.6999 326.244 96.9564C326.884 98.2231 327.284 99.5218 327.428 100.853C327.476 101.173 327.524 101.494 327.54 101.815C327.572 102.135 327.572 102.456 327.572 102.777V104.765C327.46 105.406 327.38 106.031 327.3 106.673C327.22 107.314 327.076 107.939 326.868 108.581C326.548 109.847 326.02 111.082 325.283 112.236C324.595 113.295 323.699 114.305 322.578 115.267C322.05 115.684 321.522 116.069 320.994 116.421C320.466 116.774 319.905 117.095 319.329 117.415L318.145 117.896L331.638 138.019H331.686ZM307.133 106.833C306.605 106.512 306.076 106.208 305.548 105.919C305.02 105.631 304.46 105.294 303.884 104.925C303.612 104.813 303.436 104.653 303.324 104.412C303.211 104.172 303.163 103.915 303.163 103.658C303.163 103.129 303.436 102.68 303.964 102.312C304.652 101.943 305.324 101.574 305.996 101.205C306.653 100.837 307.341 100.436 308.029 100.019L310.574 98.5919C311.102 98.3193 311.63 98.3193 312.159 98.5919C312.735 98.9606 313.295 99.3134 313.823 99.634C314.351 99.9547 314.912 100.275 315.488 100.596L318.513 102.344C319.089 102.664 319.393 103.145 319.393 103.771C319.393 104.396 319.105 104.877 318.513 105.198L314.704 107.346C314.287 107.619 313.839 107.859 313.391 108.1C312.943 108.34 312.511 108.597 312.079 108.853C311.919 108.966 311.678 109.014 311.358 109.014C311.198 109.014 311.054 109.014 310.926 108.982C310.798 108.95 310.654 108.918 310.494 108.869C309.966 108.501 309.422 108.148 308.861 107.827C308.301 107.507 307.741 107.186 307.149 106.865L307.133 106.833ZM306.973 103.658L308.477 104.54C308.958 104.813 309.438 105.069 309.902 105.342C310.382 105.615 310.862 105.871 311.326 106.144L313.311 105.037L315.616 103.771L314.111 102.889C313.631 102.616 313.151 102.36 312.687 102.087C312.207 101.815 311.727 101.558 311.262 101.286L309.278 102.392L306.973 103.658ZM323.107 138.419C323.379 138.788 323.443 139.077 323.347 139.301C323.347 139.349 323.299 139.43 323.187 139.542C323.075 139.654 322.834 139.814 322.466 140.055C322.098 140.295 321.826 140.408 321.666 140.408C321.618 140.408 321.474 140.36 321.266 140.247L321.106 140.087C320.994 139.975 320.946 139.895 320.946 139.846L312.207 126.795C311.791 126.314 311.711 125.945 311.967 125.689L313.471 124.727C313.583 124.614 313.727 124.631 313.903 124.759C314.095 124.887 314.239 125.063 314.335 125.272L323.075 138.403L323.107 138.419Z" fill="#5F2E89"/>
<path d="M340.01 89.1795C340.01 89.1795 339.93 89.0513 339.93 88.939C339.882 88.7787 339.85 88.4741 339.85 88.0251C339.85 87.5762 339.898 87.3036 340.01 87.1914L340.33 86.9509H340.49C340.49 86.9509 340.602 86.9509 340.65 86.9188C340.698 86.8867 340.762 86.8867 340.81 86.8867H355.423C355.631 86.8867 355.839 86.9188 356.015 86.9669C356.207 87.015 356.287 87.1593 356.287 87.3677C356.335 87.8968 356.335 88.4741 356.287 89.1154C356.287 89.2276 356.191 89.3078 356.015 89.388C355.823 89.4681 355.631 89.5002 355.423 89.5002H349.629L349.549 99.9221C349.549 99.9221 349.581 100.002 349.629 100.002L353.518 105.245C353.999 105.935 354.015 106.624 353.598 107.314L349.629 112.717C349.309 113.198 348.861 113.438 348.285 113.438C347.708 113.438 347.244 113.198 346.94 112.717L343.051 107.314C342.523 106.576 342.523 105.887 343.051 105.245L346.94 100.002V89.5002H340.826C340.666 89.5002 340.506 89.4681 340.346 89.42C340.186 89.3719 340.074 89.2918 340.026 89.1795H340.01ZM355.423 138.018C355.631 137.97 355.839 137.986 356.015 138.05C356.207 138.13 356.287 138.243 356.287 138.403C356.335 139.044 356.335 139.621 356.287 140.151C356.287 140.311 356.191 140.423 356.015 140.503C355.823 140.583 355.631 140.616 355.423 140.616L340.81 140.696C340.378 140.696 340.122 140.583 340.01 140.375C339.962 140.327 339.93 140.247 339.93 140.135C339.882 139.974 339.85 139.67 339.85 139.221C339.85 138.772 339.898 138.499 340.01 138.387C340.058 138.226 340.17 138.146 340.33 138.146H340.49C340.49 138.146 340.602 138.146 340.65 138.114C340.698 138.082 340.762 138.082 340.81 138.082L346.604 138.002L346.684 128.222L342.314 122.337C342.154 122.129 342.042 121.92 341.962 121.744C341.882 121.551 341.93 121.407 342.074 121.311C342.282 121.103 342.491 120.91 342.715 120.75C342.923 120.589 343.163 120.429 343.435 120.269C343.547 120.157 343.707 120.157 343.915 120.269C344.123 120.381 344.283 120.541 344.395 120.75L348.045 125.608L351.934 120.67H352.014C352.334 120.349 352.59 120.189 352.814 120.189C352.862 120.237 352.942 120.269 353.054 120.269C353.166 120.381 353.39 120.557 353.727 120.83C354.063 121.103 354.271 121.311 354.319 121.471C354.367 121.584 354.351 121.744 354.239 121.952C354.239 122 354.207 122.065 354.159 122.113C354.111 122.161 354.079 122.225 354.079 122.273C354.079 122.321 354.047 122.353 353.999 122.353L349.309 128.238V138.018H355.423ZM354.319 113.599C354.367 113.711 354.383 113.791 354.351 113.839C354.319 113.887 354.319 113.968 354.319 114.08C354.271 114.08 354.223 114.128 354.207 114.24C354.175 114.352 354.111 114.433 354.015 114.481L351.63 117.511L350.365 119.018L349.805 119.82L349.485 120.221L349.165 120.541C348.957 120.75 348.797 120.894 348.685 120.942C348.253 121.103 347.836 121.103 347.42 120.942C347.148 120.894 346.972 120.782 346.86 120.622C346.86 120.573 346.86 120.541 346.828 120.541C346.796 120.541 346.78 120.509 346.78 120.461H346.7V120.381H346.62L346.38 119.98L345.74 119.179L344.635 117.591L342.25 114.497C342.138 114.288 342.058 114.08 341.978 113.903C341.898 113.711 341.946 113.567 342.09 113.471C342.298 113.262 342.507 113.07 342.731 112.909C342.939 112.749 343.179 112.589 343.451 112.428C343.659 112.316 343.979 112.476 344.411 112.909L346.716 116.004L347.9 117.591L348.061 117.752L348.381 117.351L349.565 115.844L352.03 112.813C352.35 112.492 352.606 112.364 352.83 112.412C352.942 112.412 353.022 112.444 353.07 112.492C353.182 112.541 353.406 112.717 353.743 113.006C354.079 113.294 354.287 113.503 354.335 113.599H354.319ZM348.269 102.696L345.564 106.271L348.269 110.007L350.974 106.271L348.269 102.696Z" fill="#5F2E89"/>
<path d="M413.393 138.098C413.553 138.419 413.681 138.74 413.793 139.06C413.905 139.381 413.921 139.622 413.873 139.782C413.761 139.894 413.713 139.974 413.713 140.022C413.601 140.135 413.345 140.295 412.913 140.503C412.481 140.712 412.193 140.776 412.033 140.664L411.473 140.022L411.313 139.702C411.265 139.589 411.201 139.509 411.152 139.461C411.104 139.413 411.04 139.333 410.992 139.221L402.333 120.285H393.994L391.61 125.384L389.945 128.959L389.545 129.761L387.8 129.681L387.48 128.879C387.112 128.029 386.744 127.211 386.376 126.41C386.008 125.608 385.639 124.838 385.271 124.101C384.999 123.524 384.711 122.914 384.391 122.273C384.071 121.632 383.783 120.974 383.511 120.285H374.692C373.203 123.46 371.73 126.634 370.242 129.793C368.753 132.952 367.249 136.11 365.712 139.301C365.504 139.734 365.28 140.103 365.04 140.407C364.8 140.728 364.608 140.856 364.448 140.808L362.863 140.006C362.751 139.894 362.751 139.67 362.863 139.285C362.975 138.916 363.135 138.515 363.343 138.098C365.408 133.914 367.425 129.713 369.378 125.528C371.33 121.343 373.299 117.094 375.252 112.797C376.212 110.681 377.172 108.564 378.149 106.48C379.125 104.38 380.117 102.279 381.126 100.163C381.606 99.1045 382.086 98.0462 382.598 96.988C383.094 95.9298 383.623 94.8716 384.151 93.8134L385.655 90.7028L386.84 88.3138L386.92 88.0733L387 87.9931L387.08 87.8328L387.4 87.432C387.608 87.2235 387.816 87.0632 388.04 86.9509C388.408 86.8387 388.729 86.8227 389.001 86.8708C389.209 86.9189 389.481 87.0632 389.801 87.2716C390.009 87.4801 390.137 87.6404 390.201 87.7526L390.361 87.9931V88.0733L390.761 88.875L391.481 90.4623L395.851 100.002L401.725 112.653L413.393 138.114V138.098ZM384.967 134.523C385.079 134.731 385.159 134.956 385.207 135.196C385.255 135.437 385.239 135.613 385.127 135.709L384.967 135.87C384.855 135.982 384.615 136.142 384.215 136.351C383.815 136.559 383.543 136.639 383.383 136.591C383.175 136.479 383.03 136.351 382.982 136.19L382.822 136.03C382.662 135.87 382.582 135.741 382.582 135.629L380.278 131.011L379.173 128.703L379.093 128.622V128.783L377.909 131.011L375.604 135.709C375.444 135.982 375.268 136.222 375.092 136.463C374.9 136.703 374.74 136.768 374.579 136.655C374.307 136.543 374.067 136.415 373.827 136.254C373.587 136.094 373.331 135.966 373.075 135.854C372.963 135.741 372.947 135.565 372.995 135.292C373.043 135.02 373.123 134.763 373.235 134.491L376.724 127.484L377.685 125.817L377.765 125.496L377.845 125.336H377.925V125.255C378.133 124.935 378.373 124.726 378.645 124.614C378.757 124.566 378.933 124.534 379.205 124.534C379.413 124.534 379.621 124.582 379.845 124.694C380.005 124.806 380.117 124.887 380.197 124.967C380.277 125.047 380.374 125.143 380.47 125.239L380.63 125.72L380.95 126.362L382.694 129.777L384.999 134.475L384.967 134.523ZM401.085 117.655L399.34 113.839L389.097 91.6488L388.616 90.6868L388.056 91.8733L386.552 95.064C386.024 96.1222 385.511 97.1644 384.999 98.2066C384.503 99.2327 384.007 100.291 383.527 101.349L377.653 114L375.988 117.655H383.367C383.783 116.758 384.199 115.876 384.599 115.026C384.999 114.176 385.399 113.31 385.831 112.396L387.496 108.821L387.816 108.019H389.641L389.961 108.901C390.329 109.751 390.681 110.552 391.033 111.322C391.369 112.092 391.738 112.845 392.106 113.583L394.01 117.639H401.085V117.655ZM391.626 118.858L389.721 114.721C389.561 114.352 389.385 114 389.209 113.647C389.017 113.31 388.857 112.925 388.697 112.493L388.216 113.455C387.8 114.352 387.384 115.234 386.984 116.084C386.584 116.934 386.184 117.816 385.751 118.714C386.072 119.451 386.392 120.189 386.744 120.894C387.08 121.616 387.416 122.321 387.736 122.995C387.896 123.363 388.056 123.732 388.216 124.069C388.376 124.422 388.552 124.774 388.777 125.143L389.177 124.181C389.593 123.331 390.009 122.482 390.409 121.632C390.809 120.782 391.209 119.916 391.642 119.002V118.842L391.626 118.858ZM403.934 134.443C404.046 134.715 404.126 134.94 404.206 135.164C404.286 135.373 404.27 135.533 404.174 135.645L404.014 135.886C403.902 135.998 403.662 136.158 403.262 136.367C402.862 136.575 402.589 136.655 402.429 136.607C402.221 136.495 402.061 136.367 401.949 136.206L401.789 136.046C401.677 135.934 401.629 135.806 401.629 135.645L399.244 131.027L398.14 128.719L398.06 128.638L397.98 128.799L394.411 135.725C394.298 135.998 394.154 136.238 393.978 136.479C393.786 136.719 393.626 136.784 393.466 136.671L391.882 135.87C391.77 135.757 391.754 135.581 391.802 135.308C391.85 135.036 391.962 134.779 392.122 134.507L394.507 129.889L396.251 126.394L396.571 125.833L396.891 125.191C397.003 124.983 397.212 124.79 397.532 124.63C397.644 124.582 397.852 124.55 398.172 124.55C398.332 124.55 398.524 124.598 398.732 124.71C399.052 124.822 399.26 124.999 399.372 125.271L399.452 125.512L399.612 125.752L399.932 126.314L400.493 127.5L401.677 129.809L403.982 134.427L403.934 134.443Z" fill="#5F2E89"/>
<path d="M449.919 127.051C450.079 128.382 449.999 129.681 449.679 130.947C449.471 132.214 448.943 133.449 448.095 134.603C447.406 135.661 446.526 136.639 445.47 137.553C443.405 139.141 441.052 140.183 438.395 140.648C437.179 140.808 435.962 140.92 434.746 140.969C433.529 141.017 432.281 141.001 431.017 140.888C429.688 140.728 428.472 140.487 427.367 140.167C426.151 139.846 424.95 139.365 423.798 138.74C423.222 138.419 422.678 138.082 422.165 137.698C421.669 137.329 421.173 136.896 420.693 136.431C420.213 135.95 419.781 135.453 419.38 134.924C418.98 134.395 418.644 133.817 418.388 133.176L418.228 132.936C418.228 132.936 418.228 132.823 418.196 132.775C418.164 132.727 418.164 132.663 418.164 132.615C418.052 132.407 418.004 132.214 418.004 132.054C417.892 131.685 417.892 131.445 418.004 131.332L418.164 131.092C418.276 130.98 418.548 130.867 418.996 130.739C419.444 130.611 419.749 130.595 419.909 130.707L420.309 131.268L420.469 131.589L420.629 131.829C420.629 131.829 420.629 131.926 420.661 131.942C420.693 131.974 420.693 132.006 420.693 132.054C421.173 132.952 421.797 133.785 422.566 134.523C423.334 135.261 424.166 135.902 425.062 136.431C425.959 136.912 426.967 137.313 428.088 137.617C429.192 137.986 430.28 138.195 431.337 138.259C432.441 138.371 433.561 138.387 434.666 138.339C435.77 138.291 436.891 138.179 437.995 138.018C440.172 137.601 442.092 136.752 443.789 135.469C445.534 134.042 446.654 132.342 447.118 130.37C447.39 129.264 447.438 128.222 447.278 127.276C447.118 126.169 446.862 125.175 446.478 124.326C445.95 123.315 445.374 122.45 444.733 121.696C444.093 120.894 443.309 120.157 442.349 119.467C441.868 119.099 441.404 118.746 440.956 118.425C440.508 118.105 440.012 117.816 439.484 117.543C438.427 116.902 437.419 116.373 436.459 115.956C435.402 115.427 434.346 114.898 433.289 114.369C432.233 113.84 431.177 113.262 430.12 112.621C429.064 111.98 428.04 111.29 427.063 110.553C426.087 109.815 425.142 108.965 424.246 108.003C423.814 107.586 423.43 107.105 423.062 106.576C422.694 106.047 422.342 105.486 422.021 104.909C421.381 103.738 420.933 102.52 420.677 101.253C420.565 100.932 420.501 100.612 420.485 100.291C420.453 99.9704 420.421 99.6498 420.373 99.3291V98.2869C420.373 97.87 420.405 97.5494 420.453 97.3249C420.565 95.946 420.933 94.6473 421.557 93.4287C422.133 92.3224 422.966 91.2802 424.022 90.3182C425.126 89.4203 426.247 88.7309 427.351 88.2498C428.568 87.6726 429.784 87.2718 431.001 87.0634C431.641 86.9511 432.265 86.8709 432.905 86.8228C433.545 86.7747 434.17 86.7427 434.81 86.7427C436.074 86.7908 437.339 86.9832 438.587 87.3039C439.836 87.6245 441.036 88.1055 442.205 88.7309C443.309 89.3081 444.333 90.0616 445.262 90.9595C446.19 91.8574 447.022 92.8355 447.759 93.9097C448.079 94.3266 448.303 94.7435 448.431 95.1443C448.559 95.5452 448.543 95.8017 448.399 95.8979C448.127 96.0582 447.871 96.2025 447.598 96.3308C447.326 96.4591 447.07 96.5873 446.798 96.6835C446.686 96.7316 446.526 96.6194 446.286 96.3308C446.046 96.0422 445.79 95.7055 445.534 95.3367C444.269 93.4768 442.733 92.0498 440.924 91.0397C439.019 90.0296 436.955 89.4684 434.73 89.3722C433.561 89.3722 432.473 89.4844 431.481 89.6929C430.424 89.8532 429.384 90.1739 428.392 90.6549C427.431 91.0878 426.567 91.6329 425.767 92.3224C424.966 93.0118 424.342 93.8135 423.862 94.7114C423.43 95.5131 423.174 96.4591 423.062 97.5814C423.014 97.7418 422.982 97.9983 422.982 98.3831V99.1046L423.222 100.692C423.494 101.75 423.862 102.728 424.326 103.642C424.806 104.604 425.431 105.47 426.231 106.272C426.967 107.073 427.783 107.795 428.648 108.452C429.528 109.11 430.456 109.735 431.465 110.328C432.473 110.905 433.497 111.467 434.522 111.996C435.546 112.525 436.603 113.054 437.659 113.583L440.828 115.251C441.356 115.571 441.868 115.908 442.381 116.245C442.877 116.597 443.405 116.95 443.933 117.319C444.413 117.752 444.894 118.169 445.358 118.586C445.838 119.018 446.286 119.467 446.702 119.932C447.118 120.413 447.518 120.926 447.887 121.488C448.255 122.049 448.575 122.61 448.847 123.203C449.375 124.31 449.727 125.592 449.887 127.019L449.919 127.051ZM427.447 128.318C427.127 127.997 426.967 127.629 426.967 127.212C426.967 126.731 427.143 126.362 427.511 126.105L430.28 123.716C430.696 123.348 431.129 122.979 431.545 122.61C431.961 122.241 432.409 121.872 432.889 121.504C433.257 121.231 433.674 121.103 434.122 121.103C434.57 121.103 434.97 121.231 435.338 121.504L438.491 124.294C438.859 124.566 439.211 124.855 439.564 125.175C439.9 125.496 440.268 125.817 440.636 126.137C440.956 126.41 441.116 126.779 441.116 127.244C441.116 127.677 440.924 128.013 440.572 128.286L437.803 130.675L435.034 133.064C434.762 133.272 434.426 133.385 434.01 133.385C433.529 133.385 433.161 133.256 432.905 132.984C432.329 132.567 431.769 132.102 431.241 131.637C430.712 131.156 430.168 130.675 429.576 130.21C429.208 129.889 428.856 129.569 428.504 129.248C428.168 128.927 427.799 128.639 427.431 128.366L427.447 128.318ZM429.752 101.991C429.864 102.263 429.72 102.392 429.352 102.392H427.607C427.287 102.392 427.127 102.263 427.127 101.991V96.0262C427.127 95.8177 427.239 95.7055 427.447 95.7055C427.495 95.6574 427.575 95.6253 427.687 95.6253H428.6C429.048 95.6253 429.32 95.6574 429.432 95.7055C429.48 95.7055 429.512 95.7055 429.512 95.7376C429.512 95.7696 429.544 95.7696 429.592 95.7696H429.672V95.8498C429.672 95.8498 429.704 95.962 429.752 96.0101V101.975V101.991ZM430.392 127.212L431.353 128.093L434.058 130.402C434.426 130.13 434.778 129.841 435.082 129.52C435.402 129.2 435.722 128.911 436.042 128.639C436.362 128.366 436.667 128.126 436.955 127.885C437.243 127.645 437.531 127.388 437.787 127.131L436.827 126.25L434.122 123.941L432.057 125.688L430.392 127.196V127.212ZM435.546 104.46C435.546 104.877 435.418 105.117 435.146 105.181H433.401C433.081 105.133 432.921 104.893 432.921 104.46V93.7975C432.921 93.4768 433.033 93.3004 433.241 93.2363C433.289 93.1882 433.369 93.1561 433.481 93.1561C433.641 93.108 433.946 93.076 434.394 93.076C434.842 93.076 435.114 93.1241 435.226 93.2363C435.386 93.2363 435.466 93.3165 435.466 93.4768V93.6372C435.466 93.6372 435.498 93.7494 435.546 93.7975V104.46ZM441.26 101.991C441.26 102.263 441.1 102.392 440.796 102.392H439.099C438.731 102.392 438.603 102.263 438.715 101.991H438.635V96.0262H438.715C438.715 95.8177 438.811 95.7055 439.019 95.7055C439.067 95.6574 439.147 95.6253 439.243 95.6253H440.124C440.556 95.6253 440.828 95.6574 440.94 95.7055C440.988 95.7055 441.036 95.7055 441.052 95.7376C441.084 95.7696 441.116 95.7696 441.164 95.7696V95.8498C441.164 95.962 441.196 96.0101 441.244 96.0101V101.975L441.26 101.991Z" fill="#5F2E89"/>
<path d="M147.317 61.5053C147.637 61.9382 147.893 62.307 148.118 62.6597C148.326 63.0125 148.39 63.2369 148.278 63.3331C148.006 63.5416 147.781 63.75 147.557 63.9264C147.349 64.1188 147.109 64.2791 146.837 64.4394C146.725 64.5517 146.517 64.4394 146.197 64.1669C145.877 63.8783 145.589 63.5416 145.317 63.1728C142.243 59.3568 139.186 55.5728 136.145 51.837C133.104 48.1012 130.015 44.3493 126.894 40.5814C120.748 33.0455 114.554 25.5739 108.311 18.1503L105.927 15.3604L104.902 14.1739V18.1503L104.822 32.7088L104.742 61.9061C104.742 62.323 104.71 62.7078 104.662 63.0125C104.614 63.3331 104.534 63.5416 104.422 63.6538L104.182 63.8141C104.022 63.9264 103.718 63.9584 103.27 63.9264C102.821 63.8943 102.533 63.8141 102.437 63.6538L102.197 62.8521C102.149 62.7399 102.117 62.6116 102.117 62.4513V61.8099L102.197 32.6928L102.277 18.0541V11.7689C102.277 11.6566 102.309 11.5604 102.357 11.4482C102.405 11.336 102.469 11.2398 102.517 11.1275C102.517 11.0794 102.565 10.9993 102.677 10.887L102.837 10.7267C103.11 10.5183 103.318 10.39 103.478 10.374C103.638 10.3419 103.846 10.3098 104.118 10.2617C104.39 10.2617 104.598 10.2938 104.758 10.3419C105.078 10.4541 105.334 10.6145 105.558 10.8229L106.743 12.2499L107.927 13.5967L110.312 16.3866C113.481 20.1545 116.618 23.8903 119.675 27.6101C122.749 31.3299 125.838 35.0658 128.975 38.8337L147.397 61.5053H147.317ZM156.04 40.5814C156.04 40.7417 155.96 40.9341 155.8 41.1425C155.8 41.1906 155.752 41.3029 155.64 41.4632C155.528 41.6236 155.432 41.7518 155.32 41.8641L151.191 46.5619L148.086 50.1374L147.525 50.7788L147.125 51.1796C147.013 51.3881 146.853 51.5324 146.645 51.5805C145.909 52.1096 145.156 52.0615 144.42 51.4201L143.94 50.9391L143.7 50.6184L142.74 49.4319L136.786 42.0404C136.513 41.7198 136.321 41.3991 136.193 41.0784C136.065 40.7577 136.049 40.5493 136.161 40.4371C136.369 40.2286 136.577 40.0362 136.802 39.8759C137.01 39.7156 137.25 39.5552 137.522 39.3949C137.634 39.2826 137.81 39.3468 138.082 39.5552C138.354 39.7637 138.61 40.0362 138.882 40.3569L144.836 47.7484L145.717 48.8547L146.117 48.3737L147.141 47.1872L149.206 44.8784L153.335 40.1004C153.912 39.5231 154.312 39.2185 154.52 39.2185C154.568 39.2185 154.616 39.2185 154.632 39.2506C154.664 39.2826 154.696 39.2826 154.744 39.2826C154.904 39.3307 155.16 39.5071 155.496 39.7957C155.832 40.0843 156.008 40.3409 156.008 40.5493L156.04 40.5814ZM139.522 35.5789C139.362 35.3704 139.25 35.162 139.17 34.9375C139.09 34.7291 139.106 34.5687 139.202 34.4565L140.547 33.3502C140.659 33.238 140.819 33.254 141.027 33.3823C141.235 33.5105 141.427 33.6869 141.587 33.8953L144.292 37.2303L145.557 38.8978L145.877 39.2185L146.437 38.497L147.861 36.9097L150.646 33.735C151.015 33.3662 151.303 33.2059 151.527 33.254C151.575 33.254 151.623 33.254 151.639 33.2861C151.671 33.3181 151.703 33.3181 151.751 33.3181C151.911 33.4304 152.167 33.6228 152.503 33.9114C152.839 34.2 153.015 34.4084 153.015 34.5046C153.015 34.7131 152.983 34.8734 152.935 34.9856L152.775 35.146C152.663 35.2582 152.615 35.3544 152.615 35.4666L149.83 38.6413L147.685 41.0303L147.365 41.4312L147.125 41.7518H147.045C147.045 41.7518 147.013 41.8641 146.965 41.9122C146.917 41.9122 146.837 41.9603 146.725 42.0725C146.037 42.6016 145.317 42.5535 144.58 41.9122C144.58 41.8641 144.548 41.7999 144.5 41.7518L144.34 41.5915L144.18 41.351L143.46 40.5493L142.195 38.8818L139.49 35.5468L139.522 35.5789ZM144.692 32.7088C144.692 32.7088 144.692 32.5485 144.66 32.3882C144.628 32.2278 144.628 32.0996 144.628 31.9873L144.708 11.9453C144.708 11.6727 144.74 11.4161 144.788 11.1436C144.836 10.871 144.98 10.7427 145.189 10.7427C145.717 10.6946 146.293 10.6946 146.933 10.7427C147.045 10.7427 147.125 10.871 147.205 11.1436C147.285 11.4161 147.317 11.7047 147.317 12.0254L147.237 32.0675C147.237 32.6447 147.125 33.0295 146.917 33.1738C146.869 33.1738 146.821 33.1738 146.805 33.2059C146.773 33.238 146.741 33.238 146.693 33.238C146.533 33.2861 146.229 33.3181 145.781 33.3181C145.333 33.3181 145.044 33.27 144.948 33.1578C144.788 32.9974 144.708 32.8371 144.708 32.6768L144.692 32.7088Z" fill="#5F2E89"/>
<path d="M208.54 62.0666C208.7 62.3873 208.828 62.7079 208.94 63.0286C209.052 63.3493 209.068 63.5898 209.02 63.7501C208.908 63.8624 208.86 63.9425 208.86 63.9906C208.748 64.1029 208.492 64.2632 208.06 64.4716C207.627 64.6801 207.339 64.7442 207.179 64.632L206.619 63.9906L206.459 63.67C206.411 63.5577 206.347 63.4776 206.299 63.4295C206.251 63.3813 206.187 63.3012 206.139 63.1889L197.48 44.2532H189.141L186.756 49.3519L185.091 52.9274L184.691 53.7291L182.947 53.6489L182.627 52.8472C182.258 51.9974 181.89 51.1797 181.522 50.378C181.154 49.5764 180.786 48.8067 180.418 48.0692C180.146 47.492 179.858 46.8827 179.537 46.2414C179.217 45.6 178.929 44.9426 178.657 44.2532H169.838C168.349 47.4279 166.877 50.6025 165.388 53.7611C163.9 56.9198 162.395 60.0784 160.859 63.2691C160.651 63.702 160.427 64.0708 160.187 64.3754C159.947 64.6961 159.754 64.8244 159.594 64.7763L158.01 63.9746C157.898 63.8624 157.898 63.6379 158.01 63.2531C158.122 62.8843 158.282 62.4835 158.49 62.0666C160.555 57.8818 162.571 53.681 164.524 49.4962C166.477 45.3114 168.446 41.0625 170.398 36.7655C171.359 34.649 172.319 32.5326 173.295 30.4482C174.272 28.3478 175.264 26.2474 176.272 24.1309C176.752 23.0727 177.233 22.0145 177.745 20.9563C178.241 19.8981 178.769 18.8398 179.297 17.7816L180.802 14.6711L181.986 12.2821L182.066 12.0416L182.146 11.9614L182.226 11.8011L182.547 11.4002C182.755 11.1918 182.963 11.0314 183.187 10.9192C183.555 10.807 183.875 10.7909 184.147 10.839C184.355 10.8871 184.627 11.0314 184.947 11.2399C185.155 11.4483 185.284 11.6087 185.348 11.7209L185.508 11.9614V12.0416L185.908 12.8433L186.628 14.4306L190.998 23.9706L196.872 36.6212L208.54 62.0826V62.0666ZM180.114 58.475C180.226 58.6835 180.306 58.908 180.354 59.1485C180.402 59.389 180.386 59.5653 180.274 59.6615L180.114 59.8219C180.002 59.9341 179.762 60.0944 179.361 60.3029C178.961 60.5113 178.689 60.5915 178.529 60.5434C178.321 60.4311 178.177 60.3029 178.129 60.1425L177.969 59.9822C177.809 59.8219 177.729 59.6936 177.729 59.5814L175.424 54.9637L174.32 52.6548L174.24 52.5747V52.735L173.055 54.9637L170.75 59.6615C170.59 59.9341 170.414 60.1746 170.238 60.4151C170.046 60.6556 169.886 60.7198 169.726 60.6075C169.454 60.4953 169.214 60.367 168.974 60.2067C168.734 60.0463 168.478 59.9181 168.221 59.8058C168.109 59.6936 168.093 59.5172 168.141 59.2447C168.189 58.9721 168.269 58.7155 168.381 58.443L171.871 51.4363L172.831 49.7688L172.911 49.4481L172.991 49.2878H173.071V49.2076C173.279 48.8869 173.519 48.6785 173.791 48.5662C173.903 48.5181 174.08 48.4861 174.352 48.4861C174.56 48.4861 174.768 48.5342 174.992 48.6464C175.152 48.7586 175.264 48.8388 175.344 48.919C175.424 48.9992 175.52 49.0954 175.616 49.1916L175.776 49.6726L176.096 50.3139L177.841 53.7291L180.146 58.4269L180.114 58.475ZM196.231 41.6237L194.487 37.8077L184.243 15.6171L183.763 14.6551L183.203 15.8415L181.698 19.0162C181.17 20.0744 180.658 21.1166 180.146 22.1588C179.65 23.185 179.153 24.2432 178.673 25.3014L172.799 37.952L171.134 41.6076H178.513C178.929 40.7098 179.345 39.8279 179.746 38.9781C180.146 38.1283 180.546 37.2625 180.978 36.3486L182.643 32.7731L182.963 31.9714H184.787L185.107 32.8533C185.476 33.703 185.828 34.5047 186.18 35.2743C186.516 36.044 186.884 36.7975 187.252 37.5351L189.157 41.5916H196.231V41.6237ZM186.772 42.8102L184.867 38.6735C184.707 38.3047 184.531 37.952 184.355 37.5992C184.163 37.2625 184.003 36.8777 183.843 36.4448L183.363 37.4068C182.931 38.3047 182.531 39.1866 182.13 40.0363C181.73 40.8861 181.33 41.768 180.898 42.6659C181.218 43.4034 181.538 44.141 181.89 44.8464C182.226 45.5679 182.563 46.2734 182.883 46.9468C183.043 47.3156 183.203 47.6844 183.363 48.0211C183.523 48.3738 183.699 48.7266 183.923 49.0954L184.323 48.1333C184.739 47.2836 185.155 46.4338 185.556 45.584C185.956 44.7342 186.356 43.8684 186.788 42.9545V42.7941L186.772 42.8102ZM199.096 58.3949C199.208 58.6674 199.288 58.8919 199.369 59.1164C199.449 59.3248 199.433 59.4852 199.337 59.5974L199.176 59.8379C199.064 59.9501 198.824 60.1105 198.424 60.3189C198.024 60.5274 197.752 60.6075 197.592 60.5594C197.384 60.4472 197.224 60.3189 197.112 60.1586L196.952 59.9982C196.84 59.886 196.792 59.7577 196.792 59.5974L194.407 54.9797L193.302 52.6709L193.222 52.5907L193.142 52.751L189.573 59.6776C189.461 59.9501 189.317 60.1906 189.141 60.4311C188.949 60.6717 188.789 60.7358 188.629 60.6236L187.044 59.8219C186.932 59.7096 186.916 59.5333 186.964 59.2607C187.012 58.9881 187.124 58.7316 187.284 58.459L189.669 53.8413L191.414 50.346L191.734 49.7848L192.054 49.1435C192.166 48.935 192.374 48.7426 192.694 48.5823C192.806 48.5342 193.014 48.5021 193.334 48.5021C193.494 48.5021 193.67 48.5502 193.895 48.6624C194.215 48.7747 194.423 48.951 194.535 49.2236L194.615 49.4641L194.775 49.7046L195.095 50.2658L195.655 51.4523L196.84 53.7611L199.144 58.3788L199.096 58.3949Z" fill="#5F2E89"/>
<path d="M256.908 53.7133C257.116 53.7614 257.404 53.9057 257.788 54.1462C258.156 54.3867 258.316 54.6433 258.268 54.8998C258.156 55.2205 258.028 55.477 257.868 55.7015C257.82 55.7015 257.788 55.7336 257.788 55.7817C257.74 55.8298 257.708 55.8939 257.708 55.942C257.708 55.9901 257.676 56.0542 257.628 56.1023C257.516 56.2146 257.436 56.2947 257.388 56.3749C257.34 56.4551 257.26 56.5192 257.148 56.5673C255.291 58.5876 253.21 60.2871 250.874 61.666C248.537 63.0449 246.024 64.023 243.335 64.6162C241.382 65.0331 239.494 65.2576 237.701 65.2576V68.9934C238.389 69.1537 239.045 69.3942 239.654 69.7149C240.262 70.0356 240.774 70.4525 241.206 70.9816C241.782 71.5588 242.263 72.3124 242.631 73.2103C242.951 74.1723 243.079 75.0702 243.031 75.9199C243.031 76.7216 242.823 77.5874 242.391 78.5495C242.022 79.3512 241.43 80.0406 240.646 80.6178C239.958 81.1469 239.189 81.5478 238.341 81.8043C237.365 82.0769 236.533 82.2051 235.812 82.2051C235.476 82.2051 235.3 82.0929 235.236 81.8845V81.644C235.188 81.4836 235.156 81.179 235.156 80.73C235.156 80.2811 235.188 79.9925 235.236 79.8963L235.396 79.6558H235.476C235.476 79.6558 235.556 79.6558 235.556 79.6237C235.556 79.5917 235.588 79.5917 235.636 79.5917C236.901 79.5917 238.021 79.2389 238.965 78.5495C239.862 77.9081 240.31 76.9782 240.31 75.7596C240.422 74.6533 240.038 73.6592 239.205 72.8094C238.469 71.9596 237.509 71.5428 236.34 71.5428H236.26C235.892 71.5428 235.588 71.4145 235.348 71.1419C235.108 70.8693 234.996 70.5647 234.996 70.1799V65.2415C232.291 64.969 229.762 64.4238 227.377 63.574C226.737 63.3015 226.113 63.0289 225.473 62.7403C224.832 62.4517 224.224 62.147 223.648 61.8264C223.072 61.4576 222.496 61.0888 221.935 60.72C221.375 60.3513 220.831 59.9504 220.303 59.5335C219.775 59.1167 219.262 58.6677 218.75 58.2188C218.254 57.7698 217.79 57.2728 217.358 56.7437C217.038 56.423 216.83 56.1665 216.717 55.942L215.997 55.2205C215.789 54.9479 215.581 54.6753 215.405 54.3867C215.213 54.0981 215.053 53.8095 214.893 53.553C213.356 51.2762 212.204 48.8231 211.436 46.1935C210.667 43.564 210.283 40.9024 210.283 38.1927C210.331 37.5033 210.379 36.8299 210.395 36.1565C210.427 35.4991 210.491 34.8096 210.587 34.1202C210.699 33.7033 210.747 33.3826 210.747 33.1582L210.987 32.116L211.468 30.208C211.676 29.5666 211.884 28.9413 212.108 28.3C212.316 27.6586 212.556 27.0333 212.828 26.392C213.356 25.1253 213.997 23.9228 214.733 22.8165C215.053 22.1751 215.453 21.63 215.917 21.149L217.182 19.5616L219.326 17.4131L220.127 16.7718C222.143 15.0241 224.416 13.5971 226.961 12.4748C229.506 11.4165 232.099 10.7271 234.74 10.4064C237.381 10.0857 240.086 10.214 242.839 10.8073L244.823 11.2883L245.784 11.6089L246.744 11.9296C247.913 12.3625 249.129 12.9077 250.393 13.5971C252.778 14.976 254.923 16.6435 256.828 18.6157C257.244 18.9844 257.564 19.3692 257.788 19.7701C257.996 20.1709 258.06 20.4275 257.948 20.5237C257.516 20.9566 257.068 21.3253 256.604 21.63C256.444 21.7422 256.204 21.63 255.883 21.3574C255.563 21.0688 255.243 20.7642 254.923 20.4435C254.075 19.5456 253.162 18.7119 252.186 17.9422C251.21 17.1726 250.185 16.4992 249.129 15.906C248.601 15.6334 248.057 15.3769 247.496 15.1043C246.936 14.8317 246.376 14.6072 245.784 14.3828L244.903 14.0621L244.023 13.8216L242.279 13.3406C239.942 12.8596 237.541 12.7634 235.044 13.0199C232.547 13.2925 230.194 13.9178 227.969 14.9279C225.745 15.8899 223.68 17.1566 221.775 18.7439L221.055 19.3853C220.783 19.5456 220.575 19.754 220.415 20.0266C220.207 20.2351 219.983 20.4435 219.775 20.6199C219.566 20.8123 219.342 21.0367 219.134 21.2933L217.95 22.7203C217.582 23.1371 217.23 23.6502 216.91 24.2274C216.589 24.7084 216.285 25.2055 215.997 25.7346C215.709 26.2637 215.421 26.8249 215.165 27.4021C214.685 28.4603 214.285 29.6308 213.981 30.8974L213.5 32.6451L213.34 33.6071C213.292 33.7675 213.244 33.9118 213.228 34.04C213.196 34.1683 213.196 34.3126 213.196 34.4729C213.084 35.0501 213.02 35.6594 213.004 36.3008C212.972 36.9421 212.94 37.5514 212.892 38.1286C212.892 40.6299 213.228 43.0509 213.932 45.4079C214.621 47.7648 215.645 49.9615 217.022 51.9657C217.182 52.2382 217.358 52.4787 217.534 52.7192C217.726 52.9597 217.918 53.2163 218.126 53.4728C218.334 53.7935 218.526 54.034 218.686 54.1943L219.246 54.9159C220.095 55.7656 220.991 56.5834 221.951 57.385C222.432 57.8019 222.912 58.1867 223.424 58.4914C223.92 58.812 224.448 59.1327 224.976 59.4534C225.505 59.7741 226.033 60.0466 226.561 60.2871C227.089 60.5276 227.649 60.7842 228.226 61.0407C230.338 61.8424 232.563 62.3074 234.9 62.4677V58.331C234.9 58.0103 235.06 57.85 235.38 57.85H237.205C237.477 57.85 237.605 58.0103 237.605 58.331L237.685 62.5479C238.533 62.5479 239.382 62.4998 240.23 62.3875C241.078 62.2753 241.926 62.147 242.775 61.9867C245.16 61.4095 247.4 60.4956 249.529 59.277C251.642 58.0584 253.547 56.5513 255.243 54.7395L255.643 54.3386C255.755 54.2264 255.835 54.1623 255.883 54.1462C255.931 54.1142 255.995 54.05 256.043 53.9538C256.364 53.7454 256.572 53.6332 256.684 53.6332H256.924L256.908 53.7133ZM248.249 28.2519C248.361 28.3641 248.313 28.6527 248.137 29.1337C247.945 29.6147 247.704 30.0957 247.384 30.5607C246.696 31.7312 246.024 32.9016 245.352 34.0561C244.695 35.2265 243.991 36.397 243.255 37.5514L247.464 44.7184C247.993 45.6163 248.265 46.2897 248.265 46.7066C248.265 46.8189 248.265 46.883 248.233 46.899C248.201 46.9311 248.201 46.9632 248.201 47.0113C248.089 47.1716 247.849 47.364 247.48 47.6045C247.112 47.845 246.792 47.8771 246.52 47.7167C246.312 47.6045 246.088 47.364 245.88 46.9952C245.832 46.883 245.752 46.7547 245.64 46.5944C245.528 46.4821 245.448 46.3859 245.368 46.2737C245.288 46.1615 245.224 46.0653 245.176 45.953L241.766 40.1489C241.446 40.6299 241.142 41.1109 240.854 41.6239C240.566 42.121 240.262 42.6501 239.942 43.1792L238.037 46.2737L237.877 46.434L238.037 46.7547L238.677 47.7167L239.782 49.6247L242.167 53.5209C242.487 54.0019 242.567 54.3386 242.407 54.5631L242.247 54.7234C242.135 54.8357 241.894 55.0121 241.494 55.2846C241.094 55.5572 240.838 55.6534 240.742 55.6053C240.582 55.6053 240.422 55.5251 240.262 55.3648L240.102 55.2045C239.99 55.0922 239.942 54.996 239.942 54.8838L237.557 50.9876L236.324 49.0796L236.244 48.9193L236.164 49.1598L232.563 54.8838C232.195 55.5732 231.843 55.8458 231.523 55.6855L230.098 54.7234C229.986 54.6112 229.97 54.4509 230.018 54.2424C230.066 54.034 230.178 53.7935 230.338 53.5209L232.643 49.6247L233.908 47.7167L234.468 46.7547L234.228 46.3539L233.684 45.3277L232.435 43.2594L230.786 40.3092C230.21 41.2712 229.634 42.2172 229.074 43.1792C228.514 44.1412 227.953 45.0872 227.361 46.0492C227.041 46.5783 226.721 47.0433 226.401 47.4442C226.081 47.845 225.841 48.0214 225.681 47.9572C225.2 47.7488 224.704 47.4281 224.176 46.9952C224.064 46.883 224.128 46.6104 224.336 46.1615C224.544 45.7125 224.784 45.2155 225.056 44.6864C225.793 43.5159 226.497 42.3455 227.153 41.191C227.809 40.0206 228.498 38.8662 229.186 37.6957L225.056 30.6088C224.784 30.192 224.576 29.7751 224.416 29.3742C224.256 28.9734 224.208 28.7008 224.256 28.5405C224.256 28.3801 224.288 28.2679 224.336 28.2198C224.448 28.0595 224.672 27.8671 225.056 27.6266C225.425 27.3861 225.713 27.354 225.937 27.5143C226.145 27.6266 226.385 27.8671 226.657 28.2358C226.705 28.3481 226.785 28.4764 226.897 28.6367C227.105 28.9574 227.265 29.1658 227.377 29.278L230.786 35.0822L232.579 32.132L233.828 29.9835L234.452 28.9413L234.692 28.5405L233.812 27.1135L232.627 25.2055L230.322 21.3093C230.002 20.8283 229.922 20.4916 230.082 20.2832C230.082 20.235 230.082 20.1869 230.114 20.1709C230.146 20.1388 230.146 20.1068 230.146 20.0587C230.258 19.9464 230.498 19.7861 230.899 19.5456C231.299 19.3051 231.571 19.2089 231.731 19.273C231.843 19.273 231.971 19.3532 232.131 19.5135L232.291 19.6739C232.291 19.6739 232.387 19.7861 232.403 19.8342C232.435 19.8823 232.467 19.9464 232.515 19.9945L234.82 23.8106L236.052 25.7987L236.132 25.9591L236.292 25.7186L237.525 23.8106L239.91 19.9144C240.022 19.6418 240.166 19.4334 240.342 19.273C240.534 19.1127 240.694 19.0806 240.854 19.1929C241.126 19.3532 241.366 19.4975 241.606 19.6258C241.846 19.754 242.103 19.9304 242.359 20.1388C242.471 20.2511 242.471 20.4114 242.391 20.6199C242.311 20.8283 242.215 21.0688 242.119 21.3414L239.734 25.1574L238.549 27.1456L237.909 28.1076L237.829 28.2679V28.3481L238.149 28.9093L238.789 29.9354L239.974 32.0839L241.718 34.9539C242.295 33.9919 242.871 33.0459 243.431 32.0839C243.991 31.1219 244.551 30.1759 245.144 29.2139C245.464 28.6848 245.784 28.2198 246.104 27.819C246.424 27.4181 246.664 27.2738 246.824 27.3861C247.096 27.4983 247.336 27.6105 247.576 27.7388C247.817 27.8671 248.041 28.0434 248.249 28.2519ZM240.15 37.6476L240.23 37.5674L237.765 33.3506L236.452 31.2822L236.292 30.9616L236.052 31.4426L234.756 33.5109L232.211 37.6476V37.7278L234.676 41.9446L235.892 44.013L236.052 44.3336L236.372 43.8526L237.685 41.7843L240.15 37.6476Z" fill="#5F2E89"/>
<path d="M312.88 62.0665C313.04 62.3872 313.168 62.7079 313.28 63.0285C313.392 63.3492 313.408 63.5897 313.36 63.75C313.248 63.8623 313.2 63.9425 313.2 63.9906C313.088 64.1028 312.832 64.2631 312.399 64.4716C311.967 64.68 311.679 64.7441 311.519 64.6319L310.959 63.9906L310.799 63.6699C310.751 63.5576 310.687 63.4775 310.639 63.4294C310.591 63.3813 310.527 63.3011 310.479 63.1889L301.82 44.2531H293.481L291.096 49.2717L289.431 52.9273L289.031 53.729L287.287 53.6488L286.966 52.8472C286.598 51.9974 286.23 51.1797 285.862 50.378C285.494 49.5763 285.126 48.8067 284.758 48.0691C284.486 47.4919 284.197 46.8826 283.877 46.2413C283.557 45.5999 283.269 44.9426 282.997 44.2531H274.178C272.689 47.4278 271.217 50.6024 269.728 53.7611C268.24 56.9197 266.735 60.0783 265.199 63.269C264.991 63.7019 264.767 64.0707 264.526 64.3754C264.286 64.696 264.094 64.8243 263.934 64.7762L262.35 63.9745C262.238 63.8623 262.238 63.6378 262.35 63.253C262.462 62.8842 262.622 62.4834 262.83 62.0665C264.895 57.8817 266.911 53.6809 268.864 49.4961C270.817 45.3113 272.785 41.0624 274.738 36.7654C275.698 34.649 276.659 32.5325 277.635 30.4481C278.611 28.3477 279.604 26.2473 280.612 24.1309C281.092 23.0727 281.572 22.0144 282.085 20.9562C282.581 19.898 283.109 18.8398 283.637 17.7815L285.142 14.671L286.566 11.801L286.886 11.4002C287.094 11.1917 287.303 11.0314 287.527 10.9191C287.895 10.8069 288.215 10.7909 288.487 10.839C288.695 10.8871 288.967 11.0314 289.287 11.2398C289.495 11.4483 289.639 11.6086 289.687 11.7208L289.847 11.9613V12.0415L290.248 12.8432L290.968 14.4305L295.337 23.9705L301.211 36.6211L312.88 62.0826V62.0665ZM284.454 58.475C284.566 58.6834 284.646 58.9079 284.694 59.1484C284.742 59.3889 284.726 59.5653 284.614 59.6615L284.454 59.8218C284.341 59.934 284.101 60.0944 283.701 60.3028C283.301 60.5112 283.029 60.5914 282.869 60.5433C282.661 60.4311 282.517 60.3028 282.469 60.1425L282.309 59.9821C282.149 59.8218 282.069 59.6935 282.069 59.5813L279.764 54.9636L278.659 52.6548L278.579 52.5746V52.7349L277.395 54.9636L275.09 59.6615C274.93 59.934 274.754 60.1745 274.578 60.415C274.386 60.6556 274.226 60.7197 274.066 60.6074C273.794 60.4952 273.554 60.3669 273.314 60.2066C273.073 60.0463 272.817 59.918 272.561 59.8058C272.449 59.6935 272.433 59.5172 272.481 59.2446C272.529 58.972 272.609 58.7155 272.721 58.4429L276.211 51.4362L277.171 49.7687L277.251 49.448L277.331 49.2877H277.411V49.2075C277.619 48.8868 277.859 48.6784 278.131 48.5662C278.243 48.5181 278.419 48.486 278.691 48.486C278.9 48.486 279.108 48.5341 279.332 48.6463C279.492 48.7586 279.604 48.8387 279.684 48.9189C279.764 48.9991 279.86 49.0953 279.956 49.1915L280.116 49.6725L280.436 50.3138L282.181 53.729L284.486 58.4269L284.454 58.475ZM275.634 5.6601C275.362 5.45166 275.346 5.24323 275.554 5.01875C275.97 4.44154 276.387 3.91243 276.787 3.43142C277.187 2.95041 277.651 2.4694 278.179 2.00443C278.451 1.79599 278.707 1.58755 278.98 1.36308C279.252 1.15464 279.556 0.946205 279.94 0.721734L280.26 0.641566L280.5 0.561397L280.98 0.320893L282.085 0.0803877C282.821 -0.0318479 283.541 -0.0318479 284.229 0.0483204C284.918 0.128489 285.574 0.272792 286.214 0.481229C286.79 0.593465 287.431 0.83397 288.119 1.20274L288.999 1.60359L289.879 2.16476C290.456 2.48544 290.984 2.82214 291.464 3.15885C291.944 3.51159 292.424 3.81623 292.889 4.07277L293.529 4.39344C293.641 4.39344 293.705 4.39344 293.721 4.42551C293.753 4.45758 293.817 4.45758 293.913 4.45758L294.233 4.53774C294.601 4.69808 295.033 4.73015 295.497 4.61791C296.346 4.45758 297.194 4.00863 298.042 3.27109C298.683 2.62974 299.339 1.76392 300.027 0.641566C300.187 0.481229 300.347 0.433128 300.507 0.481229C300.555 0.481229 300.603 0.481229 300.619 0.513297C300.651 0.545364 300.683 0.545364 300.731 0.545364C300.843 0.657599 301.083 0.801902 301.484 0.978273C301.884 1.17068 302.124 1.31498 302.236 1.41118C302.284 1.45928 302.316 1.57152 302.316 1.73185V1.81202C302.316 1.81202 302.284 1.92426 302.236 1.97236C301.916 2.54957 301.564 3.11075 301.163 3.63986C300.763 4.16897 300.299 4.66601 299.771 5.14702C299.291 5.62803 298.731 6.06094 298.058 6.46178C297.402 6.86263 296.698 7.11916 295.946 7.21537C295.049 7.3276 294.281 7.29553 293.641 7.1352L293.081 6.97486L292.52 6.81452L291.56 6.33351C290.984 6.01284 290.44 5.69217 289.927 5.33943C289.431 5.00272 288.903 4.66601 288.375 4.34534C288.055 4.1369 287.815 4.00863 287.655 3.9445L286.934 3.54366C286.662 3.43142 286.422 3.33522 286.182 3.22298C285.942 3.11075 285.686 3.03058 285.43 2.98248C284.261 2.61371 283.253 2.50147 282.405 2.66181L281.685 2.82214L281.284 2.98248H281.124L281.044 3.06265C280.676 3.22298 280.276 3.51159 279.86 3.9445C278.964 4.74618 278.211 5.59597 277.635 6.49385C277.475 6.76642 277.267 6.78246 276.995 6.57402L275.57 5.612L275.634 5.6601ZM300.571 41.6236L298.827 37.8076L288.583 15.617L288.103 14.655L287.543 15.8415L286.038 19.0161C285.51 20.0744 284.998 21.1165 284.486 22.1587C283.989 23.1849 283.493 24.2431 283.013 25.3013L277.139 37.9519L275.474 41.6076H282.853C283.269 40.7097 283.685 39.8278 284.085 38.978C284.486 38.1283 284.886 37.2624 285.318 36.3485L286.982 32.773L287.383 31.9713H289.047L289.447 32.773C289.815 33.6709 290.168 34.5047 290.52 35.2743C290.856 36.0439 291.224 36.7975 291.592 37.535L293.497 41.5915H300.571V41.6236ZM291.128 42.8101L289.223 38.6734C289.063 38.3046 288.887 37.9519 288.711 37.5992C288.519 37.2624 288.359 36.8776 288.199 36.4447L287.719 37.4869L285.254 42.6498C285.574 43.3873 285.894 44.1248 286.246 44.8303C286.598 45.5518 286.918 46.2573 287.239 46.9307C287.399 47.2995 287.559 47.6683 287.719 48.005C287.879 48.3577 288.055 48.7105 288.279 49.0793L288.759 48.1172L291.144 42.9544V42.7941L291.128 42.8101ZM303.436 58.3948C303.548 58.6674 303.628 58.8918 303.708 59.1163C303.788 59.3248 303.772 59.4851 303.676 59.5973L303.516 59.8378C303.404 59.9501 303.164 60.1104 302.764 60.3188C302.364 60.5273 302.092 60.6075 301.932 60.5593C301.724 60.4471 301.564 60.3188 301.452 60.1585L301.292 59.9982C301.179 59.8859 301.131 59.7577 301.131 59.5973L298.747 54.9796L297.642 52.6708L297.562 52.5906L297.482 52.751L293.913 59.6775C293.801 59.9501 293.657 60.1906 293.481 60.4311C293.289 60.6716 293.129 60.7357 292.969 60.6235L291.384 59.8218C291.272 59.7096 291.256 59.5332 291.304 59.2606C291.352 58.988 291.464 58.7315 291.624 58.4589L294.009 53.8412L295.754 50.3459L296.074 49.7847L296.394 49.1434C296.506 48.9349 296.714 48.7425 297.034 48.5822C297.146 48.5341 297.354 48.502 297.674 48.502C297.834 48.502 298.01 48.5501 298.234 48.6624C298.555 48.7746 298.763 48.951 298.875 49.2236L298.955 49.4641L299.115 49.7046L299.995 51.4522L301.179 53.7611L303.484 58.3788L303.436 58.3948Z" fill="#5F2E89"/>
<path d="M364.193 22.848C365.682 25.1889 366.77 27.6581 367.49 30.2876C368.211 32.9172 368.515 35.6268 368.403 38.4488C368.291 42.2648 367.442 45.9044 365.858 49.3517C364.273 52.7989 362.064 55.7651 359.264 58.2664C356.719 60.495 353.918 62.1946 350.844 63.3651C347.771 64.5355 344.57 65.1127 341.241 65.1127H340.009C339.608 65.1127 339.208 65.0807 338.776 65.0326C334.919 64.7119 331.366 63.6537 328.132 61.8579C324.899 60.0621 322.146 57.609 319.873 54.5466C317.537 51.3719 315.968 47.8605 315.152 44.0445C314.336 40.2285 314.368 36.3804 315.264 32.5163C316.16 28.4277 317.905 24.6758 320.498 21.2126C322.402 18.7755 324.579 16.7392 327.012 15.0877C329.445 13.4523 332.022 12.2337 334.759 11.4641C337.48 10.6945 340.297 10.3738 343.178 10.5021C346.059 10.6304 348.876 11.2557 351.629 12.378C354.27 13.4363 356.639 14.8633 358.735 16.627C360.832 18.4067 362.641 20.4911 364.177 22.864L364.193 22.848ZM365.778 38.3526C365.826 35.7551 365.522 33.2378 364.865 30.8007C364.209 28.3636 363.217 26.1189 361.92 24.0826C360.624 22.0463 359.023 20.2185 357.119 18.6312C355.214 17.0438 353.069 15.7611 350.684 14.8151C347.883 13.7088 344.986 13.1476 342.025 13.1476C338.376 13.1476 334.871 13.9654 331.51 15.6168C328.148 17.2683 325.219 19.6733 322.738 22.864C321.522 24.4033 320.53 26.0227 319.761 27.7222C318.993 29.4218 318.401 31.2016 317.969 33.0454C317.233 36.5408 317.217 40.0201 317.937 43.4673C318.657 46.9145 320.034 50.0732 322.098 52.9272C324.115 55.6849 326.564 57.8655 329.477 59.4849C332.39 61.1043 335.591 62.0503 339.08 62.3069C342.522 62.6275 345.819 62.2748 348.972 61.2326C352.125 60.1904 354.974 58.5389 357.503 56.2622C360.048 54.0335 362.032 51.3559 363.457 48.2293C364.881 45.1027 365.65 41.8158 365.762 38.3686L365.778 38.3526ZM327.172 41.3829L324.387 44.5576C323.907 45.0386 323.539 45.1989 323.283 45.0386L322.018 43.8521C321.906 43.7399 321.906 43.5795 322.018 43.3711C322.13 43.1627 322.258 42.9703 322.418 42.8099L325.203 39.6353L326.548 38.0479L327.108 37.3264L326.948 37.0859L326.308 36.2842L325.043 34.6167L322.418 31.4421C322.05 31.0733 321.922 30.7526 322.018 30.48C322.018 30.4319 322.066 30.3518 322.178 30.2395C322.29 30.1273 322.498 29.9189 322.819 29.5982C323.139 29.2775 323.379 29.1172 323.539 29.1172C323.587 29.1172 323.731 29.1653 323.939 29.2775C323.987 29.2775 324.147 29.4058 324.419 29.6784L327.124 32.9332L328.389 34.6809L329.349 35.8673L329.509 36.1079C329.669 36.3163 329.797 36.5247 329.909 36.7492C330.069 37.2302 330.021 37.7273 329.749 38.2564L329.509 38.577L329.429 38.6572V38.7374L329.269 38.8977L328.549 39.6994L327.204 41.3669L327.172 41.3829ZM334.647 44.2369L329.797 50.2816H329.717C329.445 50.6985 329.173 51.0512 328.885 51.3078C328.597 51.5803 328.372 51.6605 328.212 51.5483C327.732 51.2276 327.284 50.8588 326.868 50.4419C326.756 50.3297 326.804 50.1052 326.98 49.7685C327.172 49.4318 327.412 49.047 327.732 48.6141C328.533 47.604 329.333 46.6099 330.149 45.6318C330.965 44.6538 331.782 43.6276 332.566 42.5694L335.031 39.6192L336.295 38.1121L336.856 37.3104L336.936 37.15L336.455 36.5087L335.271 35.0015L332.806 31.9712L327.796 26.0868C327.524 25.8142 327.316 25.5417 327.156 25.2531C326.996 24.9645 326.916 24.74 326.916 24.5796C326.916 24.4674 326.948 24.3872 326.996 24.3391C327.108 24.1788 327.316 23.9383 327.636 23.6176C327.956 23.297 328.212 23.1687 328.437 23.2168C328.645 23.329 328.853 23.4894 329.077 23.6978L329.797 24.4193L334.887 30.3037L337.352 33.334L338.536 34.9214L339.176 35.6429L339.336 35.8834L339.416 35.9635L339.576 36.2842C339.785 36.6049 339.849 37.0538 339.737 37.631L339.496 38.2724L339.256 38.5931L338.936 38.9939L338.296 39.7154L337.112 41.2226L334.647 44.2529V44.2369ZM333.846 20.3788C333.638 20.1063 333.478 19.8497 333.366 19.5771C333.254 19.3046 333.254 19.1282 333.366 19.016C333.638 18.8075 333.862 18.6151 334.087 18.4548C334.295 18.2945 334.535 18.1341 334.807 17.9738C334.919 17.8615 335.079 17.9257 335.319 18.1341C335.559 18.3426 335.783 18.5831 335.991 18.8556L339.4 23.2328C339.673 23.6016 339.961 23.9704 340.281 24.3071C340.601 24.6598 340.889 25.0446 341.161 25.4615L341.721 26.2632V26.183L342.602 25.0767L344.266 22.848L347.675 18.3907C347.835 18.1822 348.011 17.9898 348.188 17.8295C348.38 17.6691 348.524 17.589 348.62 17.589H348.94C349.1 17.7012 349.356 17.8615 349.692 18.1021C350.028 18.3426 350.236 18.535 350.284 18.6953C350.284 18.8075 350.236 19.016 350.124 19.3366C350.076 19.3847 350.012 19.4649 349.964 19.5771C349.852 19.7856 349.772 19.9299 349.724 19.978L344.714 26.664L343.834 27.7703L343.434 28.3315L343.194 28.572L343.114 28.8125L342.634 29.2134C342.201 29.4859 341.737 29.5661 341.209 29.4539C341.097 29.4058 341.017 29.3416 340.937 29.2935C340.857 29.2454 340.761 29.1813 340.665 29.1332L340.425 28.8927C340.425 28.8927 340.345 28.8606 340.345 28.8125L340.265 28.7324L339.865 28.1712L338.984 27.0649L337.32 24.8362C336.743 24.0986 336.151 23.3611 335.575 22.6556C334.999 21.9341 334.407 21.1805 333.83 20.3949L333.846 20.3788ZM349.66 55.0596C350.028 55.6368 350.188 56.0377 350.14 56.2461L349.98 56.4866C349.868 56.5989 349.644 56.7913 349.308 57.0799C348.956 57.3685 348.716 57.4968 348.556 57.4326L347.995 57.1119L347.515 56.6309C346.987 55.8934 346.459 55.1879 345.931 54.5305C345.403 53.8731 344.842 53.1677 344.266 52.4141L342.602 50.2656L341.801 49.1592L339.576 52.0293L336.247 56.2461C336.039 56.5187 335.815 56.7432 335.607 56.9195C335.399 57.1119 335.239 57.144 335.127 57.0318L333.702 55.9896C333.59 55.8773 333.59 55.701 333.702 55.4284C333.814 55.1558 333.974 54.8993 334.183 54.6267C334.759 53.8892 335.319 53.1677 335.847 52.4782C336.375 51.7888 336.936 51.0673 337.512 50.3297L339.176 48.2614L339.977 47.2192L340.377 46.658L340.777 46.2572C340.889 46.2091 340.985 46.1449 341.097 46.0968C341.209 46.0487 341.305 46.0167 341.417 46.0167C341.833 45.8563 342.297 45.9044 342.762 46.177C342.922 46.2892 343.05 46.4175 343.162 46.5778L343.322 46.7382L343.562 47.0588L343.962 47.5398L344.762 48.6462L346.347 50.7145L349.676 55.0115L349.66 55.0596ZM355.774 48.6943C356.094 49.063 356.35 49.4318 356.527 49.8006C356.719 50.1694 356.751 50.4099 356.639 50.5221C356.366 50.7305 356.142 50.923 355.918 51.0833C355.71 51.2436 355.47 51.404 355.198 51.5643C355.086 51.6765 354.878 51.5964 354.558 51.3238C354.238 51.0512 353.95 50.7145 353.678 50.2976L348.828 44.3331L346.363 41.3028L345.098 39.7956L344.538 39.0741L344.378 38.8336L344.138 38.5931C343.978 38.3846 343.85 38.0159 343.738 37.4867C343.738 37.118 343.818 36.7171 343.978 36.3003L344.298 35.8994L344.378 35.7391L345.018 34.9374L346.203 33.4302L348.588 30.3357L353.597 24.3712C353.87 24.0986 354.126 23.8742 354.398 23.6497C354.67 23.4413 354.878 23.313 355.038 23.2489C355.086 23.2489 355.134 23.2489 355.15 23.297C355.182 23.329 355.214 23.329 355.262 23.329C355.47 23.3771 355.758 23.5375 356.094 23.81C356.43 24.0826 356.591 24.3391 356.527 24.6117C356.527 24.6598 356.414 24.9003 356.206 25.3332C356.094 25.4455 356.014 25.5417 355.966 25.6539C355.854 25.7661 355.79 25.8463 355.774 25.9265C355.742 26.0066 355.71 26.0708 355.662 26.1189L350.652 32.0032L347.083 36.5408L346.523 37.3424L346.603 37.4226L347.163 38.1441L348.348 39.6513L355.726 48.7263L355.774 48.6943ZM353.549 36.2041C354.398 35.1939 355.23 34.1838 356.046 33.1737C356.863 32.1636 357.727 31.1534 358.623 30.1433C358.991 29.7746 359.279 29.6142 359.504 29.6623C359.552 29.6623 359.6 29.6623 359.616 29.6944C359.648 29.7265 359.68 29.7265 359.728 29.7265C359.888 29.8387 360.128 30.0471 360.448 30.3678C360.768 30.6885 360.944 30.8969 361.008 31.0091C361.008 31.1214 360.96 31.2817 360.848 31.4902C360.848 31.5383 360.816 31.6024 360.768 31.6505C360.656 31.7627 360.608 31.8429 360.608 31.891C359.808 32.7889 359.039 33.6868 358.271 34.6007C357.503 35.4986 356.751 36.4285 356.014 37.3905L356.334 37.7914L357.599 39.2985L360.224 42.2487C360.64 42.7298 360.752 43.0665 360.544 43.2749L359.279 44.4614C359.167 44.5736 359.007 44.5736 358.799 44.4614C358.591 44.3492 358.399 44.1888 358.239 43.9804L355.614 41.0302L354.35 39.523L353.71 38.7213L353.469 38.4808C353.469 38.4808 353.469 38.4007 353.437 38.4007C353.405 38.4007 353.405 38.3686 353.405 38.3205L353.165 37.8395C353.053 37.5188 353.053 37.1981 353.165 36.8775L353.405 36.3965L353.485 36.3163V36.2361L353.565 36.1559L353.549 36.2041Z" fill="#5F2E89"/>
</g>
<defs>
<clipPath id="clip0_2541_2298">
<rect width="450" height="141" fill="white"/>
</clipPath>
</defs>
</svg>
